<svg id="Layer_1" xmlns="http://www.w3.org/2000/svg" xmlns:xlink="http://www.w3.org/1999/xlink" viewBox="0 0 1921.5 1030.8"><style>.st0{fill:#00bcf2}.st1{fill:#1aa45e}.st2{fill:#006fc8}.st3{fill:#29ff92}.st4{fill:#1fbe6e}.st5{fill:#23d97c}.st6{fill:#005291}.st7,.st8{enable-background:new}.st8{clip-path:url(#SVGID_2_)}.st9{fill:#fff}.st10{fill:#d8d8d8}.st11{fill:#fbfbfb}.st12,.st13,.st14,.st15{fill:none;stroke-width:1.5;stroke-miterlimit:10}.st12{stroke-linecap:round;stroke-linejoin:round;stroke:#1fbe6e}.st13,.st14{stroke:#29ff92}.st14,.st15{stroke-linecap:round}.st15{stroke:#005290;stroke-linejoin:round}.st16{fill:#27f18a}.st17,.st18,.st19,.st20,.st21{fill:none;stroke-width:1.5;stroke-linecap:round}.st17{stroke-miterlimit:10;stroke:#fff}.st18,.st19,.st20,.st21{stroke:#005290;stroke-linejoin:round}.st19{stroke-dasharray:7.2387,7.2387}.st20{stroke-dasharray:7.2892,7.2892}.st21{stroke-dasharray:7.2973,7.2973}.st22{fill:none;stroke-dasharray:6.6969,6.6969}.st22,.st23,.st24,.st25{stroke:#005290;stroke-width:1.5;stroke-linecap:round;stroke-linejoin:round}.st23{stroke-dasharray:6.9158,6.9158;fill:none}.st24,.st25{fill:#141414;stroke-miterlimit:10}.st25{fill:none;stroke-dasharray:4}.st26{fill:#005290}.st27,.st28,.st29{stroke-width:1.5;stroke-miterlimit:10}.st27{stroke-linecap:round;stroke-linejoin:round;stroke-dasharray:4,5,0,0;fill:none;stroke:#005290}.st28{fill:#141414;stroke:#29ff92}.st29{fill:none;stroke:#005290;stroke-linecap:round}.st30{clip-path:url(#SVGID_4_)}.st31{fill:none;stroke:#29ff92;stroke-width:1.5;stroke-linecap:round;stroke-linejoin:round;stroke-miterlimit:10}.st32{clip-path:url(#SVGID_6_)}.st33{fill:#005290;stroke:#141414;stroke-width:1.5;stroke-miterlimit:10}.st34{clip-path:url(#SVGID_8_)}.st34,.st35,.st36{fill:#005290}.st35{clip-path:url(#SVGID_10_)}.st36{clip-path:url(#SVGID_12_)}.st37{stroke:#005290;stroke-dasharray:4.1895,4.1895}.st37,.st38,.st39{fill:none;stroke-width:1.5;stroke-linecap:round;stroke-linejoin:round}.st38{stroke-dasharray:3.9796,3.9796;stroke:#005290}.st39{stroke:#27f18a;stroke-miterlimit:10}.st40{opacity:.95;fill:#fff;enable-background:new}.st41,.st42{fill:none;stroke:#005290;stroke-width:1.5;stroke-miterlimit:10}.st41{stroke-linejoin:round;stroke-dasharray:7;stroke-linecap:round}.st42{stroke-linecap:square}</style><g id="Layer_1_1_"><path class="st0" d="M979.7 871c.3-3-1.6-6-5.5-8.3-7.4-4.3-19.3-4.3-26.7 0-3.7 2.1-5.5 4.9-5.5 7.7l-.3 300.7v1.1c0 .2.1.4.1.6s.1.3.1.5c.1.2.2.4.2.6.1.2.1.3.2.5l.3.6c.1.1.2.3.3.4.1.2.3.4.4.6.1.1.2.3.3.4l.6.6.4.4c.2.2.5.4.7.6.1.1.2.2.4.3.4.3.8.6 1.3.8l1.8.9c.2.1.4.2.5.2.5.2 1 .4 1.6.6.2.1.3.1.5.2l2.1.6c.2 0 .3.1.5.1l1.8.3c.1 0 .2 0 .3.1h.3c.6.1 1.1.1 1.7.2h.5c.7 0 1.4.1 2.1.1h.5c.5 0 1.1 0 1.6-.1.2 0 .5 0 .7-.1.5 0 1-.1 1.6-.2.2 0 .4 0 .6-.1.7-.1 1.4-.2 2-.4.1 0 .2-.1.3-.1.6-.1 1.1-.3 1.6-.5.2-.1.4-.1.6-.2.5-.2.9-.3 1.3-.5.2-.1.4-.2.5-.2.6-.3 1.2-.6 1.7-.9 3.6-2.1 5.5-4.9 5.5-7.7l.3-300.7c.3 0 .3.1.2.3z"/><path class="st1" d="M974.2 862.7c7.4 4.3 7.4 11.2.1 15.5-7.3 4.3-19.3 4.3-26.7 0s-7.4-11.2-.1-15.5c7.4-4.3 19.3-4.3 26.7 0z"/><path class="st2" d="M979.8 870.8l-.3 300.7c0 2.8-1.8 5.6-5.5 7.7-4.8 2.8-11.5 3.8-17.7 2.9l.3-300.7c6.2.8 12.9-.1 17.7-2.9 3.7-2.2 5.5-4.9 5.5-7.7"/><path class="st3" d="M961.7 777.5l-116.9 65.2-.3 15.2 115.3 69.3 116.9-65.2.3-15.2z"/><path class="st4" d="M1077 846.8l-.3 15.2-116.9 65.2.3-15.2z"/><path class="st5" d="M960.1 912l-.3 15.2-115.3-69.3.3-15.2z"/><path class="st0" d="M961.7 758.8l-78.1 43.6-.8 40.7 77 46.3 78.1-43.5.9-40.8z"/><path class="st6" d="M1038.8 805.1l-.9 40.8-78.1 43.5v-40.7z"/><path class="st2" d="M959.8 848.7v40.7l-77-46.3.8-40.7z"/><path class="st3" d="M979.7 692.2c.3-3-1.6-6-5.5-8.3-7.4-4.3-19.3-4.3-26.7 0-3.7 2.1-5.5 4.9-5.5 7.7l-.3 122.3v1.1c0 .2.1.4.1.6 0 .2.1.3.1.5.1.2.2.4.2.6.1.2.1.3.2.5l.3.6c.1.1.2.3.3.4.1.2.3.4.4.6.1.1.2.3.3.4l.6.6.4.4c.2.2.5.4.7.6.1.1.2.2.4.3.4.3.8.6 1.3.8l1.8.9c.2.1.4.2.5.2.5.2 1 .4 1.6.6.2.1.3.1.5.2l2.1.6c.2 0 .3.1.5.1l1.8.3c.1 0 .2 0 .3.1h.3c.6.1 1.1.1 1.7.2h.5c.7 0 1.4.1 2.1.1h.5c.5 0 1.1 0 1.6-.1.2 0 .5 0 .7-.1.5 0 1-.1 1.6-.2.2 0 .4 0 .6-.1.7-.1 1.4-.2 2-.4.1 0 .2-.1.3-.1.6-.1 1.1-.3 1.6-.5.2-.1.4-.1.6-.2.5-.2.9-.3 1.3-.5.2-.1.4-.2.5-.2.6-.3 1.2-.6 1.7-.9 3.6-2.1 5.5-4.9 5.5-7.7l.3-122.3c.3-.1.3.1.2.3z"/><path class="st1" d="M974.2 683.8c7.4 4.3 7.4 11.2.1 15.5-7.3 4.3-19.3 4.3-26.7 0s-7.4-11.2-.1-15.5c7.4-4.2 19.3-4.2 26.7 0z"/><path class="st4" d="M979.8 692l-.3 122.3c0 2.8-1.8 5.6-5.5 7.7-4.8 2.8-11.5 3.8-17.7 2.9l.3-122.3c6.2.8 12.9-.1 17.7-2.9 3.7-2.1 5.5-4.9 5.5-7.7"/><circle class="st0" cx="960.8" cy="691.4" r="51.8"/><path class="st2" d="M1011.2 679.6c-5.4 22.9-25.9 39.9-50.4 39.9s-45.1-17-50.4-39.9c-.9 3.8-1.4 7.7-1.4 11.8 0 28.6 23.2 51.8 51.8 51.8s51.8-23.2 51.8-51.8c-.1-4.1-.5-8-1.4-11.8z"/><path class="st3" d="M979.7 536.3c.3-3-1.6-6-5.5-8.3-7.4-4.3-19.3-4.3-26.7 0-3.7 2.1-5.5 4.9-5.5 7.7l-.3 122.3v1.1c0 .2.1.4.1.6 0 .2.1.3.1.5.1.2.2.4.2.6.1.2.1.3.2.5l.3.6c.1.1.2.3.3.4.1.2.3.4.4.6.1.1.2.3.3.4l.6.6.4.4c.2.2.5.4.7.6.1.1.2.2.4.3.4.3.8.6 1.3.8l1.8.9c.2.1.4.2.5.2.5.2 1 .4 1.6.6.2.1.3.1.5.2l2.1.6c.2 0 .3.1.5.1l1.8.3c.1 0 .2 0 .3.1h.3c.6.1 1.1.1 1.7.2h.5c.7 0 1.4.1 2.1.1h.5c.5 0 1.1 0 1.6-.1.2 0 .5 0 .7-.1.5 0 1-.1 1.6-.2.2 0 .4 0 .6-.1.7-.1 1.4-.2 2-.4.1 0 .2-.1.3-.1.6-.1 1.1-.3 1.6-.5.2-.1.4-.1.6-.2.5-.2.9-.3 1.3-.5.2-.1.4-.2.5-.2.6-.3 1.2-.6 1.7-.9 3.6-2.1 5.5-4.9 5.5-7.7l.3-122.3c.3 0 .3.1.2.3z"/><path class="st1" d="M974.2 528c7.4 4.3 7.4 11.2.1 15.5-7.3 4.3-19.3 4.3-26.7 0s-7.4-11.2-.1-15.5c7.4-4.3 19.3-4.3 26.7 0z"/><path class="st4" d="M979.8 536.1l-.3 122.3c0 2.8-1.8 5.6-5.5 7.7-4.8 2.8-11.5 3.8-17.7 2.9l.3-122.3c6.2.8 12.9-.1 17.7-2.9 3.7-2.2 5.5-4.9 5.5-7.7"/><path class="st0" d="M1071.8 435.4c-60.4-36.3-158.9-38-220.1-3.8-30.5 17-46 39.7-46.3 62.7v-.2l-.4 20.4c-.5 23.2 14.4 46.7 44.8 65 60.4 36.3 158.9 38 220.1 3.8 30.4-17 45.9-39.6 46.3-62.5l.4-20.4v.9c.8-23.6-14.1-47.4-44.8-65.9z"/><g class="st7"><defs><path id="SVGID_1_" d="M1116.6 500.4l-.4 20.4c-.5 22.9-15.9 45.5-46.3 62.5-61.2 34.1-159.7 32.4-220.1-3.8-30.4-18.3-45.3-41.8-44.8-65l.4-20.4c-.5 23.2 14.4 46.7 44.8 65 60.4 36.3 158.9 38 220.1 3.8 30.4-17 45.8-39.6 46.3-62.5z"/></defs><clipPath id="SVGID_2_"><use xlink:href="#SVGID_1_" overflow="visible"/></clipPath><g class="st8"><path class="st2" d="M1116.6 500.4l-.4 20.4c-.5 22.9-15.9 45.5-46.3 62.5-61.2 34.1-159.7 32.4-220.1-3.8-30.4-18.3-45.3-41.8-44.8-65l.4-20.4c-.5 23.2 14.4 46.7 44.8 65 60.4 36.3 158.9 38 220.1 3.8 30.4-17 45.8-39.6 46.3-62.5"/></g></g><g class="st7"><path class="st9" d="M1068 474.6h-13.2v-8.3c0-22.8-19.3-41.3-43-41.3v-5.4c0-21-17.7-38-39.5-38s-39.5 17-39.5 38.2h-10.6c-11.1 0-21.3 4.1-28.9 10.7-2 1.8-3.9 3.7-5.5 5.9-1.2 1.6-2.4 3.3-3.4 5-.7 1.2-1.3 2.4-1.8 3.6-.8 1.9-1.5 3.8-2 5.8-.9 3.3-1.4 6.8-1.4 10.3h-18.7c-16.2 0-29.3 12.6-29.3 28.2v20.5c0-15.6 13.1-28.2 29.3-28.2h18.7c0-22.8 19.3-41.3 43-41.3h10.6c0-21.2 17.7-38.2 39.5-38.2s39.5 17 39.5 38v5.4c23.8 0 43 18.5 43 41.3v8.3h13.2c12.3 0 22.3 9.6 22.3 21.4V496c0-11.8-10-21.4-22.3-21.4z"/><path class="st10" d="M1054.8 474.6h13.2v20.5h-13.2zm-194.3-13.4h18.7v20.5h-18.7zm61.7-41.4h10.6v20.5h-10.6z"/><path class="st11" d="M972.3 401.1c21.8 0 39.5 17 39.5 38v5.4c23.8 0 43 18.5 43 41.3v8.3h13.2c12.3 0 22.3 9.6 22.3 21.4 0 11.8-10 21.4-22.3 21.4H860.5c-16.2 0-29.3-12.6-29.3-28.2s13.1-28.2 29.3-28.2h18.7c0-22.8 19.3-41.3 43-41.3h10.6c0-21.1 17.7-38.1 39.5-38.1z"/></g><path class="st3" d="M1186.7 885l-11 11-11-11 11-11 11 11zm-.1 28.9l-11 11-11-11 11-11 11 11zm0 29.1l-11 11-11-11 11-11 11 11zm.1 29.2l-11 11-11-11 11-11 11 11z"/><path class="st12" d="M1018.4 887l67.5 38.8h70.9"/><path class="st13" d="M1787.7 259.4v165.8"/><path class="st14" d="M1787.7 195v24.5"/><path class="st15" d="M1920.8 430.3h-131.4c-22 0-39.8 17.8-39.8 39.8v79m0 0h38.1"/><path class="st14" d="M1759.6 531.3l6.4-6.4 6.4 6.4-6.4 6.4-6.4-6.4z"/><path class="st3" d="M1759.6 512l6.4-6.4 6.4 6.4-6.4 6.4-6.4-6.4zm0-19.4l6.4-6.4 6.4 6.4-6.4 6.4-6.4-6.4z"/><path class="st14" d="M1759.6 473.4l6.4-6.4 6.4 6.4-6.4 6.4-6.4-6.4z"/><circle class="st16" cx="1787.7" cy="231.1" r="6.6"/><circle class="st16" cx="1787.7" cy="247.8" r="6.6"/><path class="st16" d="M1749.6 264.2l-21.1 12.2-21.2-12.2 21.1-12.3 21.2 12.3zm0 81.7l-21.1 12.2-21.2-12.2 21.1-12.3 21.2 12.3z"/><path class="st16" d="M1749.6 332.1l-21.1 12.3-21.2-12.3 21.1-12.2 21.2 12.2z"/><path class="st15" d="M1728.5 295.1v13.3"/><circle class="st17" cx="1728.5" cy="264.2" r="30.9"/><circle class="st17" cx="1728.5" cy="339.3" r="30.9"/><path class="st15" d="M1728.5 191.4v41.8M1268.4 79.3V.8m-121.1 134.1V79.3h242.1v55.6"/><path class="st15" d="M1369 134.9h-201.2c-5 0-9.1-4.1-9.1-9.1s4.1-9.1 9.1-9.1H1369c5 0 9.1 4.1 9.1 9.1s-4.1 9.1-9.1 9.1z"/><path class="st3" d="M1167.8 128.9c-1.7 0-3.1-1.4-3.1-3.1s1.4-3.1 3.1-3.1H1369c1.7 0 3.1 1.4 3.1 3.1s-1.4 3.1-3.1 3.1h-201.2z"/><path class="st15" d="M1162.7 79.3v10.8m16.3-10.8v10.8m16.2-10.8v10.8m16.3-10.8v10.8m16.2-10.8v10.8m16.3-10.8v10.8m16.2-10.8v10.8m16.3-10.8v10.8m16.2-10.8v10.8m16.3-10.8v10.8m16.2-10.8v10.8m16.3-10.8v10.8m16.2-10.8v10.8m16.3-10.8v10.8"/><path class="st14" d="M1152.3 100.8h232.1"/><circle class="st16" cx="1524.6" cy="799.9" r="3.4"/><circle class="st16" cx="1514.6" cy="799.9" r="3.4"/><circle class="st16" cx="1504.7" cy="799.9" r="3.4"/><circle class="st16" cx="1494.8" cy="799.9" r="3.4"/><circle class="st16" cx="1584.5" cy="799.9" r="3.4"/><circle class="st16" cx="1617.6" cy="799.9" r="3.4"/><circle class="st16" cx="1627.6" cy="799.9" r="3.4"/><circle class="st16" cx="1637.6" cy="799.9" r="3.4"/><circle class="st3" cx="1825.4" cy="810.8" r="3.4"/><circle class="st16" cx="1574.5" cy="799.9" r="3.4"/><circle class="st3" cx="1564.6" cy="799.9" r="3.4"/><circle class="st3" cx="1554.7" cy="799.9" r="3.4"/><circle class="st16" cx="1554.7" cy="789.8" r="3.4"/><circle class="st16" cx="1544.7" cy="789.8" r="3.4"/><circle class="st16" cx="1534.8" cy="789.8" r="3.4"/><circle class="st16" cx="1524.9" cy="789.8" r="3.4"/><path class="st13" d="M1658.3 810.8l.2 50.6h52.1"/><path class="st15" d="M1710.4 810.8v-71c0-19.3 15.6-34.9 34.9-34.9m-34.9 35.9h17.5m-17.5 20.1h17.5m-17.5 20.1h17.5m-17.5 20.1h17.5m-17.5 20.1h17.5m-17.5 20.1h17.5m-17.5 20.1h17.5m-17.5 20.1h17.5m-17.5 20h17.5m-17.5 20.1h17.5m-17.5 29.3V810.8H1485v-48.7h23.1l-23.1 26.2"/><path class="st3" d="M1664.2 846.1h11.2v11.5h-11.2v-11.5zm14.6 5h11.2v6.5h-11.2v-6.5zm14.7-3.2h11.2v9.6h-11.2v-9.6z"/><circle class="st16" cx="1265.3" cy="787" r="3.4"/><circle class="st16" cx="1254.5" cy="787" r="3.4"/><circle class="st16" cx="1243.6" cy="787" r="3.4"/><circle class="st16" cx="1227.2" cy="787" r="3.4"/><circle class="st16" cx="1227.7" cy="835.8" r="3.4"/><circle class="st16" cx="1216.8" cy="835.8" r="3.4"/><circle class="st16" cx="1250" cy="849.1" r="3.4"/><circle class="st16" cx="1261.4" cy="849.1" r="3.4"/><circle class="st16" cx="1239.1" cy="849.1" r="3.4"/><circle class="st16" cx="1227.7" cy="849.1" r="3.4"/><path class="st15" d="M1237.6 835.8H1366l249.6 145M1281.1 787h128.3l321.9 187.1"/><path class="st15" d="M1273 849.1h84.9l249.6 145.1m82.6-344.1h70.7v32.7h-70.7v-32.7z"/><path class="st3" d="M1702 659.6h6v13.8h-6v-13.8zm13.6 0h6v13.8h-6v-13.8zm13.6 0h6v13.8h-6v-13.8zm13.6 0h6v13.8h-6v-13.8z"/><path class="st18" d="M1622.7 682.9h3.5"/><path class="st19" d="M1633.4 682.9h25.4"/><path class="st18" d="M1662.4 682.9h3.5v-3.5"/><path class="st20" d="M1665.9 672.1v-25.5"/><path class="st18" d="M1665.9 642.9v-3.5h3.5"/><path class="st21" d="M1676.7 639.4h98.5"/><path class="st18" d="M1778.9 639.4h3.5v3.5"/><path class="st22" d="M1782.4 649.6v10.1"/><path class="st18" d="M1782.4 663v3.5h3.5"/><path class="st23" d="M1792.8 666.5h121"/><path class="st18" d="M1917.3 666.5h3.5"/><circle class="st24" cx="1622.7" cy="682.9" r="16.3"/><path class="st25" d="M1710.4 810.8h110.4"/><path class="st15" d="M409.1 160.1l43.7-25.2m0 13.2l-32.2 18.6m32.2-115.6v114.5c0 22.7 18.4 41.1 41.1 41.1"/><circle class="st26" cx="413.9" cy="171.4" r="3.4"/><circle class="st3" cx="387.3" cy="188.5" r="3.4"/><circle class="st26" cx="405.2" cy="177.1" r="3.4"/><circle class="st26" cx="396.5" cy="182.8" r="3.4"/><circle class="st3" cx="401.5" cy="164.7" r="3.4"/><circle class="st3" cx="485.7" cy="194.8" r="3.4"/><circle class="st3" cx="475.6" cy="190.1" r="3.4"/><circle class="st26" cx="392.7" cy="169.7" r="3.4"/><circle class="st26" cx="383.8" cy="174.8" r="3.4"/><path class="st15" d="M433.4 51.1h39"/><path class="st27" d="M797.7 126.7V95.8c0-19.1-15.5-34.6-34.6-34.6"/><path class="st15" d="M515.2 169.1H763V.8m17.3 130.9H813v37.2h-32.7v-37.2z"/><path class="st28" d="M560.5 134.3l17.2-33.5 18.8 33.5 17.2-33.5 18.8 33.5 17.1-33.5 18.8 33.5 17.2-33.5 18.8 33.5 17.2-33.5"/><circle class="st24" cx="577.7" cy="100.8" r="11.3"/><circle class="st24" cx="613.7" cy="100.8" r="11.3"/><circle class="st28" cx="649.6" cy="100.8" r="11.3"/><circle class="st24" cx="685.6" cy="100.8" r="11.3"/><circle class="st24" cx="721.6" cy="100.8" r="11.3"/><circle class="st28" cx="560.5" cy="134.3" r="11.3"/><circle class="st24" cx="596.5" cy="134.3" r="11.3"/><circle class="st24" cx="632.5" cy="134.3" r="11.3"/><circle class="st28" cx="668.4" cy="134.3" r="11.3"/><circle class="st28" cx="704.4" cy="134.3" r="11.3"/><circle class="st26" cx="577.5" cy="100.7" r="5.1"/><circle class="st26" cx="596.5" cy="134.3" r="5.1"/><circle class="st26" cx="649.6" cy="100.8" r="5.1"/><circle class="st26" cx="668.4" cy="134.3" r="5.1"/><circle class="st26" cx="721.6" cy="100.8" r="5.1"/><path class="st3" d="M786.7 148.8h5v14.8h-5v-14.8zm7.4-3.2h5v18h-5v-18zm7.5-6.6h5v24.6h-5V139z"/><path class="st15" d="M515.2 153.1v31.4m430-58.6h-49.5c0 35.9 29.1 65.1 65.1 65.1 35.9 0 65.1-29.1 65.1-65.1h-49.3"/><ellipse transform="rotate(-45.001 960.827 125.91)" class="st14" cx="960.8" cy="125.9" rx="11.1" ry="11.1"/><path class="st14" d="M960.8 136.9V153m-8.4-19.8L938 147.6m31.2-14.4l14.5 14.4"/><circle class="st26" cx="1036.7" cy="140.4" r="3.7"/><ellipse transform="rotate(-75.434 1030.265 158.966)" class="st26" cx="1030.3" cy="159" rx="3.7" ry="3.7"/><ellipse transform="rotate(-60.87 1019.541 175.513)" class="st3" cx="1019.5" cy="175.5" rx="3.7" ry="3.7"/><ellipse transform="rotate(-60.87 960.854 125.947)" class="st3" cx="960.8" cy="125.9" rx="3.7" ry="3.7"/><path class="st29" d="M386.5 859.6L523.9 942 867 741.4"/><path class="st15" d="M309.9 772.9l-112.5 65.4 113.2 65.4 112.5-65.4-113.2-65.4zm-19 11l113.3 65.4M272 794.9l113.3 65.4m-132.2-54.4l113.3 65.4m-132.2-54.4l113.2 65.4m-132.2-54.4l113.3 65.4m0-109.4L215.8 849m131.6-54.1l-112.6 65m131.6-54l-112.6 65m131.5-54l-112.5 64.9m131.4-53.9l-112.4 64.9"/><g class="st7"><defs><path id="SVGID_3_" d="M195.2 838.3l114.7-66.6 115.4 66.6-114.7 66.6z"/></defs><clipPath id="SVGID_4_"><use xlink:href="#SVGID_3_" overflow="visible"/></clipPath><g class="st30"><path class="st26" d="M234.4 859.7l-18-10.4-.5.3c-.3.2-.7.2-1 0l18.9 10.9c-.2-.2-.2-.4.1-.6l.5-.2m19 11l-18-10.4-.5.3c-.3.2-.7.2-1 0l18.9 10.9c-.2-.2-.2-.4.1-.6l.5-.2m19.1 11l-18-10.4-.5.3c-.3.2-.7.2-1 0l18.9 10.9c-.2-.2-.2-.4.1-.6l.5-.2m19.1 11l-18-10.4-.5.3c-.3.2-.7.2-1 0l18.9 10.9c-.2-.2-.2-.4.1-.6l.5-.2m38.5.9c-.3.2-.8.2-1.1 0l-.5-.3-17.9 10.4-18-10.4-.5.3c-.3.2-.7.2-1 0l19 11c.1.1.3.1.5.1s.4 0 .5-.1l19-11m18.9-11c-.3.2-.8.2-1.1 0l-.5-.3-17.9 10.4.5.3c.3.2.3.4 0 .6l19-11m18.9-11c-.3.2-.8.2-1.1 0l-.5-.3-17.9 10.4.5.3c.3.2.3.4 0 .6l19-11m19-11c-.3.2-.8.2-1.1 0l-.5-.3-17.9 10.4.5.3c.3.2.3.4 0 .6l19-11m18.9-11c-.3.2-.8.2-1.1 0l-.5-.3-17.9 10.4.5.3c.3.2.3.4 0 .6l19-11M329.5 783l-19.1-11c-.1-.1-.3-.1-.5-.1s-.4 0-.5.1l-113.6 66c-.1.1-.2.2-.2.3s.1.2.2.3l19 11c-.2-.2-.2-.4.1-.6l.5-.3-18-10.4 17.9-10.4-.5-.3c-.3-.2-.3-.4 0-.6.3-.2.8-.2 1.1 0l.5.3 17.9-10.4-.5-.3c-.3-.2-.3-.4 0-.6.3-.2.8-.2 1.1 0l.5.3 17.9-10.4-.5-.3c-.3-.2-.3-.4 0-.6.3-.2.8-.2 1.1 0l.5.3 17.9-10.4-.5-.3c-.3-.2-.3-.4 0-.6.3-.2.8-.2 1.1 0l.5.3 17.9-10.4-.5-.3c-.3-.2-.3-.4 0-.6.3-.2.8-.2 1.1 0l.5.3 17.9-10.4 18 10.4.5-.3c-.1-.2.4-.2.7 0m19 11l-19.1-11c.3.2.3.4 0 .6l-.5.3 18 10.4.5-.3c.3-.2.8-.2 1.1 0m19.1 11l-19.1-11c.3.2.3.4 0 .6l-.5.3 18 10.4.5-.3c.3-.2.8-.2 1.1 0m19 11l-19.1-11c.3.2.3.4 0 .6l-.5.3 18 10.4.5-.3c.4-.2.8-.2 1.1 0m19.1 11l-19.1-11c.3.2.3.4 0 .6l-.5.3 18 10.4.5-.3c.3-.2.8-.2 1.1 0m18 11l.5.3-.5-.3m1 0l-19.1-11c.3.2.3.4 0 .6l-.5.3 18 10.4-17.9 10.4.5.3c.3.2.3.4 0 .6l18.9-11c.1-.1.2-.2.2-.3s.1-.2-.1-.3"/><path class="st26" d="M234.3 838.9l-1.1-.6-17.9 10.4-.5.3c-.3.2-.3.4-.1.6h.2c.3.1.7.1 1 0l.5-.3 17.9-10.4m18.9-11l-1.1-.6-17.9 10.4 1.1.6 17.9-10.4m18.9-11l-1.1-.6-17.9 10.4 1.1.6 17.9-10.4m19-11l-1.1-.6-17.9 10.4 1.1.6 17.9-10.4m18.9-11l-1.1-.6-17.9 10.4 1.1.6 17.9-10.4m19.5-11.9c-.3-.2-.8-.2-1.1 0l-.5.3-17.9 10.4 1.1.6 17.9-10.4.5-.3c.2-.2.3-.5 0-.6m-76.2 66.9l-1.1-.6-17.9 10.4-.5.3c-.3.2-.3.4-.1.6h.2c.3.1.7.1 1 0l.5-.3 17.9-10.4m19-11l-1.1-.6-17.9 10.4 1.1.6 17.9-10.4m18.9-11l-1.1-.6-17.9 10.4 1.1.6 17.9-10.4m18.9-11l-1.1-.6-17.9 10.4 1.1.6 17.9-10.4m19-11l-1.1-.6-17.9 10.4 1.1.6 17.9-10.4m19.4-11.9c-.3-.2-.8-.2-1.1 0l-.5.3-17.9 10.4 1.1.6 17.9-10.4.5-.3c.3-.2.3-.5 0-.6m-76.1 66.9l-1.1-.6-17.9 10.4-.5.3c-.3.2-.3.4-.1.6h.2c.3.1.7.1 1 0l.5-.3 17.9-10.4m18.9-11l-1.1-.6-17.9 10.4 1.1.6 17.9-10.4m19-11l-1.1-.6-17.9 10.4 1.1.6 17.9-10.4m18.9-11l-1.1-.6-17.9 10.4 1.1.6 17.9-10.4m18.9-11l-1.1-.6-17.9 10.4 1.1.6 17.9-10.4m19.5-11.9c-.3-.2-.8-.2-1.1 0l-.5.3-17.9 10.4 1.1.6 17.9-10.4.5-.3c.3-.2.3-.5 0-.6m-76.2 66.9l-1.1-.6-17.9 10.4-.4.3c-.3.2-.3.4-.1.6h.2c.3.1.7.1 1 0l.5-.3 17.8-10.4m19-11l-1.1-.6-17.9 10.4 1.1.6 17.9-10.4m18.9-11l-1.1-.6-17.9 10.4 1.1.6 17.9-10.4m18.9-11l-1.1-.6-17.9 10.4 1.1.6 17.9-10.4m19-11l-1.1-.6-17.9 10.4 1.1.6 17.9-10.4m19.4-11.9c-.3-.2-.8-.2-1.1 0l-.5.3-17.9 10.4 1.1.6 17.9-10.4.5-.3c.3-.2.3-.5 0-.6m-76.1 66.9l-1.1-.6-17.9 10.4-.5.3c-.3.2-.3.4-.1.6h.2c.3.1.7.1 1 0l.5-.3 17.9-10.4m18.9-11l-1.1-.6-17.9 10.4 1.1.6 17.9-10.4m19-11l-1.1-.6-17.9 10.4 1.1.6 17.9-10.4m18.9-11l-1.1-.6-17.9 10.4 1.1.6 17.9-10.4m18.9-11l-1.1-.6-17.9 10.4 1.1.6 17.9-10.4m19.5-11.9c-.3-.2-.8-.2-1.1 0l-.5.3-17.9 10.4 1.1.6 17.9-10.4.5-.3c.3-.2.3-.4 0-.6"/><path class="st26" d="M405.8 849l-.5-.3-18-10.4-1.1-.6-18-10.4-1.1-.6-18-10.4-1.1-.6-18-10.4-1.1-.6-18-10.4-1.1-.6-18-10.4-.5-.3c-.3-.2-.8-.2-1.1 0-.3.2-.3.4 0 .6l.5.3 18 10.4 1.1.6 18 10.4 1.1.6 18 10.4 1.1.6 18 10.4 1.1.6 18 10.4 1.1.6 18 10.4.5.3c.3.2.8.2 1.1 0 .3-.2.3-.4 0-.6m-18.9 11l-.5-.3-18-10.4-1.1-.6-18-10.4-1.1-.6-18-10.4-1.1-.6-18-10.4-1.1-.6-18-10.4-1.1-.6-18-10.4-.5-.3c-.3-.2-.8-.2-1.1 0-.3.2-.3.4 0 .6l.5.3 18 10.4 1.1.6 18 10.4 1.1.6 18 10.4 1.1.6 18 10.4 1.1.6 18 10.4 1.1.6 18 10.4.5.3c.3.2.8.2 1.1 0 .3-.2.3-.4 0-.6m-19 11l-.5-.3-18-10.4-1.1-.6-18-10.4-1.1-.6-18-10.4-1.1-.6-18-10.4-1.1-.6-18-10.4-1.1-.6-18-10.4-.5-.3c-.3-.2-.8-.2-1.1 0s-.3.4 0 .6l.5.3 18 10.4 1.1.6 18 10.4 1.1.6 18 10.4 1.1.6 18 10.4 1.1.6 18 10.4 1.1.6 18 10.4.5.3c.3.2.8.2 1.1 0 .3-.2.3-.4 0-.6M349 882l-.5-.3-18-10.4-1.1-.6-18-10.4-1.1-.6-18-10.4-1.1-.6-18-10.4-1.1-.6-18-10.4-1.1-.6-18-10.4-.5-.3c-.3-.2-.8-.2-1.1 0s-.3.4 0 .6l.5.3 18 10.4 1.1.6 18 10.4 1.1.6 18 10.4 1.1.6 18 10.4 1.1.6 18 10.4 1.1.6 18 10.4.5.3c.3.2.8.2 1.1 0 .3-.2.3-.4 0-.6m-18.9 11l-.5-.3-18-10.4-1.1-.6-18-10.4-1.1-.6-18-10.4-1.1-.6-18-10.4-1.1-.6-18-10.4-1.1-.6-18-10.4-.5-.3c-.3-.2-.8-.2-1.1 0s-.3.4 0 .6l.5.3 18 10.4 1.1.6 18 10.4 1.1.6 18 10.4 1.1.6 18 10.4 1.1.6 18 10.4 1.1.6 18 10.4.5.3c.3.2.8.2 1.1 0 .3-.2.3-.4 0-.6"/></g></g><path class="st15" d="M423.7 838.3h71.9V802"/><g class="st7"><path class="st9" d="M318.6 784l-.1 40.8c0 1.2-.8 2.3-2.3 3.2-3.1 1.8-8.1 1.8-11.3 0-1.6-.9-2.4-2.1-2.3-3.3l.1-40.8c0 1.2.8 2.4 2.3 3.3 3.1 1.8 8.2 1.8 11.3 0 1.5-.8 2.3-2 2.3-3.2z"/><path class="st9" d="M316.2 780.7c3.1 1.8 3.1 4.7 0 6.5s-8.1 1.8-11.3 0c-3.1-1.8-3.1-4.7 0-6.5 3.2-1.7 8.2-1.7 11.3 0z"/></g><g class="st7"><path class="st9" d="M261.6 744.7l-.3 90.5c0 1.2-.8 2.3-2.3 3.2-3.1 1.8-8.1 1.8-11.3 0-1.6-.9-2.4-2.1-2.3-3.3l.3-90.5c0 1.2.8 2.4 2.3 3.3 3.1 1.8 8.2 1.8 11.3 0 1.6-.9 2.3-2 2.3-3.2z"/><path class="st9" d="M259.3 741.4c3.1 1.8 3.1 4.7 0 6.5s-8.1 1.8-11.3 0c-3.1-1.8-3.1-4.7 0-6.5s8.2-1.8 11.3 0z"/></g><g class="st7"><path class="st9" d="M356.1 828.1l-.1 40.8c0 1.2-.8 2.3-2.3 3.2-3.1 1.8-8.1 1.8-11.3 0-1.6-.9-2.4-2.1-2.3-3.3l.1-40.8c0 1.2.8 2.4 2.3 3.3 3.1 1.8 8.2 1.8 11.3 0 1.5-.9 2.3-2 2.3-3.2z"/><path class="st9" d="M353.8 824.8c3.1 1.8 3.1 4.7 0 6.5s-8.1 1.8-11.3 0c-3.1-1.8-3.1-4.7 0-6.5s8.1-1.8 11.3 0z"/></g><g class="st7"><path class="st9" d="M413.9 815.9l-.1 20.4c0 1.2-.8 2.3-2.3 3.2-3.1 1.8-8.1 1.8-11.3 0-1.6-.9-2.4-2.1-2.3-3.3l.1-20.4c0 1.2.8 2.4 2.3 3.3 3.1 1.8 8.1 1.8 11.3 0 1.6-.9 2.3-2 2.3-3.2z"/><path class="st9" d="M411.6 812.6c3.1 1.8 3.1 4.7 0 6.5s-8.1 1.8-11.3 0c-3.1-1.8-3.1-4.7 0-6.5s8.2-1.8 11.3 0z"/></g><circle class="st31" cx="495.6" cy="767.2" r="20.9"/><path class="st3" d="M495.6 759.1l8.1 8.1-8.1 8.1-8.1-8.1 8.1-8.1z"/><path class="st31" d="M460.6 767.2c0 19.3 15.7 35 35 35s35-15.7 35-35"/><g class="st7"><defs><path id="SVGID_5_" d="M321.2 909.8l33.9-19.7 125.7 72.6-33.9 19.7z"/></defs><clipPath id="SVGID_6_"><use xlink:href="#SVGID_5_" overflow="visible"/></clipPath><g class="st32"><path class="st9" d="M449.4 977.9c-1.4-.8-3.8-.8-5.2 0-1.4.8-1.4 2.2 0 3s3.8.8 5.2 0c1.5-.9 1.5-2.2 0-3m0-9.1c-1.4-.8-3.8-.8-5.2 0-1.4.8-1.4 2.2 0 3s3.8.8 5.2 0c1.4-.9 1.4-2.2 0-3m-8 4.4c-1.4-.8-3.8-.8-5.2 0-1.4.8-1.4 2.2 0 3s3.8.8 5.2 0c1.5-.8 1.4-2.2 0-3"/><path class="st3" d="M441.4 964.1c-1.4-.8-3.8-.8-5.2 0-1.4.8-1.4 2.2 0 3s3.8.8 5.2 0c1.4-.8 1.4-2.1 0-3"/><path class="st9" d="M433.4 968.6c-1.4-.8-3.8-.8-5.2 0-1.4.8-1.4 2.2 0 3s3.8.8 5.2 0c1.4-.8 1.4-2.2 0-3"/><path class="st3" d="M433.3 959.5c-1.4-.8-3.8-.8-5.2 0-1.4.8-1.4 2.2 0 3s3.8.8 5.2 0c1.5-.8 1.5-2.2 0-3"/><path class="st9" d="M425.3 954.9c-1.4-.8-3.8-.8-5.2 0-1.4.8-1.4 2.2 0 3s3.8.8 5.2 0c1.4-.9 1.4-2.2 0-3m-8 4.4c-1.4-.8-3.8-.8-5.2 0-1.4.8-1.4 2.2 0 3s3.8.8 5.2 0c1.5-.8 1.4-2.2 0-3"/><path class="st26" d="M417.3 950.2c-1.4-.8-3.8-.8-5.2 0-1.4.8-1.4 2.2 0 3s3.8.8 5.2 0 1.4-2.2 0-3"/><path class="st9" d="M409.3 954.7c-1.4-.8-3.8-.8-5.2 0-1.4.8-1.4 2.2 0 3s3.8.8 5.2 0c1.4-.9 1.4-2.2 0-3"/><path class="st3" d="M409.2 945.6c-1.4-.8-3.8-.8-5.2 0-1.4.8-1.4 2.2 0 3s3.8.8 5.2 0c1.5-.8 1.5-2.2 0-3"/><path class="st26" d="M401.2 950c-1.4-.8-3.8-.8-5.2 0-1.4.8-1.4 2.2 0 3s3.8.8 5.2 0c1.5-.8 1.5-2.1 0-3m0-9.1c-1.4-.8-3.8-.8-5.2 0-1.4.8-1.4 2.2 0 3s3.8.8 5.2 0c1.4-.8 1.4-2.1 0-3"/><path class="st3" d="M393.2 945.4c-1.4-.8-3.8-.8-5.2 0-1.4.8-1.4 2.2 0 3s3.8.8 5.2 0c1.5-.8 1.5-2.2 0-3"/><path class="st26" d="M393.2 936.3c-1.4-.8-3.8-.8-5.2 0-1.4.8-1.4 2.2 0 3s3.8.8 5.2 0c1.4-.8 1.4-2.2 0-3m-8 4.5c-1.4-.8-3.8-.8-5.2 0s-1.4 2.2 0 3 3.8.8 5.2 0c1.4-.9 1.4-2.2 0-3m-.1-9.1c-1.4-.8-3.8-.8-5.2 0-1.4.8-1.4 2.2 0 3s3.8.8 5.2 0c1.5-.9 1.5-2.2 0-3m-7.9 4.4c-1.4-.8-3.8-.8-5.2 0-1.4.8-1.4 2.2 0 3s3.8.8 5.2 0c1.4-.8 1.4-2.2 0-3m-.1-9.1c-1.4-.8-3.8-.8-5.2 0-1.4.8-1.4 2.2 0 3s3.8.8 5.2 0c1.5-.8 1.4-2.1 0-3"/><path class="st3" d="M369.1 931.5c-1.4-.8-3.8-.8-5.2 0-1.4.8-1.4 2.2 0 3s3.8.8 5.2 0c1.5-.8 1.5-2.2 0-3"/><path class="st26" d="M369.1 922.4c-1.4-.8-3.8-.8-5.2 0-1.4.8-1.4 2.2 0 3s3.8.8 5.2 0c1.4-.8 1.4-2.2 0-3m-8.1-4.6c-1.4-.8-3.8-.8-5.2 0-1.4.8-1.4 2.2 0 3s3.8.8 5.2 0c1.5-.9 1.5-2.2 0-3m-7.9 4.4c-1.4-.8-3.8-.8-5.2 0-1.4.8-1.4 2.2 0 3s3.8.8 5.2 0c1.4-.8 1.4-2.2 0-3m-.1-9.1c-1.4-.8-3.8-.8-5.2 0-1.4.8-1.4 2.2 0 3s3.8.8 5.2 0c1.5-.8 1.4-2.1 0-3m-8 4.5c-1.4-.8-3.8-.8-5.2 0-1.4.8-1.4 2.2 0 3s3.8.8 5.2 0c1.5-.9 1.5-2.2 0-3m0-9.1c-1.4-.8-3.8-.8-5.2 0-1.4.8-1.4 2.2 0 3s3.8.8 5.2 0c1.4-.8 1.4-2.2 0-3m-8 4.4c-1.4-.8-3.8-.8-5.2 0-1.4.8-1.4 2.2 0 3s3.8.8 5.2 0c1.4-.8 1.4-2.1 0-3"/><path class="st3" d="M336.9 903.9c-1.4-.8-3.8-.8-5.2 0-1.4.8-1.4 2.2 0 3s3.8.8 5.2 0c1.5-.9 1.5-2.2 0-3m-7.9 4.4c-1.4-.8-3.8-.8-5.2 0-1.4.8-1.4 2.2 0 3s3.8.8 5.2 0c1.4-.8 1.4-2.2 0-3m133.5 52.9c-1.4-.8-3.8-.8-5.2 0-1.4.8-1.4 2.2 0 3s3.8.8 5.2 0c1.5-.8 1.5-2.2 0-3"/><path class="st9" d="M462.5 952.1c-1.4-.8-3.8-.8-5.2 0-1.4.8-1.4 2.2 0 3s3.8.8 5.2 0c1.4-.8 1.4-2.2 0-3m-8 4.4c-1.4-.8-3.8-.8-5.2 0-1.4.8-1.4 2.2 0 3s3.8.8 5.2 0c1.5-.8 1.4-2.1 0-3"/><path class="st26" d="M454.5 947.5c-1.4-.8-3.8-.8-5.2 0s-1.4 2.2 0 3 3.8.8 5.2 0c1.4-.9 1.4-2.2 0-3"/><path class="st9" d="M446.5 951.9c-1.4-.8-3.8-.8-5.2 0-1.4.8-1.4 2.2 0 3s3.8.8 5.2 0c1.4-.8 1.4-2.2 0-3"/><path class="st26" d="M446.4 942.8c-1.4-.8-3.8-.8-5.2 0-1.4.8-1.4 2.2 0 3s3.8.8 5.2 0c1.5-.8 1.5-2.1 0-3m-8 4.5c-1.4-.8-3.8-.8-5.2 0-1.4.8-1.4 2.2 0 3s3.8.8 5.2 0c1.5-.9 1.5-2.2 0-3m0-9.1c-1.4-.8-3.8-.8-5.2 0-1.4.8-1.4 2.2 0 3s3.8.8 5.2 0c1.4-.8 1.4-2.2 0-3m-8 4.4c-1.4-.8-3.8-.8-5.2 0-1.4.8-1.4 2.2 0 3s3.8.8 5.2 0c1.5-.8 1.5-2.1 0-3m0-9c-1.4-.8-3.8-.8-5.2 0s-1.4 2.2 0 3 3.8.8 5.2 0c1.4-.9 1.4-2.2 0-3m-8 4.4c-1.4-.8-3.8-.8-5.2 0-1.4.8-1.4 2.2 0 3s3.8.8 5.2 0c1.4-.8 1.4-2.2 0-3m-.1-9.1c-1.4-.8-3.8-.8-5.2 0-1.4.8-1.4 2.2 0 3s3.8.8 5.2 0c1.5-.8 1.5-2.2 0-3"/><path class="st3" d="M414.4 933.4c-1.4-.8-3.8-.8-5.2 0-1.4.8-1.4 2.2 0 3s3.8.8 5.2 0c1.4-.9 1.4-2.2 0-3"/><path class="st26" d="M414.3 924.3c-1.4-.8-3.8-.8-5.2 0-1.4.8-1.4 2.2 0 3s3.8.8 5.2 0 1.4-2.2 0-3"/><path class="st3" d="M406.3 928.7c-1.4-.8-3.8-.8-5.2 0-1.4.8-1.4 2.2 0 3s3.8.8 5.2 0c1.5-.8 1.5-2.1 0-3"/><path class="st26" d="M406.3 919.6c-1.4-.8-3.8-.8-5.2 0-1.4.8-1.4 2.2 0 3s3.8.8 5.2 0 1.4-2.1 0-3"/><path class="st3" d="M398.2 915c-1.4-.8-3.8-.8-5.2 0-1.4.8-1.4 2.2 0 3s3.8.8 5.2 0c1.5-.8 1.5-2.2 0-3m-8-4.6c-1.4-.8-3.8-.8-5.2 0-1.4.8-1.4 2.2 0 3s3.8.8 5.2 0c1.5-.9 1.4-2.2 0-3"/><path class="st26" d="M382.2 914.8c-1.4-.8-3.8-.8-5.2 0-1.4.8-1.4 2.2 0 3s3.8.8 5.2 0c1.5-.8 1.5-2.2 0-3"/><path class="st3" d="M382.2 905.7c-1.4-.8-3.8-.8-5.2 0-1.4.8-1.4 2.2 0 3s3.8.8 5.2 0c1.4-.8 1.4-2.1 0-3"/><path class="st26" d="M374.2 910.2c-1.4-.8-3.8-.8-5.2 0-1.4.8-1.4 2.2 0 3s3.8.8 5.2 0c1.4-.8 1.4-2.2 0-3m-.1-9.1c-1.4-.8-3.8-.8-5.2 0-1.4.8-1.4 2.2 0 3s3.8.8 5.2 0c1.5-.8 1.5-2.2 0-3"/><path class="st3" d="M366.2 905.5c-1.4-.8-3.8-.8-5.2 0-1.4.8-1.4 2.2 0 3s3.8.8 5.2 0c1.4-.8 1.4-2.1 0-3"/><path class="st26" d="M366.1 896.5c-1.4-.8-3.8-.8-5.2 0-1.4.8-1.4 2.2 0 3s3.8.8 5.2 0 1.5-2.2 0-3"/><path class="st3" d="M358.1 900.9c-1.4-.8-3.8-.8-5.2 0-1.4.8-1.4 2.2 0 3s3.8.8 5.2 0c1.5-.8 1.5-2.2 0-3"/><path class="st26" d="M350.1 896.3c-1.4-.8-3.8-.8-5.2 0-1.4.8-1.4 2.2 0 3s3.8.8 5.2 0c1.4-.9 1.4-2.2 0-3"/></g></g><circle class="st26" cx="166.7" cy="634.7" r="2.4"/><circle class="st3" cx="158.8" cy="634.7" r="2.4"/><circle class="st3" cx="150.9" cy="634.7" r="2.4"/><circle class="st3" cx="143" cy="634.7" r="2.4"/><circle class="st3" cx="166.7" cy="652.1" r="2.4"/><circle class="st3" cx="158.8" cy="652.1" r="2.4"/><circle class="st26" cx="150.9" cy="652.1" r="2.4"/><circle class="st3" cx="143" cy="652.1" r="2.4"/><circle class="st26" cx="135.1" cy="652.1" r="2.4"/><circle class="st3" cx="125.2" cy="652.1" r="2.4"/><circle class="st26" cx="166.7" cy="668.8" r="2.4"/><circle class="st3" cx="158.8" cy="668.8" r="2.4"/><circle class="st3" cx="150.9" cy="668.8" r="2.4"/><path class="st31" d="M174.7 700v72.7h-15.9V700h15.9zM.8 686.3h191.9m-17.3 34.5c19.1 0 34.6-15.5 34.6-34.6s-15.5-34.6-34.6-34.6"/><path class="st31" d="M175.4 668.8c9.6 0 17.4 7.8 17.4 17.4 0 9.6-7.8 17.4-17.4 17.4"/><path class="st31" d="M175.4 737.7c28.4 0 51.5-23 51.5-51.5 0-28.4-23-51.5-51.5-51.5"/><path class="st15" d="M183.1 559l23.1-23M.8 559h182.3l22.7 22.7m5.8-34.2h48v23.1h-48v-23.1z"/><path class="st3" d="M219 554.2h6v9.7h-6v-9.7zm13.6 0h6v9.7h-6v-9.7zm13.6 0h6v9.7h-6v-9.7z"/><path class="st26" d="M164.3 705.1h4.8v62.5h-4.8v-62.5z"/><path class="st15" d="M.8 271h67.5c49.1 0 88.8 39.8 88.8 88.8m96.3 90.6L.8 597.2"/><circle class="st3" cx="135.9" cy="411" r="3.4"/><circle class="st26" cx="135.9" cy="401" r="3.4"/><circle class="st26" cx="157.1" cy="379.5" r="3.4"/><circle class="st26" cx="167.7" cy="427.2" r="3.4"/><circle class="st3" cx="167.7" cy="417.2" r="3.4"/><circle class="st26" cx="188.9" cy="413" r="3.4"/><path class="st15" d="M135.9 518.5V422m10.6 90.4V400.2m10.6 106.2V400.2m10.6 100v-62.8m10.6 56.6v-46m10.6 39.9V422"/><circle class="st13" cx="157.1" cy="379.5" r="12.1"/><path class="st3" d="M34.7 520.1h34v7.3h-34v-7.3zm0-220h34v7.3h-34v-7.3z"/><path class="st14" d="M51.7 513.8V312.5"/><path class="st33" d="M45.4 397.5h12.7v7.3H45.4v-7.3z"/><path class="st27" d="M291.4.8V160c0 10.3 8.3 18.6 18.6 18.6s18.6-8.3 18.6-18.6V.8"/><path class="st3" d="M320.9 156.8l-11 11-11-11 11-11 11 11zm0-31l-11 11-11-11 11-11 11 11zm0-30.9l-11 11-11-11 11-11 11 11zm0-31l-11 11-11-11 11-11 11 11zm0-30.9l-11 11-11-11 11-11 11 11z"/><g class="st7"><defs><path id="SVGID_7_" d="M179.3 263.9l88.3-51.4 88.9 51.4-88.3 51.3z"/></defs><clipPath id="SVGID_8_"><use xlink:href="#SVGID_7_" overflow="visible"/></clipPath><path class="st34" d="M312 238.2c-24.5-14.2-64.2-14.2-88.6 0s-24.3 37.1.3 51.3c24.5 14.2 64.2 14.2 88.6 0l-.5-.3-.5-.3c-11.9 6.9-27.5 10.4-43.2 10.4s-31.3-3.5-43.3-10.4-18-16-18-25c-.1-9.1 5.9-18.1 17.8-25 11.9-6.9 27.5-10.4 43.2-10.4 15.6 0 31.3 3.5 43.3 10.4s18 16 18.1 25c0 9.1-5.9 18.1-17.8 25l.5.3.5.3c24.3-14.2 24.2-37.1-.4-51.3"/></g><g class="st7"><defs><path id="SVGID_9_" d="M191.2 304.1l76.4-44.4 76.9 44.4-76.4 44.4z"/></defs><clipPath id="SVGID_10_"><use xlink:href="#SVGID_9_" overflow="visible"/></clipPath><path class="st35" d="M306.1 281.9c-21.2-12.3-55.6-12.3-76.7 0s-21 32.1.2 44.4 55.6 12.3 76.7 0l-.5-.3-.5-.3c-10.3 6-23.7 8.9-37.2 8.9s-27-3-37.3-8.9c-10.3-6-15.5-13.8-15.6-21.6 0-7.8 5.1-15.6 15.3-21.6 10.3-6 23.7-8.9 37.2-8.9 13.5 0 27 3 37.3 8.9 10.3 6 15.5 13.8 15.6 21.6 0 7.8-5.1 15.6-15.3 21.6l.5.3.5.3c21.1-12.3 21-32.2-.2-44.4"/></g><g class="st7"><defs><path id="SVGID_11_" d="M200.3 344.3l67.4-39.2 67.8 39.2-67.4 39.1z"/></defs><clipPath id="SVGID_12_"><use xlink:href="#SVGID_11_" overflow="visible"/></clipPath><path class="st36" d="M301.6 324.7c-18.7-10.8-49-10.8-67.6 0s-18.5 28.3.2 39.2c18.7 10.8 49 10.8 67.6 0l-.5-.3-.5-.3c-9 5.2-20.8 7.9-32.7 7.9-11.8 0-23.7-2.6-32.8-7.9-9.1-5.2-13.6-12.1-13.7-19 0-6.9 4.4-13.7 13.5-19 9-5.2 20.8-7.9 32.7-7.9 11.9 0 23.7 2.6 32.8 7.9 9.1 5.2 13.6 12.1 13.7 19s-4.4 13.7-13.5 19l.5.3.5.3c18.6-10.8 18.5-28.4-.2-39.2"/></g><path class="st15" d="M267.9 282.4V421"/><path class="st3" d="M253.2 262l14.7-14.7 14.7 14.7-14.7 14.7-14.7-14.7zm14.7 164l14.7 14.7-14.7 14.7-14.7-14.7 14.7-14.7z"/><path class="st13" d="M100.8 135.4c19.2 0 34.7-15.5 34.7-34.7m-34.7 55c30.3 0 55-24.6 55-55m-55 74.5c41.1 0 74.4-33.3 74.4-74.4m-74.4 0l151 151"/><path class="st3" d="M248.7 253.4l6.5 1.8-1.8-6.5-4.7 4.7z"/><path class="st15" d="M88.3 88.3L.8.8m110.7 85.9c-3-2.3-6.7-3.7-10.8-3.7-9.8 0-17.7 7.9-17.7 17.7 0 4.9 2 9.3 5.2 12.5"/><path class="st14" d="M100.8 268.3V100.8h177.9"/><path class="st3" d="M1620.5 484.5H1598v-6.9h22.5v6.9zm0 13.7H1598v-6.9h22.5v6.9zm0 13.7H1598V505h22.5v6.9zm0 13.7H1598v-6.9h22.5v6.9zm0 13.7H1598v-6.9h22.5v6.9zm0 13.7H1598v-6.9h22.5v6.9zm0 13.7H1598v-6.9h22.5v6.9zm27-82.2H1625v-6.9h22.5v6.9zm0 13.7H1625v-6.9h22.5v6.9zm0 13.7H1625V505h22.5v6.9zm0 13.7H1625v-6.9h22.5v6.9zm0 13.7H1625v-6.9h22.5v6.9zm0 13.7H1625v-6.9h22.5v6.9zm0 13.7H1625v-6.9h22.5v6.9z"/><path class="st18" d="M1656.1 571.9v2h-2"/><path class="st37" d="M1649.9 573.9h-56.5"/><path class="st18" d="M1591.3 573.9h-2v-2"/><path class="st38" d="M1589.3 567.9v-93.5"/><path class="st18" d="M1589.3 472.4v-2h2"/><path class="st37" d="M1595.5 470.4h56.5"/><path class="st18" d="M1654.1 470.4h2v2"/><path class="st38" d="M1656.1 476.4v93.5"/><path class="st15" d="M1622.8 583.9V1030h37.4v-48.2M354 494l97.7-56.7 78.5 45.9m-187.7 56.6l31.9-18.5M340.3 486l32.7 19.1m30 1.3c-5.6-3.2-14.6-3.2-20.1 0s-5.5 8.4.1 11.7c5.6 3.2 14.6 3.2 20.1 0s5.5-8.4-.1-11.7"/><path class="st26" d="M298.2 591h9v9h-9v-9z"/><path class="st3" d="M309.9 591h9v9h-9v-9z"/><path class="st26" d="M321.7 591h9v9h-9v-9zm11.8 0h9v9h-9v-9z"/><path class="st15" d="M289.2 584.1h62.3V607h-62.3v-22.9zm31.3-23.4v23.4"/><ellipse class="st31" cx="553" cy="495.1" rx="31.1" ry="17.8"/><circle class="st3" cx="553" cy="495.1" r="8.6"/><circle class="st3" cx="553" cy="474.3" r="8.6"/><circle class="st3" cx="553" cy="453.4" r="8.6"/><ellipse class="st31" cx="320.5" cy="477.2" rx="24.2" ry="13.9"/><ellipse class="st31" cx="393.4" cy="511.9" rx="24.2" ry="13.9"/><ellipse class="st31" cx="320.5" cy="546.5" rx="24.2" ry="13.9"/><path class="st15" d="M330.5 471.4c-5.6-3.2-14.6-3.2-20.1 0s-5.5 8.4.1 11.7c5.6 3.2 14.6 3.2 20.1 0s5.5-8.5-.1-11.7m.4 69.4c-5.6-3.2-14.6-3.2-20.1 0s-5.5 8.4.1 11.7c5.6 3.2 14.6 3.2 20.1 0 5.5-3.3 5.5-8.5-.1-11.7M1622.8 190h298m-298 0v-14.2m17.5 14.2v-14.2m17.5 14.2v-14.2m17.6 14.2v-14.2m17.5 14.2v-14.2m17.6 14.2v-14.2M1728 190v-14.2m17.5 14.2v-14.2m17.6 14.2v-14.2m17.5 14.2v-14.2m17.6 14.2v-14.2m17.5 14.2v-14.2m17.5 14.2v-14.2m17.6 14.2v-14.2m17.5 14.2v-14.2m17.6 14.2v-14.2m17.5 14.2v-14.2"/><path class="st39" d="M1622.7 299.1l-52.4 31.4 52.2 31.4 52.4-31.4-52.2-31.4zm-75.4 53.6l-52.4 31.5 52.3 31.4 52.3-31.5-52.2-31.4z"/><path class="st39" d="M1622.7 339.3l-73.2 44 73 43.9 73.2-44-73-43.9z"/><path class="st15" d="M1622.8 240.1v117.6m0 6.7v96m0-234.3v-85.4h82.9V.8"/><circle class="st26" cx="1694.8" cy="128.5" r="4.1"/><circle class="st26" cx="1683" cy="128.5" r="4.1"/><circle class="st26" cx="1671.3" cy="128.5" r="4.1"/><circle class="st26" cx="1659.5" cy="128.5" r="4.1"/><path class="st40" d="M1614.9 231.2h15.8v4.1h-15.8v-4.1z"/><path class="st14" d="M1710.7 40.3h40.9c4.3 0 7.8 3.5 7.8 7.7 0 4.3-3.5 7.7-7.8 7.7h-40.9m18.4.1v45.1"/><path class="st26" d="M1756 110.8h11.1v11.1H1756v-11.1zm14.5 0h11.1v11.1h-11.1v-11.1zm14.6 0h11.1v11.1h-11.1v-11.1zm14.5 0h11.1v11.1h-11.1v-11.1z"/><path class="st14" d="M1820.8 170.8v-70h-110.1m-132.7 0h122.7"/><path class="st27" d="M1655.4 128.5H1472l-27.6-27.6V28.8m-25.8 0h51.5"/><circle class="st16" cx="1578" cy="100.8" r="6.6"/><path class="st15" d="M1456.5 506.5h-29.1m29.1 16.7h-51.2"/><path class="st41" d="M1456.5 539.9h-82.8"/><path class="st15" d="M1456.5 556.6h-29.8m29.8 16.8h-45.7m45.7 16.7h-48m48-98.4v114.7h99.3v-23.3l-21.8 23.3"/><circle class="st13" cx="1349.7" cy="539.9" r="17"/><circle class="st3" cx="1349.7" cy="539.9" r="6.2"/><circle class="st26" cx="1437.4" cy="514.9" r="3.4"/><circle class="st3" cx="1448.3" cy="514.9" r="3.4"/><circle class="st26" cx="1448.3" cy="532" r="3.4"/><circle class="st3" cx="1448.3" cy="549" r="3.4"/><circle class="st26" cx="1448.3" cy="566.1" r="3.4"/><circle class="st3" cx="1437.4" cy="566.1" r="3.4"/><circle class="st3" cx="1448.3" cy="583.1" r="3.4"/><circle class="st26" cx="1421.7" cy="583.1" r="3.4"/><path class="st15" d="M1456.5 437.8l26.9 26.9-26.9 26.9-26.9-26.9 26.9-26.9z"/><path class="st15" d="M1426.1 445.3l19.5 19.5-19.5 19.5-19.5-19.5 19.5-19.5zm58.9-.1l19.5 19.5-19.5 19.5-19.5-19.5 19.5-19.5z"/><path class="st41" d="M1194.1 983.2c0 10.2-8.3 18.4-18.4 18.4-10.2 0-18.4-8.3-18.4-18.4V880.9c0-10.2 8.3-18.4 18.4-18.4 10.2 0 18.4 8.3 18.4 18.4v102.3z"/><path class="st42" d="M980.8 618.2c60.7 5.6 107.1 36.2 107.1 73.1 0 40.9-56.9 74.1-127.2 74.1s-127.2-33.2-127.2-74.1c0-36.9 46.4-67.5 107.1-73.1"/></g></svg>