<svg id="Layer_1" xmlns="http://www.w3.org/2000/svg" viewBox="0 0 429.9 112.3"><style>.st0{fill:#141414;stroke:#fff;stroke-width:1.5;stroke-linecap:round;stroke-miterlimit:10}.st1{fill:#fff}</style><path class="st0" d="M424 56.2l-.1-.1h.1-.1l-36-49.9H42L6 56.1v.1l36 49.9h345.9l36-49.9z"/><path class="st1" d="M115 65v-5c.9.8 1.9 1.3 3 1.7 1.1.4 2.1.6 3.2.6.6 0 1.2-.1 1.7-.2s.9-.3 1.2-.5c.3-.2.6-.4.7-.7.2-.3.2-.6.2-.9 0-.4-.1-.8-.4-1.2s-.6-.7-1-1c-.4-.3-.9-.6-1.5-.8-.6-.3-1.2-.5-1.9-.8-1.8-.7-3.1-1.6-3.9-2.7-.9-1.1-1.3-2.3-1.3-3.8 0-1.2.2-2.2.7-3 .5-.8 1.1-1.5 1.9-2.1.8-.5 1.7-.9 2.8-1.2 1.1-.3 2.2-.4 3.4-.4 1.2 0 2.2.1 3.1.2.9.1 1.7.4 2.5.6v4.7c-.4-.3-.8-.5-1.2-.7-.4-.2-.9-.4-1.4-.5-.5-.1-.9-.2-1.4-.3-.5-.1-.9-.1-1.3-.1-.6 0-1.1.1-1.6.2s-.9.3-1.2.5c-.3.2-.6.4-.8.7-.2.3-.3.6-.3.9 0 .4.1.7.3 1 .2.3.5.6.8.8.4.3.8.5 1.3.8.5.3 1.1.5 1.8.8.9.4 1.7.8 2.4 1.2.7.4 1.3.9 1.8 1.4.5.5.9 1.1 1.2 1.8.3.7.4 1.5.4 2.4 0 1.3-.2 2.3-.7 3.1-.5.8-1.1 1.5-1.9 2.1-.8.5-1.8.9-2.8 1.1-1.1.2-2.2.3-3.4.3-1.2 0-2.4-.1-3.5-.3-1.1 0-2.1-.3-2.9-.7zm30.7.3c-1.1.6-2.7 1-4.8 1-2.5 0-4.4-.7-6-2.2-1.5-1.5-2.3-3.4-2.3-5.8 0-2.7.8-4.9 2.4-6.4 1.6-1.6 3.8-2.4 6.5-2.4 1.9 0 3.3.3 4.1.8v4.2c-1-.8-2.2-1.2-3.5-1.2-1.4 0-2.5.4-3.4 1.2s-1.2 2-1.2 3.4.4 2.5 1.2 3.3c.8.8 1.9 1.2 3.3 1.2 1.2 0 2.4-.4 3.6-1.2v4.1zm13.8-11c-.6-.3-1.3-.5-2.1-.5-1.1 0-1.9.4-2.5 1.2-.6.8-.9 1.9-.9 3.2v7.6h-4.9v-16h4.9v3h.1c.8-2.2 2.2-3.3 4.2-3.3.5 0 .9.1 1.2.2v4.6zm10 11.9c-2.7 0-4.8-.7-6.3-2.2-1.5-1.5-2.3-3.5-2.3-6.1 0-2.6.8-4.7 2.4-6.2 1.6-1.5 3.7-2.2 6.4-2.2s4.7.7 6.3 2.2c1.5 1.5 2.3 3.5 2.3 5.9 0 2.7-.8 4.8-2.3 6.3-1.7 1.5-3.8 2.3-6.5 2.3zm.1-13c-1.2 0-2.1.4-2.7 1.2-.6.8-1 1.9-1 3.4 0 3.1 1.2 4.6 3.7 4.6 2.4 0 3.5-1.6 3.5-4.7.1-3-1.1-4.5-3.5-4.5zm16.9 12.6h-4.9V42.1h4.9v23.7zm9.2 0h-4.9V42.1h4.9v23.7zm22.9-.2c-.7.4-1.8.6-3.3.6-3.5 0-5.2-1.8-5.2-5.4v-7.3h-2.6v-3.6h2.6v-3.5L215 45v4.9h3.6v3.6H215V60c0 1.7.7 2.5 2 2.5.5 0 1.1-.2 1.6-.5v3.6zm10.4.6c-2.7 0-4.8-.7-6.3-2.2-1.5-1.5-2.3-3.5-2.3-6.1 0-2.6.8-4.7 2.4-6.2 1.6-1.5 3.7-2.2 6.4-2.2s4.7.7 6.3 2.2c1.5 1.5 2.3 3.5 2.3 5.9 0 2.7-.8 4.8-2.3 6.3-1.6 1.5-3.8 2.3-6.5 2.3zm.1-13c-1.2 0-2.1.4-2.7 1.2-.6.8-1 1.9-1 3.4 0 3.1 1.2 4.6 3.7 4.6 2.4 0 3.5-1.6 3.5-4.7.1-3-1.1-4.5-3.5-4.5zM249 65.4v-4c.8.5 1.6.9 2.4 1.1.8.2 1.6.4 2.3.4.9 0 1.6-.1 2.1-.4.5-.2.8-.6.8-1.1 0-.3-.1-.6-.3-.8-.2-.2-.5-.4-.9-.5s-.8-.3-1.2-.4-.8-.3-1.2-.4c-.6-.2-1.2-.5-1.7-.8-.5-.3-.9-.6-1.2-1-.3-.4-.6-.8-.8-1.3-.2-.5-.3-1-.3-1.7 0-.9.2-1.7.6-2.3.4-.6.9-1.2 1.6-1.6.7-.4 1.4-.7 2.2-.9.8-.2 1.7-.3 2.6-.3.7 0 1.4.1 2.2.2s1.4.3 2.2.5v3.8c-.6-.4-1.3-.6-2-.8-.7-.2-1.4-.3-2.1-.3-.3 0-.6 0-.9.1-.3.1-.5.1-.8.3s-.4.3-.5.4-.2.4-.2.6c0 .3.1.5.3.8.2.2.4.4.7.5.3.2.6.3 1 .4.4.1.7.2 1.1.4.7.2 1.3.5 1.8.8.5.3 1 .6 1.4 1 .4.4.7.8.9 1.3.2.5.3 1.1.3 1.8 0 .9-.2 1.8-.6 2.4s-1 1.2-1.6 1.6-1.5.7-2.4.9c-.9.2-1.8.3-2.8.3-1.9-.2-3.5-.5-5-1zm24.9.2c-.7.4-1.8.6-3.3.6-3.5 0-5.2-1.8-5.2-5.4v-7.3h-2.6v-3.6h2.6v-3.5l4.9-1.4v4.9h3.6v3.6h-3.6V60c0 1.7.7 2.5 2 2.5.5 0 1.1-.2 1.6-.5v3.6zm16.2.2h-4.7v-2.3h-.1c-1.1 1.8-2.7 2.7-4.8 2.7-1.6 0-2.8-.4-3.7-1.3-.9-.9-1.3-2.1-1.3-3.5 0-3.1 1.8-4.9 5.5-5.4l4.3-.6c0-1.8-.9-2.6-2.8-2.6s-3.7.6-5.4 1.7v-3.7c.7-.4 1.6-.7 2.8-.9 1.2-.3 2.3-.4 3.3-.4 4.6 0 6.8 2.3 6.8 6.8v9.5zm-4.6-6.5v-1.1l-2.9.4c-1.6.2-2.4.9-2.4 2.2 0 .6.2 1 .6 1.4s.9.5 1.6.5c.9 0 1.7-.3 2.3-1s.8-1.4.8-2.4zm19.1-5c-.6-.3-1.3-.5-2.1-.5-1.1 0-1.9.4-2.5 1.2-.6.8-.9 1.9-.9 3.2v7.6h-4.9v-16h4.9v3h.1c.8-2.2 2.2-3.3 4.2-3.3.5 0 .9.1 1.2.2v4.6zm13 11.3c-.7.4-1.8.6-3.3.6-3.5 0-5.2-1.8-5.2-5.4v-7.3h-2.6v-3.6h2.6v-3.5L314 45v4.9h3.6v3.6H314V60c0 1.7.7 2.5 2 2.5.5 0 1.1-.2 1.6-.5v3.6z"/></svg>