<svg id="Layer_1" xmlns="http://www.w3.org/2000/svg" viewBox="0 0 576.5 160.7"><style>.st0,.st1{fill:#00bcf2}.st1,.st2{stroke:#141414;stroke-width:3;stroke-miterlimit:10}.st2{fill:none;stroke:#fff;stroke-linecap:round}.st3{fill:#005291}.st4{fill:none;stroke:#005291;stroke-width:1.5;stroke-miterlimit:10}.st5{fill:#fff}.st6,.st7{fill:none;stroke:#29ff92;stroke-width:1.5;stroke-miterlimit:10}.st7{stroke-linecap:round}.st8{fill:#29ff92}.st9{fill:none;stroke:#005291;stroke-width:1.5;stroke-linecap:round;stroke-miterlimit:10}.st10{enable-background:new}.st11{fill:#006fc8}</style><path class="st0" d="M28.1 17.3h124.7V142H28.1z"/><path class="st1" d="M446.9 17.3h40.5v40.5h-40.5z"/><path class="st2" d="M461.9 34.1l3.1 4.3 7.4-10.3"/><path class="st3" d="M458.8 43.9h16.6V47h-16.6z"/><path class="st1" d="M462.7 33.1h40.5v40.5h-40.5z"/><path class="st2" d="M477.6 49.8l3.1 4.4 7.4-10.3"/><path class="st3" d="M474.6 59.7h16.6v3.1h-16.6z"/><path class="st1" d="M478.4 48.9h40.5v40.5h-40.5z"/><path class="st2" d="M493.4 65.6l3.1 4.3 7.4-10.2"/><path class="st3" d="M490.3 75.5h16.6v3.1h-16.6z"/><path class="st1" d="M494.2 64.7h40.5v40.5h-40.5z"/><path class="st2" d="M509.2 81.4l3.1 4.3 7.4-10.2"/><path class="st3" d="M506.1 91.3h16.6v3.1h-16.6z"/><path class="st1" d="M510.1 80.5h40.5V121h-40.5z"/><path class="st2" d="M525 97.2l3.1 4.4 7.4-10.3"/><path class="st3" d="M522 107.1h16.6v3.1H522z"/><path class="st1" d="M525.9 96.4h40.5v40.5h-40.5z"/><path class="st2" d="M540.9 113.1l3.1 4.3 7.4-10.2"/><path class="st3" d="M537.8 123h16.6v3.1h-16.6z"/><path class="st4" d="M12.2 86.7c-4 0-7.3-3.2-7.3-7.2V24.6c0-4 3.2-7.2 7.2-7.2s7.2 3.2 7.2 7.2v54.8c.1 4-3.1 7.3-7.1 7.3z"/><path class="st5" d="M12.2 81.7c-1.2 0-2.3-1-2.3-2.3V24.6c0-1.2 1-2.3 2.3-2.3s2.3 1 2.3 2.3v54.8c-.1 1.3-1.1 2.3-2.3 2.3z"/><path class="st6" d="M220.2 107.8h28.3l48 46.6 48-46.6h28.3m0-53h-28.3l-48-46.6-48 46.6h-28.3"/><path class="st2" d="M39.6 33.3l3.7 5.2 8.9-12.3"/><path class="st3" d="M62.9 29.5h30.2v5.8H62.9zm34.8 0h30.2v5.8H97.7z"/><path class="st2" d="M39.6 51.9l3.7 5.2 8.9-12.4"/><path class="st3" d="M62.9 48h21.4v5.8H62.9zm26 0h42.7v5.8H88.9z"/><path class="st2" d="M39.6 70.4l3.7 5.2 8.9-12.3"/><path class="st3" d="M62.9 66.6h34.8v5.8H62.9zm39.6 0h25.4v5.8h-25.4z"/><path class="st2" d="M39.6 89l3.7 5.2 8.9-12.4"/><path class="st3" d="M62.9 85.1h77.3v5.8H62.9z"/><path class="st2" d="M39.6 107.5l3.7 5.2 8.9-12.3"/><path class="st3" d="M62.9 103.7h39.7v5.8H62.9z"/><path class="st2" d="M39.6 126l3.7 5.2 8.9-12.3"/><path class="st3" d="M62.9 122.2h52.4v5.8H62.9z"/><path class="st4" d="M12.2 17.3V6h78.3v6.1m-62.4 0h124.7M28.1 147h124.7"/><path class="st7" d="M322.5 81.8H405"/><path class="st8" d="M402.9 89.3l12.9-7.5-12.9-7.5z"/><path class="st7" d="M177.2 81.8h93.3m-19.4-39.5L279 17m50.2 114.1l19.3-17.6h15.7"/><path class="st4" d="M444.7 132.2c0-4 3.2-7.3 7.3-7.3h21.5c4 0 7.3 3.2 7.3 7.2s-3.2 7.2-7.3 7.2H452c-4.1.1-7.3-3.1-7.3-7.1z"/><path class="st5" d="M449.7 132.2c0-1.2 1-2.3 2.3-2.3h21.5c1.2 0 2.3 1 2.3 2.3s-1 2.3-2.3 2.3H452c-1.3-.1-2.3-1.1-2.3-2.3z"/><path class="st4" d="M462.7 124.9V80.6"/><path class="st9" d="M493.9 11.2l77.7 77.7M443.4 61.7l77.7 77.7"/><g class="st10"><path class="st11" d="M280 45.2h5.7l9.5 14.9h-5.7z"/><path class="st3" d="M289.5 60.1h5.7l-9.5 15H280z"/><path class="st0" d="M280 45.2l9.5 14.9-9.5 15-9.5-14.9z"/></g><g class="st10"><path class="st11" d="M293.1 23.2h5.7l9.5 14.9h-5.7z"/><path class="st3" d="M302.6 38.1h5.7L298.8 53h-5.7z"/><path class="st0" d="M293.1 23.2l9.5 14.9-9.5 14.9-9.5-14.9z"/></g><g class="st10"><path class="st11" d="M293.7 109.2h5.6l9.5 14.9-5.6-.1z"/><path class="st3" d="M303.2 124l5.6.1-9.5 14.9h-5.6z"/><path class="st0" d="M293.7 109.2l9.5 14.8-9.5 15-9.5-14.9z"/></g><g class="st10"><path class="st11" d="M307.3 45.2h5.7l9.5 14.9h-5.7z"/><path class="st3" d="M316.8 60.1h5.7l-9.5 15h-5.7z"/><path class="st0" d="M307.3 45.2l9.5 14.9-9.5 15-9.5-14.9z"/></g><g class="st10"><path class="st11" d="M280 87.6l5.7.1 9.5 14.8h-5.7z"/><path class="st3" d="M289.5 102.5h5.7l-9.5 15H280z"/><path class="st0" d="M280 87.6l9.5 14.9-9.5 15-9.5-14.9z"/></g><g class="st10"><path class="st11" d="M307.3 87.6l5.7.1 9.5 14.8h-5.7z"/><path class="st3" d="M316.8 102.5h5.7l-9.5 15h-5.7z"/><path class="st0" d="M307.3 87.6l9.5 14.9-9.5 15-9.5-14.9z"/></g><g class="st10"><path class="st11" d="M293.7 66.4l5.6.1 9.5 14.8h-5.6z"/><path class="st3" d="M303.2 81.3h5.6l-9.5 15h-5.6z"/><path class="st0" d="M293.7 66.4l9.5 14.9-9.5 15-9.5-14.9z"/></g></svg>