<svg id="Layer_1" xmlns="http://www.w3.org/2000/svg" viewBox="0 0 506.4 309"><style>.st0{fill:#29ff92}.st1,.st2,.st3{stroke-miterlimit:10}.st1{stroke-linecap:round;fill:none;stroke:#29ff92;stroke-width:1.5}.st2{fill:#fff;stroke:#141414;stroke-width:3}.st3{fill:none;stroke:#005291;stroke-width:1.5;stroke-linecap:round}.st4{fill:#00bcf2}.st5{fill:#fff}.st6{fill:#29ff92;stroke:#141414;stroke-width:1.5;stroke-linecap:round;stroke-miterlimit:10}</style><path class="st0" d="M253.2 12.5c77.6 0 140.8 63.2 140.8 140.8s-63.2 140.8-140.8 140.8-140.8-63.2-140.8-140.8S175.6 12.5 253.2 12.5m0-6c-80.9 0-146.8 65.9-146.8 146.8s65.9 146.8 146.8 146.8S400 234.2 400 153.3 334.2 6.5 253.2 6.5z"/><path class="st1" d="M253.2 268.7c-63.6 0-115.4-51.8-115.4-115.4S189.6 37.8 253.2 37.8s115.4 51.8 115.4 115.4-51.7 115.5-115.4 115.5z"/><path class="st1" d="M253.2 237.3c-46.4 0-84.1-37.7-84.1-84.1s37.7-84.1 84.1-84.1 84.1 37.7 84.1 84.1-37.7 84.1-84.1 84.1z"/><path class="st1" d="M253.2 206c-29.1 0-52.7-23.6-52.7-52.7s23.6-52.7 52.7-52.7 52.7 23.6 52.7 52.7-23.6 52.7-52.7 52.7z"/><circle class="st1" cx="253.2" cy="153.3" r="21.3"/><path class="st1" d="M191.6 96.1l-61.8-61.8H54.5m273 207.3l44.6 44.6H456M356.5 52.7l41.8-41.9h102.9"/><circle class="st2" cx="191.6" cy="96.1" r="9"/><circle class="st2" cx="356.5" cy="52.7" r="9"/><path class="st3" d="M327.5 255.3c-7.6 0-13.7-6.2-13.7-13.7 0-7.6 6.2-13.7 13.7-13.7s13.7 6.2 13.7 13.7c.1 7.5-6.1 13.7-13.7 13.7z"/><circle class="st2" cx="327.5" cy="241.5" r="9"/><path class="st3" d="M336.4 179.2c-7.6 0-13.7-6.2-13.7-13.7s6.2-13.7 13.7-13.7c7.6 0 13.7 6.2 13.7 13.7s-6.1 13.7-13.7 13.7z"/><path class="st4" d="M494.6 66.8h-98.9l6.6-7h98.9zm-11.3-30.9h-98.9l6.6-7h98.9z"/><path class="st3" d="M447.1 196.9h8.9v83h-8.9z"/><path class="st5" d="M450.2 247.2h2.6v29.5h-2.6z"/><path class="st3" d="M432.5 213.5h8.9v66.4h-8.9z"/><path class="st5" d="M435.6 223.4h2.6v53.3h-2.6z"/><path class="st3" d="M417.8 232.5h8.9v47.4h-8.9z"/><path class="st5" d="M420.9 267.1h2.6v9.7h-2.6zM5.4 33.3H19v22H5.4zm0 27.3H19v22H5.4z"/><path class="st4" d="M83.5 48.7H71.2l-16.7 21h12.3zm19.6 0H90.8l-16.7 21h12.3zm16.5 1.5l-14.3 18h-8.5l14.3-18h8.5m3.1-1.5h-12.3l-16.7 21H106l16.7-21zm16.5 1.5l-14.3 18h-8.5l14.3-18h8.5m3.1-1.5H130l-16.7 21h12.3l16.7-21z"/><path class="st1" d="M90.7 34.3v28.6"/><circle class="st5" cx="80.1" cy="43.6" r="3.4"/><circle class="st5" cx="71.1" cy="43.6" r="3.4"/><path class="st5" d="M62.2 47c1.9 0 3.4-1.5 3.4-3.4s-1.5-3.4-3.4-3.4V47z"/><circle class="st5" cx="80.1" cy="53.4" r="3.4"/><path class="st5" d="M71.1 56.8c1.9 0 3.4-1.5 3.4-3.4S73 50 71.1 50v6.8z"/><path class="st3" d="M191.6 109.9c-7.6 0-13.7-6.2-13.7-13.7 0-7.6 6.2-13.7 13.7-13.7 7.6 0 13.7 6.2 13.7 13.7.1 7.5-6.1 13.7-13.7 13.7zm164.9-43.5c-7.6 0-13.7-6.2-13.7-13.7S349 39 356.5 39s13.7 6.2 13.7 13.7-6.1 13.7-13.7 13.7z"/><circle class="st0" cx="253.2" cy="153.3" r="8.2"/><path class="st5" d="M391 28.9l-6.6 7H405l6.6-7zm32.5 30.9l-6.6 7h55.9l6.7-7z"/><path class="st1" d="M207.3 179.2l-33.2 33.2H54.9"/><circle class="st2" cx="207.3" cy="179.2" r="9"/><path class="st3" d="M207.4 192.9c-7.6 0-13.7-6.2-13.7-13.7s6.2-13.7 13.7-13.7c7.6 0 13.7 6.2 13.7 13.7s-6.2 13.7-13.7 13.7z"/><path transform="rotate(45.001 54.932 212.401)" class="st3" d="M42.6 200.1h24.6v24.6H42.6z"/><circle class="st6" cx="54.9" cy="212.4" r="4.7"/><path class="st3" d="M49.3 109.8h25.1m-32-7.6h25.1m-25.1 86h25.1m-20.4-68.4h23.3m-29.2 9.9h25.1m-31.5 9.9h25.1m-24.3 10h25.1m-20.5 9.9h25.1m-20 9.9h25.1m-17.7 10h25.1m-22.9 8.8v-86M493.8 84v25.1m7.6-32v25.1m-86-25.1v25.1m68.5-20.4v23.3m-10-29.2V101M464 69.6v25.1m-9.9-24.4v25.1m-10-20.5V100m-9.9-20v25.1m-9.9-17.7v25.1m-8.9-22.9h86"/><path class="st1" d="M336.4 165.4h86.3l35.7-35.7"/><path transform="rotate(45.001 458.394 129.713)" class="st3" d="M446.1 117.4h24.6V142h-24.6z"/><circle class="st6" cx="458.4" cy="129.7" r="4.7"/><path class="st5" d="M10.7 280.7v8.1H7v-22.4h6.8c2.6 0 4.6.6 6 1.8s2.1 2.9 2.1 5.1-.7 4-2.2 5.3-3.5 2.1-6 2.1h-3zm0-11.2v8.2h2.4c1.6 0 2.8-.4 3.6-1.1s1.3-1.8 1.3-3.1c0-2.6-1.5-4-4.6-4h-2.7zm23.7 6.8c-.4-.3-1.1-.5-1.9-.5-1.1 0-2 .5-2.7 1.5s-1.1 2.3-1.1 4v7.7h-3.6v-16h3.6v3.3h.1c.4-1.1.9-2 1.6-2.6s1.6-.9 2.5-.9c.7 0 1.2.1 1.5.3v3.2zm15.7 5.5H39.2c0 1.5.5 2.6 1.4 3.4.9.8 2.1 1.2 3.6 1.2 1.7 0 3.3-.5 4.7-1.5v2.9c-1.5.9-3.4 1.4-5.8 1.4s-4.2-.7-5.5-2.2c-1.3-1.5-2-3.5-2-6.1 0-2.5.7-4.5 2.2-6.1 1.5-1.6 3.3-2.4 5.5-2.4s3.9.7 5.1 2.1c1.2 1.4 1.8 3.4 1.8 5.9v1.4zm-3.5-2.5c0-1.3-.3-2.3-.9-3-.6-.7-1.4-1.1-2.5-1.1-1 0-1.9.4-2.6 1.1-.7.8-1.2 1.8-1.3 3h7.3zm21.3 9.5h-3.6v-2.7h-.1c-1.2 2.1-3 3.1-5.4 3.1-2 0-3.5-.7-4.7-2.1-1.2-1.4-1.8-3.4-1.8-5.9 0-2.6.7-4.8 2-6.4 1.3-1.6 3-2.4 5.2-2.4s3.7.9 4.7 2.6h.1v-9.9h3.6v23.7zm-3.5-7.3v-2.1c0-1.1-.4-2.1-1.1-2.9-.7-.8-1.7-1.2-2.8-1.2-1.4 0-2.4.5-3.2 1.5-.8 1-1.2 2.4-1.2 4.2 0 1.6.4 2.9 1.1 3.9.7.9 1.7 1.4 3 1.4 1.2 0 2.2-.5 3-1.4.8-.8 1.2-2 1.2-3.4zm9.9-12c-.6 0-1.1-.2-1.5-.6s-.6-.9-.6-1.5.2-1.1.6-1.5.9-.6 1.5-.6 1.1.2 1.6.6.6.9.6 1.5-.2 1-.6 1.4-.9.7-1.6.7zm1.8 19.3h-3.6v-16h3.6v16zm16.1-.7c-1.3.7-2.8 1.1-4.5 1.1-2.4 0-4.3-.7-5.8-2.2-1.5-1.5-2.2-3.4-2.2-5.8 0-2.6.8-4.8 2.4-6.4 1.6-1.6 3.7-2.4 6.3-2.4 1.5 0 2.7.3 3.9.8v3.4c-1.1-.8-2.3-1.3-3.6-1.3-1.5 0-2.8.5-3.8 1.6-1 1-1.5 2.4-1.5 4.1 0 1.7.5 3 1.4 3.9s2.2 1.4 3.7 1.4c1.3 0 2.5-.5 3.7-1.4v3.2zm11.8.6c-.7.4-1.6.5-2.8.5-3.1 0-4.7-1.5-4.7-4.5v-9h-2.7v-2.8h2.7v-3.7l3.6-1v4.7h3.8v2.8h-3.8v8c0 .9.2 1.6.5 2s.9.6 1.7.6c.6 0 1.1-.2 1.6-.5v2.9zm15.3-2.2l-.1 9.7h-3.6v-23.4h3.6v2.8h.1c1.2-2.1 3.1-3.2 5.4-3.2 2 0 3.6.7 4.8 2.1 1.1 1.4 1.7 3.3 1.7 5.8 0 2.7-.6 4.8-1.9 6.4s-3 2.4-5.3 2.4c-2 .1-3.6-.8-4.7-2.6zm-.1-6.3v2c0 1.2.4 2.2 1.1 3 .7.8 1.7 1.2 2.8 1.2 1.3 0 2.4-.5 3.2-1.6s1.1-2.5 1.1-4.4c0-1.6-.4-2.8-1.1-3.7-.7-.9-1.7-1.3-2.9-1.3-1.3 0-2.3.5-3.1 1.4-.7.9-1.1 2-1.1 3.4zm19.2 8.6h-3.6v-23.7h3.6v23.7zm16.8 0h-3.5v-2.5h-.1c-1.1 1.9-2.7 2.9-4.9 2.9-1.6 0-2.8-.4-3.7-1.3s-1.3-2-1.3-3.4c0-3 1.7-4.8 5.2-5.3l4.8-.7c0-2.3-1.1-3.4-3.3-3.4-1.9 0-3.6.7-5.2 2V274c1.7-1 3.6-1.5 5.8-1.5 4 0 6.1 2 6.1 6v10.3zm-3.5-7.8l-3.4.5c-1 .1-1.8.4-2.4.8s-.8 1-.8 1.9c0 .7.2 1.2.7 1.7s1.1.6 1.9.6c1.1 0 2-.4 2.7-1.2s1.1-1.8 1.1-2.9V281zm21.7-8.2l-7.2 18.6c-1.5 3.3-3.6 5-6.3 5-.8 0-1.4-.1-1.9-.2v-3c.6.2 1.1.3 1.6.3 1.4 0 2.4-.7 3-2l1.1-2.6-6.4-16h4l3.8 11.6c0 .1.1.5.3 1.2h.1c.1-.2.1-.6.3-1.1l4-11.7h3.6zm15.5 9H178c0 1.5.5 2.6 1.4 3.4.9.8 2.1 1.2 3.6 1.2 1.7 0 3.3-.5 4.7-1.5v2.9c-1.5.9-3.4 1.4-5.8 1.4s-4.2-.7-5.5-2.2c-1.3-1.5-2-3.5-2-6.1 0-2.5.7-4.5 2.2-6.1 1.5-1.6 3.3-2.4 5.5-2.4s3.9.7 5.1 2.1c1.2 1.4 1.8 3.4 1.8 5.9v1.4zm-3.5-2.5c0-1.3-.3-2.3-.9-3-.6-.7-1.4-1.1-2.5-1.1-1 0-1.9.4-2.6 1.1-.7.8-1.2 1.8-1.3 3h7.3zm16.1-3c-.4-.3-1.1-.5-1.9-.5-1.1 0-2 .5-2.7 1.5s-1.1 2.3-1.1 4v7.7h-3.6v-16h3.6v3.3h.1c.4-1.1.9-2 1.6-2.6s1.6-.9 2.5-.9c.7 0 1.2.1 1.5.3v3.2zm14.7 10.2l-.1 2.3h-3.6v-23.7h3.6v10.5h.1c1.2-2.1 3.1-3.2 5.4-3.2 2 0 3.6.7 4.7 2.1s1.7 3.4 1.7 5.8c0 2.7-.6 4.8-1.9 6.4s-3 2.4-5.3 2.4c-1.9.1-3.5-.8-4.6-2.6zm-.1-6.3v2c0 1.2.4 2.2 1.1 3 .7.8 1.7 1.2 2.8 1.2 1.3 0 2.4-.5 3.2-1.6s1.1-2.5 1.1-4.4c0-1.6-.4-2.8-1.1-3.7-.7-.9-1.7-1.3-2.9-1.3-1.3 0-2.3.5-3.1 1.4-.7.9-1.1 2-1.1 3.4zm29.1 1.6h-10.9c0 1.5.5 2.6 1.4 3.4.9.8 2.1 1.2 3.6 1.2 1.7 0 3.3-.5 4.7-1.5v2.9c-1.5.9-3.4 1.4-5.8 1.4s-4.2-.7-5.5-2.2c-1.3-1.5-2-3.5-2-6.1 0-2.5.7-4.5 2.2-6.1 1.5-1.6 3.3-2.4 5.5-2.4s3.9.7 5.1 2.1c1.2 1.4 1.8 3.4 1.8 5.9v1.4zm-3.5-2.5c0-1.3-.3-2.3-.9-3-.6-.7-1.4-1.1-2.5-1.1-1 0-1.9.4-2.6 1.1-.7.8-1.2 1.8-1.3 3h7.3zm21 9.5h-3.6V280c0-3.2-1.1-4.8-3.2-4.8-1.1 0-2 .5-2.7 1.4s-1.1 2.1-1.1 3.5v8.6h-3.6V265h3.6v10.3h.1c1.2-2 2.9-3 5.2-3 3.6 0 5.3 2.2 5.3 6.5v10zm16.5 0h-3.5v-2.5h-.1c-1.1 1.9-2.7 2.9-4.9 2.9-1.6 0-2.8-.4-3.7-1.3s-1.3-2-1.3-3.4c0-3 1.7-4.8 5.2-5.3l4.8-.7c0-2.3-1.1-3.4-3.3-3.4-1.9 0-3.6.7-5.2 2V274c1.7-1 3.6-1.5 5.8-1.5 4 0 6.1 2 6.1 6v10.3zm-3.5-7.8l-3.4.5c-1 .1-1.8.4-2.4.8-.5.4-.8 1-.8 1.9 0 .7.2 1.2.7 1.7s1.1.6 1.9.6c1.1 0 2-.4 2.7-1.2.7-.8 1.1-1.8 1.1-2.9V281zm21.6-8.2l-6.2 16h-3.9l-5.9-16h3.9l3.5 11.2c.3.8.4 1.5.5 2.2.1-.8.2-1.5.4-2.1l3.7-11.3h4zm4.1-3.3c-.6 0-1.1-.2-1.5-.6s-.6-.9-.6-1.5.2-1.1.6-1.5.9-.6 1.5-.6 1.1.2 1.6.6c.4.4.6.9.6 1.5s-.2 1-.6 1.4c-.5.5-1 .7-1.6.7zm1.8 19.3h-3.6v-16h3.6v16zm11.7.4c-2.5 0-4.4-.7-5.9-2.2-1.5-1.5-2.2-3.5-2.2-5.9 0-2.7.8-4.8 2.3-6.3 1.5-1.5 3.6-2.3 6.2-2.3 2.5 0 4.4.7 5.8 2.2 1.4 1.5 2.1 3.5 2.1 6.1 0 2.6-.8 4.6-2.3 6.1-1.5 1.6-3.5 2.3-6 2.3zm.1-13.8c-1.4 0-2.5.5-3.4 1.5-.8 1-1.2 2.4-1.2 4.1 0 1.7.4 3 1.3 4 .8 1 1.9 1.4 3.3 1.4s2.5-.5 3.3-1.4 1.1-2.3 1.1-4c0-1.8-.4-3.1-1.1-4.1s-1.8-1.5-3.3-1.5zm21 .9c-.4-.3-1.1-.5-1.9-.5-1.1 0-2 .5-2.7 1.5s-1.1 2.3-1.1 4v7.7h-3.6v-16h3.6v3.3h.1c.4-1.1.9-2 1.6-2.6s1.6-.9 2.5-.9c.7 0 1.2.1 1.5.3v3.2z"/><circle class="st2" cx="336.4" cy="165.4" r="9"/><path class="st5" d="M5.4 87.9H19v22H5.4z"/></svg>