<svg id="Layer_1" xmlns="http://www.w3.org/2000/svg" viewBox="0 0 144.6 181.3"><style>.st0{fill:#005291}.st1{fill:#00bcf2}.st2{fill:none;stroke:#29ff92;stroke-width:1.5;stroke-miterlimit:10}.st3{fill:#27f089}.st4{fill:#fff}.st5{fill:#141414}.st6,.st7{fill:none;stroke:#005291;stroke-width:1.5;stroke-miterlimit:10}.st7{fill:#141414}</style><circle class="st0" cx="72.3" cy="51" r="35.2"/><path class="st1" d="M94.8 38.2c0-6.5-1.7-12.5-4.8-17.7-5.2-3-11.2-4.8-17.7-4.8-19.5 0-35.2 15.8-35.2 35.2 0 6.5 1.7 12.5 4.8 17.7 5.2 3 11.2 4.8 17.7 4.8 19.4 0 35.2-15.7 35.2-35.2z"/><path class="st2" d="M106.6 43c18.4 1.7 30.7 4.6 30.7 7.9 0 5.2-29.1 9.4-65 9.4s-65-4.2-65-9.4c0-3.4 12.3-6.3 30.7-7.9"/><path class="st2" d="M90.9 21.1c14.2-11.9 25-18.5 27.4-16.1 3.7 3.7-14 27.2-39.3 52.6s-48.9 43-52.6 39.3c-2.4-2.4 4.2-13.1 16.1-27.3"/><path class="st2" d="M102.2 69.6c11.9 14.2 18.4 24.9 16.1 27.3-3.7 3.7-27.2-14-52.6-39.3S22.7 8.7 26.3 5c2.4-2.4 13.1 4.2 27.3 16.1"/><path class="st0" d="M59.5 100.1L72.3 130l12.8-29.9z"/><ellipse class="st1" cx="72.3" cy="100.1" rx="12.8" ry="2.9"/><path class="st3" d="M135.6 147.7H9c-1.7 0-3-1.3-3-3s1.3-3 3-3h126.5c1.7 0 3 1.3 3 3 .1 1.6-1.3 3-2.9 3zm-83.4 15.1H9c-1.7 0-3-1.3-3-3s1.3-3 3-3h43.2c1.7 0 3 1.3 3 3s-1.3 3-3 3zm53 0H62c-1.7 0-3-1.3-3-3s1.3-3 3-3h43.2c1.7 0 3 1.3 3 3s-1.3 3-3 3zm-68.5 14.8H9c-1.7 0-3-1.3-3-3s1.3-3 3-3h27.7c1.7 0 3 1.3 3 3 0 1.6-1.3 3-3 3zm51.2 0H46.3c-1.7 0-3-1.3-3-3s1.3-3 3-3h41.6c1.7 0 3 1.3 3 3 0 1.6-1.4 3-3 3z"/><circle class="st4" cx="100" cy="88" r="6.2"/><path class="st5" d="M100 82.6c3 0 5.5 2.5 5.5 5.5s-2.5 5.5-5.5 5.5-5.5-2.5-5.5-5.5 2.5-5.5 5.5-5.5m0-1.5c-3.9 0-7 3.1-7 7s3.1 7 7 7 7-3.1 7-7-3.2-7-7-7z"/><circle class="st4" cx="102.3" cy="12.7" r="6.2"/><path class="st5" d="M102.3 7.2c3 0 5.5 2.5 5.5 5.5s-2.5 5.5-5.5 5.5-5.5-2.5-5.5-5.5c0-3.1 2.5-5.5 5.5-5.5m0-1.5c-3.9 0-7 3.1-7 7s3.1 7 7 7 7-3.1 7-7-3.1-7-7-7z"/><path class="st6" d="M16.9 63.5v72.9"/><circle class="st7" cx="17.2" cy="144.7" r="8.3"/><circle class="st4" cx="16.9" cy="56.4" r="6.2"/><path class="st5" d="M16.9 51c3 0 5.5 2.5 5.5 5.5S19.9 62 16.9 62s-5.5-2.5-5.5-5.5 2.5-5.5 5.5-5.5m0-1.5c-3.9 0-7 3.1-7 7s3.1 7 7 7 7-3.1 7-7-3.1-7-7-7z"/><path class="st6" d="M11.4 84.9v33.3"/><circle class="st3" cx="16.9" cy="144.7" r="3.1"/></svg>