<svg id="Layer_1" xmlns="http://www.w3.org/2000/svg" viewBox="0 0 201.3 257.9"><style>.st0{enable-background:new}.st1{fill:#005291}.st2{fill:#006fc8}.st3{fill:#00bcf2}.st4{fill:none;stroke:#29ff92;stroke-width:1.5;stroke-miterlimit:10}.st5{fill:#fff}</style><g class="st0"><path class="st1" d="M134.7 190.5v12.3l-35.3 20.5.1-12.3z"/><path class="st2" d="M99.5 211l-.1 12.3L64 202.8v-12.3z"/><path class="st3" d="M134.7 190.5L99.5 211 64 190.5l35.2-20.4z"/></g><g class="st0"><path class="st1" d="M134.7 132.4v12.2l-35.3 20.5.1-12.3z"/><path class="st2" d="M99.5 152.8l-.1 12.3L64 144.6v-12.2z"/><path class="st3" d="M134.7 132.4l-35.2 20.4L64 132.4l35.2-20.5z"/></g><g class="st0"><path class="st1" d="M134.7 74.2v12.2l-35.3 20.5.1-12.3z"/><path class="st2" d="M99.5 94.6l-.1 12.3L64 86.4V74.2z"/><path class="st3" d="M134.7 74.2L99.5 94.6 64 74.2l35.2-20.5z"/></g><g class="st0"><path class="st1" d="M183.1 161.5v12.2l-35.3 20.5.1-12.3z"/><path class="st2" d="M147.9 181.9l-.1 12.3-35.4-20.5v-12.2z"/><path class="st3" d="M183.1 161.5l-35.2 20.4-35.5-20.4 35.2-20.5z"/></g><g class="st0"><path class="st1" d="M86.3 161.5v12.2L51 194.2v-12.3z"/><path class="st2" d="M51 181.9v12.3l-35.5-20.5.1-12.2z"/><path class="st3" d="M86.3 161.5L51 181.9l-35.4-20.4L50.8 141z"/></g><g class="st0"><path class="st1" d="M183.1 103.3v12.2L147.8 136l.1-12.3z"/><path class="st2" d="M147.9 123.7l-.1 12.3-35.4-20.5v-12.2z"/><path class="st3" d="M183.1 103.3l-35.2 20.4-35.5-20.4 35.2-20.5z"/></g><g class="st0"><path class="st1" d="M86.3 103.3v12.2L51 136v-12.3z"/><path class="st2" d="M51 123.7V136l-35.5-20.5.1-12.2z"/><path class="st3" d="M86.3 103.3L51 123.7l-35.4-20.4 35.2-20.5z"/></g><path class="st4" d="M119.7 205.5l35.4 20.5v13.1m-39.1 0h78.3v14H116z"/><path class="st5" d="M119.9 242.7h50.9v6.9h-50.9z"/><path class="st5" d="M190.1 243.7v4.9h-18.6v-4.9h18.6m1-1h-20.6v6.9h20.6v-6.9z"/><path class="st4" d="M89.3 50.5c-3.6-19.2-20.5-33.8-40.8-33.8C25.6 16.7 7 35.3 7 58.2c0 12.9 5.9 24.4 15.1 32"/><path class="st5" d="M48.2 21.8c-20.2 0-36.5 16.4-36.5 36.5 0 12.2 6 23 15.2 29.6l6.7-4c-8.9-5.1-14.9-14.7-14.9-25.7 0-16.3 13.3-29.6 29.6-29.6 4.1 0 7.9.8 11.5 2.3l.9-7.1c-4-1.3-8.1-2-12.5-2z"/><path class="st5" d="M61.4 25.3c11.9 4.7 20.2 15.3 22 27.9L78.7 56c-.9-11.1-7.7-21-18-25.6l.7-5.1m-.8-1.4l-.9 7.1c10.5 4.4 17.9 14.7 18.1 26.7l6.7-4c-1.8-13.8-11.2-25.2-23.9-29.8zm3.8-10.5l7.2-6.3-9-3.1z"/></svg>