<svg id="Layer_1" xmlns="http://www.w3.org/2000/svg" viewBox="0 0 234 101.8"><style>.st0{fill:none;stroke:#1fbe6e;stroke-width:1.5;stroke-miterlimit:10}.st1{fill:#29ff92}.st2{fill:none;stroke:#fff;stroke-width:1.5;stroke-miterlimit:10}.st3{fill-rule:evenodd;clip-rule:evenodd;fill:#006fc8}.st4{fill:#005291}.st5{fill:none;stroke:#29ff92;stroke-width:1.5;stroke-linecap:round;stroke-linejoin:round;stroke-miterlimit:10}</style><path class="st0" d="M87.8 48.9c-9.1 0-16.5-7.4-16.5-16.5v-7.1"/><path class="st1" d="M75.5 14.1V7.6c0-.6-.5-1.1-1.1-1.1-.6 0-1.1.5-1.1 1.1v6.5h-4.1V7.6c0-.6-.5-1.1-1.1-1.1-.6 0-1.1.5-1.1 1.1v6.5h-4v5.1c0 4.4 3.3 8.2 7.7 8.5 4.8.3 8.8-3.5 8.8-8.2v-5.3h-4z"/><circle class="st1" cx="117" cy="48.9" r="5.8"/><path class="st2" d="M161.2 57.1C158.4 72.7 147.5 85.5 133 91"/><ellipse transform="rotate(-73.685 167.974 63.832)" class="st1" cx="168" cy="63.8" rx="2.8" ry="2.8"/><ellipse transform="rotate(-57.376 161.724 77.548)" class="st1" cx="161.7" cy="77.5" rx="2.8" ry="2.8"/><ellipse transform="rotate(-41.062 151.88 88.95)" class="st1" cx="151.9" cy="89" rx="2.8" ry="2.8"/><path class="st3" d="M147.8 56.2l-5.3-2.2c-.8-.4-1.5-.8-1.5-1 .1-.2.1-1.1.2-2v-4.3c-.1-.9-.1-1.8-.2-2 0-.2.7-.6 1.6-1l5.2-2.2c.8-.3 1.2-1.3.9-2.2l-2.6-6.3c-.4-.8-1.4-1.2-2.2-.9l-5.2 2.2c-.9.3-1.7.5-1.8.4-.1-.2-.7-.9-1.3-1.6l-3.1-3c-.7-.6-1.4-1.2-1.5-1.3-.2-.1 0-.9.4-1.8l2.1-5.2c.4-.9 0-1.9-.9-2.2l-6.3-2.6c-.8-.4-1.8 0-2.2.9l-2.1 5.2c-.4.9-.8 1.6-1 1.5-.2 0-1.1-.1-2-.2 0 0-.9-.1-2.2-.1-1.3 0-2.1.1-2.1.1-1 .1-1.9.2-2.1.2-.1 0-.6-.6-.9-1.5l-2.2-5.2c-.4-.9-1.4-1.3-2.2-.9l-6.3 2.6c-.9.3-1.3 1.3-.9 2.2l2.2 5.2c.3.9.5 1.7.3 1.8-.1.1-.8.7-1.5 1.3l-3.1 3c-.6.7-1.2 1.4-1.3 1.6-.1.1-.9 0-1.7-.4l-5.2-2.2c-.9-.3-1.9.1-2.3 1l-2.6 6.2c-.3.9.1 1.9 1 2.2l5.2 2.2c.8.4 1.5.8 1.5 1s-.1 1.1-.2 2V51c.1.9.1 1.8.2 2 0 .2-.7.6-1.5 1l-5.2 2.2c-.9.3-1.3 1.3-1 2.2l2.6 6.3c.4.8 1.4 1.2 2.2.9l5.3-2.2c.8-.3 1.6-.5 1.7-.4.1.2.7.9 1.3 1.6l3.1 3c.7.6 1.4 1.2 1.5 1.3.2.1 0 .9-.3 1.8l-2.2 5.2c-.4.9 0 1.9.9 2.2l6.3 2.6c.8.4 1.8 0 2.2-.9l2.2-5.2c.3-.9.8-1.6.9-1.5.2 0 1.1.1 2.1.2 0 0 .9.1 2.1.1 1.3 0 2.2-.1 2.2-.1.9-.1 1.8-.2 2-.2.2-.1.6.6 1 1.5l2.1 5.2c.4.9 1.4 1.3 2.2.9l6.3-2.6c.9-.3 1.3-1.3.9-2.2l-2.1-5.2c-.4-.9-.6-1.7-.4-1.8.1-.1.8-.7 1.5-1.3l3.1-3c.6-.7 1.2-1.4 1.3-1.6.1-.1.9 0 1.7.4l5.3 2.2c.8.3 1.8-.1 2.2-1l2.6-6.2c.3-.9-.1-1.9-.9-2.2zM117 61.7c-7.1 0-12.8-5.7-12.8-12.8 0-7 5.7-12.7 12.8-12.7s12.8 5.7 12.8 12.7c0 7-5.7 12.8-12.8 12.8z"/><path class="st4" d="M117 30.2c-10.4 0-18.8 8.4-18.8 18.8s8.4 18.8 18.8 18.8 18.8-8.4 18.8-18.8-8.4-18.8-18.8-18.8zm0 31.5c-7.1 0-12.8-5.7-12.8-12.8 0-7 5.7-12.7 12.8-12.7 7.1 0 12.8 5.7 12.8 12.7 0 7-5.7 12.8-12.8 12.8z"/><path class="st5" d="M2 12.6v-10h10m210 0h10v10m0 72.9v10h-10m-210 0H2v-10"/><ellipse transform="rotate(-24.756 139.208 97.14)" class="st1" cx="139.2" cy="97.1" rx="2.8" ry="2.8"/></svg>