<svg id="Layer_1" xmlns="http://www.w3.org/2000/svg" viewBox="0 0 238 101.7"><style>.st0{fill:#006fc8}.st1{fill:#fff}.st2{fill:#005291}.st3{fill:#00bcf2}.st4{fill:#141414}.st5{fill:none;stroke:#29ff92;stroke-width:1.5;stroke-linecap:round;stroke-linejoin:round;stroke-miterlimit:10}</style><path class="st0" d="M73.6 32.3h33.5V89H73.6z"/><path class="st1" d="M77.9 38.4h5.3V43h-5.3z"/><path class="st2" d="M102 41.7H86.7c-.5 0-.9-.4-.9-.9v-.4c0-.5.4-.9.9-.9H102c.5 0 .9.4.9.9v.4c0 .5-.4.9-.9.9z"/><path class="st1" d="M77.9 44.7h5.3v4.6h-5.3z"/><path class="st2" d="M102 48.1H86.7c-.5 0-.9-.4-.9-.9v-.4c0-.5.4-.9.9-.9H102c.5 0 .9.4.9.9v.4c0 .5-.4.9-.9.9z"/><path class="st1" d="M77.9 51.1h5.3v4.6h-5.3z"/><path class="st2" d="M102 54.5H86.7c-.5 0-.9-.4-.9-.9v-.4c0-.5.4-.9.9-.9H102c.5 0 .9.4.9.9v.4c0 .5-.4.9-.9.9z"/><circle class="st1" cx="90.4" cy="80.5" r="1.5"/><path class="st2" d="M73.6 85.5h33.5V89H73.6z"/><path class="st3" d="M99.1 27.7H81.7l-8.1 4.6h33.6z"/><path class="st0" d="M133.1 32.3h33.5V89h-33.5z"/><path class="st1" d="M137.4 38.4h5.3V43h-5.3z"/><path class="st2" d="M161.5 41.7h-15.4c-.5 0-.9-.4-.9-.9v-.4c0-.5.4-.9.9-.9h15.4c.5 0 .9.4.9.9v.4c-.1.5-.4.9-.9.9z"/><path class="st1" d="M137.4 44.7h5.3v4.6h-5.3z"/><path class="st2" d="M161.5 48.1h-15.4c-.5 0-.9-.4-.9-.9v-.4c0-.5.4-.9.9-.9h15.4c.5 0 .9.4.9.9v.4c-.1.5-.4.9-.9.9z"/><path class="st1" d="M137.4 51.1h5.3v4.6h-5.3z"/><path class="st2" d="M161.5 54.5h-15.4c-.5 0-.9-.4-.9-.9v-.4c0-.5.4-.9.9-.9h15.4c.5 0 .9.4.9.9v.4c-.1.5-.4.9-.9.9z"/><circle class="st1" cx="149.9" cy="80.5" r="1.5"/><path class="st2" d="M133.1 85.5h33.5V89h-33.5z"/><path class="st3" d="M158.6 27.7h-17.4l-8.1 4.6h33.5z"/><path transform="rotate(90 120.134 48.675)" class="st4" d="M79.8 25.3h80.7v46.8H79.8z"/><path class="st0" d="M99.3 18.7h41.6V89H99.3z"/><path class="st1" d="M104.6 26.2h6.6v5.7h-6.6z"/><path class="st2" d="M134.3 30.3h-18.6c-.7 0-1.3-.6-1.3-1.3 0-.7.6-1.3 1.3-1.3h18.6c.7 0 1.3.6 1.3 1.3 0 .7-.6 1.3-1.3 1.3z"/><path class="st1" d="M104.6 34.1h6.6v5.7h-6.6z"/><path class="st2" d="M134.3 38.2h-18.6c-.7 0-1.3-.6-1.3-1.3 0-.7.6-1.3 1.3-1.3h18.6c.7 0 1.3.6 1.3 1.3 0 .8-.6 1.3-1.3 1.3z"/><path class="st1" d="M104.6 42h6.6v5.7h-6.6z"/><path class="st2" d="M134.3 46.2h-18.6c-.7 0-1.3-.6-1.3-1.3 0-.7.6-1.3 1.3-1.3h18.6c.7 0 1.3.6 1.3 1.3 0 .7-.6 1.3-1.3 1.3z"/><circle class="st1" cx="120.1" cy="78.4" r="1.9"/><path class="st2" d="M99.3 84.7h41.6V89H99.3z"/><path class="st3" d="M130.9 12.9h-21.6l-10 5.8h41.6z"/><path class="st5" d="M44.3 89h152m-142 0V56.5m0 4h3.8m-3.8 4.7h3.8M54.3 70h3.8m-3.8 4.7h3.8m-3.8 4.8h3.8m-3.8 4.7h3.8m-3.8-28.5h3.8M187.8 89V56.5m0 4h-3.9m3.9 4.7h-3.9m3.9 4.8h-3.9m3.9 4.7h-3.9m3.9 4.8h-3.9m3.9 4.7h-3.9m3.9-28.5h-3.9M4 14.4v-10h10m210 0h10v10m0 72.9v10h-10m-210 0H4v-10"/></svg>