<svg id="Layer_1" xmlns="http://www.w3.org/2000/svg" viewBox="0 0 290.8 175.4"><style>.st0{stroke:#005291}.st0,.st1,.st2{fill:none;stroke-width:1.5;stroke-linecap:round;stroke-linejoin:round}.st1{stroke:#005291;stroke-dasharray:2.676,6.244}.st2{stroke-dasharray:2.603,6.0737}.st2,.st3,.st4{stroke:#005291}.st3{fill:none;stroke-width:1.5;stroke-linecap:round;stroke-linejoin:round;stroke-dasharray:2.4143,5.6334}.st4{stroke-dasharray:2.0307,4.7382}.st4,.st5,.st6{fill:none;stroke-width:1.5;stroke-linecap:round;stroke-linejoin:round}.st5{stroke:#005291;stroke-dasharray:3.099,7.231}.st6{stroke-dasharray:3.0991,7.2311}.st6,.st7,.st8{stroke:#005291}.st7{fill:none;stroke-width:1.5;stroke-linecap:round;stroke-linejoin:round;stroke-dasharray:2.9721,6.9348}.st8{stroke-dasharray:2.6031,6.0739}.st10,.st8,.st9{fill:none;stroke-width:1.5;stroke-linecap:round;stroke-linejoin:round}.st9{stroke-dasharray:2.4143,5.6333;stroke:#005291}.st10{stroke:#29ff92;stroke-miterlimit:10}.st11{fill:#00bcf2}.st12{fill:#141414}.st13{fill:#fff}.st14,.st15{fill:none;stroke:#005291;stroke-miterlimit:10}.st15{fill:#00bcf2;stroke:#141414;stroke-width:1.5}</style><path class="st0" d="M99.7 170.9h-1.5l-.7-1.3"/><path class="st1" d="M94.7 164l-6.5-13.2"/><path class="st0" d="M86.8 148l-.7-1.3h-1.5"/><path class="st2" d="M78.5 146.7h-5.6"/><path class="st0" d="M69.9 146.7h-1.5l-.7-1.3"/><path class="st3" d="M65.2 140.3l-6-11.9"/><path class="st0" d="M58 125.9l-.7-1.3h-1.5"/><path class="st4" d="M51.1 124.6h-4.4"/><path class="st0" d="M44.3 124.6h-1.5l-.7-1.4"/><path class="st5" d="M38.9 116.8L26.7 92.3"/><path class="st0" d="M25.1 89l-.7-1.3.7-1.4"/><path class="st6" d="M28.3 79.9l12.2-24.5"/><path class="st0" d="M42.1 52.1l.7-1.3h1.5"/><path class="st4" d="M49 50.8h4.4"/><path class="st0" d="M55.8 50.8h1.5l.7-1.3"/><path class="st3" d="M60.5 44.4l5.9-11.9"/><path class="st0" d="M67.7 30l.7-1.3h1.5"/><path class="st2" d="M75.9 28.7h5.7"/><path class="st0" d="M84.6 28.7h1.5l.7-1.4"/><path class="st1" d="M89.6 21.8l6.5-13.2"/><path class="st0" d="M97.5 5.8l.7-1.4h1.5"/><path class="st7" d="M106.6 4.4h85.7"/><path class="st0" d="M195.8 4.4h1.5l.7 1.4"/><path class="st1" d="M200.8 11.4l6.5 13.1"/><path class="st0" d="M208.7 27.3l.7 1.4h1.5"/><path class="st8" d="M217 28.7h5.6"/><path class="st0" d="M225.7 28.7h1.5l.6 1.3"/><path class="st9" d="M230.3 35.1l6 11.8"/><path class="st0" d="M237.5 49.5l.7 1.3h1.5"/><path class="st4" d="M244.4 50.8h4.4"/><path class="st0" d="M251.2 50.8h1.5l.7 1.3"/><path class="st6" d="M256.6 58.6l12.2 24.5"/><path class="st0" d="M270.4 86.3l.7 1.4-.7 1.3"/><path class="st5" d="M267.2 95.5L255 120"/><path class="st0" d="M253.4 123.2l-.7 1.4h-1.5"/><path class="st4" d="M246.5 124.6h-4.4"/><path class="st0" d="M239.7 124.6h-1.5l-.7 1.3"/><path class="st9" d="M235 131l-5.9 11.8"/><path class="st0" d="M227.8 145.4l-.6 1.3h-1.5"/><path class="st8" d="M219.6 146.7h-5.7"/><path class="st0" d="M210.9 146.7h-1.5l-.7 1.3"/><path class="st1" d="M205.9 153.6l-6.5 13.2"/><path class="st0" d="M198 169.6l-.7 1.3h-1.5"/><path class="st7" d="M188.9 170.9h-85.7"/><path class="st10" d="M244.7 63.8h-14.5l-11.1-22.1h-17.7l-12.1-24.3h-83.1l-12 24.3H76.4l-11 22.1H50.8L38.9 87.7l11.9 23.9h14.6l11 22.1h17.8l12 24.2h83.1l12.1-24.2h17.7l11.1-22.1h14.5l11.9-23.9z"/><path class="st10" d="M38.9 87.7h217.7m-200.8-11h18.3v11m10.4-46v30.8h15.3m0-8.4v17.3m18.5-53h17.9m11.6-11v34.2m-30.7-11.9h60.1m-61.7 48V52.4h-9.6V39.7m21.6 11.9v21.2h-12m23 14.9V60.5M157 87.7V60.5m-31.9-43.1v11m114.6 48.3h-18.3v11m-10.4-46v30.8h-15.3m0-8.4v17.3m-18.5-53h-17.9M180 87.7V52.4h9.6V39.7M168 51.6v21.2h12m-9.6-55.4v11m69.3 70.3h-18.3v-11m-10.4 46v-30.9h-15.3m0 8.5V94m-18.5 52.9h-17.9m-11.5 11v-34.1m30.6 11.9h-60.1m61.7-48V123h9.6v12.7M168 123.8v-21.2h12m-23-14.9v27.2m-18.5-27.2v27.2m31.9 43v-11M55.8 98.7h18.3v-11m10.4 46v-30.9h15.3m0 8.5V94m18.5 52.9h17.9m-20.7-59.2V123h-9.6v12.7m21.6-11.9v-21.2h-12m9.6 55.3v-11"/><circle class="st11" cx="189.6" cy="39.7" r="6.6"/><path class="st12" d="M189.6 34.5c2.8 0 5.1 2.3 5.1 5.1s-2.3 5.1-5.1 5.1-5.1-2.3-5.1-5.1 2.3-5.1 5.1-5.1m0-3c-4.5 0-8.1 3.7-8.1 8.1s3.7 8.1 8.1 8.1c4.5 0 8.1-3.7 8.1-8.1s-3.6-8.1-8.1-8.1z"/><circle class="st13" cx="189.6" cy="39.7" r="2.4"/><circle class="st11" cx="157" cy="60.5" r="6.6"/><path class="st12" d="M157 55.3c2.8 0 5.1 2.3 5.1 5.1s-2.3 5.1-5.1 5.1-5.1-2.3-5.1-5.1 2.3-5.1 5.1-5.1m0-3c-4.5 0-8.1 3.7-8.1 8.1s3.7 8.1 8.1 8.1 8.1-3.7 8.1-8.1-3.6-8.1-8.1-8.1z"/><circle class="st13" cx="157" cy="60.5" r="2.4"/><circle class="st11" cx="117.1" cy="39.7" r="6.6"/><path class="st12" d="M117.1 34.5c2.8 0 5.1 2.3 5.1 5.1s-2.3 5.1-5.1 5.1-5.1-2.3-5.1-5.1c-.1-2.8 2.3-5.1 5.1-5.1m0-3c-4.5 0-8.1 3.7-8.1 8.1s3.7 8.1 8.1 8.1c4.5 0 8.1-3.7 8.1-8.1s-3.6-8.1-8.1-8.1z"/><circle class="st13" cx="117.1" cy="39.7" r="2.4"/><circle class="st11" cx="159.3" cy="146.9" r="6.6"/><path class="st12" d="M159.3 141.8c2.8 0 5.1 2.3 5.1 5.1s-2.3 5.1-5.1 5.1-5.1-2.3-5.1-5.1c-.1-2.8 2.2-5.1 5.1-5.1m0-3c-4.5 0-8.1 3.7-8.1 8.1s3.7 8.1 8.1 8.1 8.1-3.7 8.1-8.1-3.6-8.1-8.1-8.1z"/><circle class="st13" cx="159.3" cy="146.9" r="2.4"/><circle class="st11" cx="99.8" cy="111.3" r="6.6"/><path class="st12" d="M99.8 106.1c2.8 0 5.1 2.3 5.1 5.1s-2.3 5.1-5.1 5.1-5.1-2.3-5.1-5.1 2.3-5.1 5.1-5.1m0-3c-4.5 0-8.1 3.7-8.1 8.1s3.7 8.1 8.1 8.1c4.5 0 8.1-3.7 8.1-8.1s-3.6-8.1-8.1-8.1z"/><circle class="st13" cx="99.8" cy="111.3" r="2.4"/><circle class="st11" cx="239.7" cy="98.7" r="6.6"/><path class="st12" d="M239.7 93.5c2.8 0 5.1 2.3 5.1 5.1s-2.3 5.1-5.1 5.1-5.1-2.3-5.1-5.1c0-2.7 2.3-5.1 5.1-5.1m0-3c-4.5 0-8.1 3.7-8.1 8.1s3.7 8.1 8.1 8.1c4.5 0 8.1-3.7 8.1-8.1s-3.6-8.1-8.1-8.1z"/><circle class="st13" cx="239.7" cy="98.7" r="2.4"/><circle class="st11" cx="55.8" cy="98.7" r="6.6"/><path class="st12" d="M55.8 93.5c2.8 0 5.1 2.3 5.1 5.1s-2.3 5.1-5.1 5.1-5.1-2.3-5.1-5.1c-.1-2.7 2.2-5.1 5.1-5.1m0-3c-4.5 0-8.1 3.7-8.1 8.1s3.7 8.1 8.1 8.1c4.5 0 8.1-3.7 8.1-8.1s-3.6-8.1-8.1-8.1z"/><circle class="st13" cx="55.8" cy="98.7" r="2.4"/><circle class="st11" cx="99.8" cy="64.1" r="6.6"/><path class="st12" d="M99.8 59c2.8 0 5.1 2.3 5.1 5.1s-2.3 5.1-5.1 5.1-5.1-2.3-5.1-5.1S97 59 99.8 59m0-3c-4.5 0-8.1 3.7-8.1 8.1s3.7 8.1 8.1 8.1c4.5 0 8.1-3.7 8.1-8.1s-3.6-8.1-8.1-8.1z"/><circle class="st13" cx="99.8" cy="64.1" r="2.4"/><circle class="st11" cx="127.5" cy="123.8" r="6.6"/><path class="st12" d="M127.5 118.6c2.8 0 5.1 2.3 5.1 5.1s-2.3 5.1-5.1 5.1-5.1-2.3-5.1-5.1 2.3-5.1 5.1-5.1m0-3c-4.5 0-8.1 3.7-8.1 8.1s3.7 8.1 8.1 8.1c4.5 0 8.1-3.7 8.1-8.1s-3.6-8.1-8.1-8.1z"/><circle class="st13" cx="127.5" cy="123.8" r="2.4"/><circle class="st11" cx="195.7" cy="111.3" r="6.6"/><path class="st12" d="M195.7 106.1c2.8 0 5.1 2.3 5.1 5.1s-2.3 5.1-5.1 5.1-5.1-2.3-5.1-5.1c-.1-2.8 2.2-5.1 5.1-5.1m0-3c-4.5 0-8.1 3.7-8.1 8.1s3.7 8.1 8.1 8.1c4.5 0 8.1-3.7 8.1-8.1s-3.6-8.1-8.1-8.1z"/><circle class="st13" cx="195.7" cy="111.3" r="2.4"/><circle class="st11" cx="159.3" cy="28.4" r="6.6"/><path class="st12" d="M159.3 23.3c2.8 0 5.1 2.3 5.1 5.1s-2.3 5.1-5.1 5.1-5.1-2.3-5.1-5.1c-.1-2.8 2.2-5.1 5.1-5.1m0-3c-4.5 0-8.1 3.7-8.1 8.1s3.7 8.1 8.1 8.1 8.1-3.7 8.1-8.1-3.6-8.1-8.1-8.1z"/><circle class="st13" cx="159.3" cy="28.4" r="2.4"/><path class="st14" d="M57.3 50.8L38.9 32.4M265.8 12l2.4 23.3 14.7-8.8-1.2 16.5z"/><ellipse transform="rotate(-33.162 265.828 11.97)" class="st15" cx="265.8" cy="12" rx="2.8" ry="2.8"/><ellipse transform="rotate(-33.162 268.17 35.347)" class="st15" cx="268.2" cy="35.3" rx="2.8" ry="2.8"/><ellipse transform="rotate(-33.162 282.873 26.547)" class="st15" cx="282.9" cy="26.5" rx="2.8" ry="2.8"/><ellipse transform="rotate(-33.162 281.757 42.97)" class="st15" cx="281.7" cy="43" rx="2.8" ry="2.8"/><path class="st14" d="M252.7 50.8l15.5-15.5m6.9 94.4L262 148.4l-23.8-23.8"/><ellipse transform="rotate(-72.626 262.032 148.406)" class="st15" cx="262" cy="148.4" rx="2.8" ry="2.8"/><ellipse transform="rotate(-72.626 275.122 129.721)" class="st15" cx="275.1" cy="129.7" rx="2.8" ry="2.8"/><path class="st14" d="M49.6 165.4l18.8-18.7m-46 9.9l27.2 8.8L29 137.8z"/><ellipse transform="rotate(-72.626 22.354 156.57)" class="st15" cx="22.4" cy="156.6" rx="2.8" ry="2.8"/><ellipse transform="rotate(-72.626 49.604 165.445)" class="st15" cx="49.6" cy="165.4" rx="2.8" ry="2.8"/><ellipse transform="rotate(-72.626 28.994 137.812)" class="st15" cx="29" cy="137.8" rx="2.8" ry="2.8"/><path class="st14" d="M7.9 23.5l30 8.4L17.8 10"/><path class="st14" d="M17.8 10l26.3 4.3-6.2 17.6-20.8 8-9.2-16.4z"/><ellipse transform="rotate(-72.626 17.762 9.973)" class="st15" cx="17.8" cy="10" rx="2.8" ry="2.8"/><ellipse transform="rotate(-72.626 7.892 23.518)" class="st15" cx="7.9" cy="23.5" rx="2.8" ry="2.8"/><ellipse transform="rotate(-72.626 37.917 31.865)" class="st15" cx="37.9" cy="31.9" rx="2.8" ry="2.8"/><ellipse transform="rotate(-72.626 17.05 39.874)" class="st15" cx="17.1" cy="39.9" rx="2.8" ry="2.8"/><ellipse transform="rotate(-72.626 44.075 14.276)" class="st15" cx="44.1" cy="14.3" rx="2.8" ry="2.8"/></svg>