<svg id="Layer_1" xmlns="http://www.w3.org/2000/svg" viewBox="0 0 821 716.4"><style>.st0,.st1{fill:none;stroke:#29ff92;stroke-width:1.5;stroke-miterlimit:10}.st1{fill:#141414;stroke:#006fc8}.st2{fill:#fff}.st3,.st4{fill:none;stroke:#006fc8;stroke-width:1.5;stroke-linecap:round;stroke-linejoin:round;stroke-miterlimit:10}.st4{stroke:#005290}.st5{fill:#29ff92}.st6{opacity:.5;fill:url(#SVGID_1_)}.st7{fill:url(#SVGID_2_)}.st7,.st8,.st9{opacity:.5}.st8{fill:url(#SVGID_3_)}.st9{fill:url(#SVGID_4_)}.st10,.st11{opacity:.5;fill:url(#SVGID_5_)}.st11{fill:url(#SVGID_6_)}.st12,.st13{opacity:.5;fill:url(#SVGID_7_)}.st13{fill:url(#SVGID_8_)}.st14{fill:#00bcf2}</style><path class="st0" d="M199.1 109.3v4.3l-4.7 4.7 4.2 4.3 4-3.9 4.2 4.1v8.4h-12.5l-13.7-13.6 8.4-8.3h7.8zm158.4 100h-18.6v-5.4l5.1-5.1h13.5zm-16.2-114l12 12.1v6h11.5l4 4-13.4 13.3v17l-3.1 3.2v6.8l-4.2 4.2v14.7l-3.4 3.4v4.6h-8.3l-9 9h-7l-4.1 4.1h-8.7v8.4l-12.3 12.4H289l-10.9-10.9v-17.9l8.6-8.6-3.8-3.8v-12.6l8.4-8.4v-10.5h-16.2l-5.8-5.8v-9.3l6.7-6.6h8.2l6.3-6.3h8v-4.5l5.1-5.1h10.6v-4l5.2-5.2v-3.7zm-42.9 4.1l-10.8 10.9H278l-16 16v7.3h-6.5v5h-3.2l-6.4-6.4h-5.4l-3 3.1 9 9v3.8h-9.9l-10.5-10.5h-5.8l-5.9-5.9v-7.6h7v6.1h2.6l4.2 4.2 1.9-2-3.8-3.9v-4.7l2.5-2.6v-3.3h-6.3v-5.5l-3.3-3.2v-4.9h10l6 6v12.6l-2.2 2.3v2.9h6.2l4.2-4.2v-4.1l-4.4-4.5v-6l7.8-7.8v-5.3l2.1-2.1h3.3v8.3l3.2-3.2v-7.8h13.2l4.5-4.5h17l4.8 4.8h3.5zm124 23.7h-8.9l-6.6 6.5h-7.6v8l3.6 3.7v9.1h12v-10.3l4.9 4.9 4.7-4.7-6.8-6.8V131h4.8z"/><path class="st0" d="M33.4 222.1h16.5l21-21v-8.6h10.9l7.2-7.2 13 13v28.4l7.7 7.7v11.2l4.5 4.5v7.5l-8.6 8.6v18.5l9.3 9.4v17.7l14.4 14.4v-17.9l6.4 6.4v17l18.1 18h7.8l21.5 21.5h19.2v6.1l-7.1 7.1v19.2l10.3 10.2v11.1l16 16.1v40.8l-4.1 4.1v16.7l6.1 6v21.8l14 14.1 10-10-11.2-11.1 8.5-8.5-6.9-7v-11.5l8.4-8.4h9.1l8.4-8.5v-7.9l8.9-8.8V452l7.9-8h9.6l8.9-8.9v-20.5l5.2-5.2v-7.8L294 391.2h-20.7l-9.5-9.5v-9.1h-11.3l-10.6-10.5h-19.5l-4.9-5h-4.8l-7 7H192V356l-5.8-5.9v-2.6h-6.3v-5.7l5.7-5.7-3.3-3.4h-5.4l-8.5 8.4h-9v-19.3l8.8-8.8H191l3.5 3.4v7.9h6.1V310l14.8-14.8v-6.4l13.4-13.4h4.3v-4H251l3.3-3.3v-3.7h-3.6l-2.5 2.5-3.4-3.4v-5.7l2.6-2.7 2.5 2.5h3.7l6.2-6.2h3.8l-6.5 6.5v6h6.1l3.2 3.2h4.5v-11.8l-3.7-3.7v-9.5l-10.7-10.7v-12.6h-4.7l-4 4h-3.7v-7.4l-8-8h-9.3v11.4l-4.2 4.2v7.6l-4.9 4.9v10.3h-6v-9.3l-9.2-9.1h-3.6l-7.6-7.6v-7.5l17.4-17.5h5.4v5.7h11.2v-5.1l-4-4.1 10.4-10.4v-7.8h7.3l3.6 3.7-5.4 5.4 2.9 2.9 3.8-3.8 2.7 2.8-9.8 9.8H231v4.8h7.6l9.8 9.8 2.1 2.1 9.8-9.7-6.2-6.1 2-2 4.9 4.9 6.5-6.5-8.1-8.1v-6.4l2.7-2.8-13.4-13.3v-8.4h-19.6l-6.8 6.8v11.1l3 3-5.3 5.3-6.2-6.2V159l14.5-14.6h-10.7l-4.2-4.1-8.8 8.8v15.8l-5.9 5.8-4.2-4.2v-17.3l7.4-7.4-3.9-3.9-5.6 5.6h-6.8v-7.6l-9.4-9.4h-6.3l-11.3 11.3v8.8h10.5v4.8l4.6 4.5-5.4 5.4h-8.4l-13.5-13.5h-20.9l-14-14.1v-11.8H87.6l-8.8 8.8H66.9v12.2l-6.5 6.5v10.9l6.6 6.6v5.5H50.3l-8.5 8.5h14.3v6.8l5.3 5.4h-11l-6.6 6.6v8.2l6.6 6.7-4.2 4.2H30.1zm691.3 204.4l8.8 8.7v11.4l7.8 7.9v15.1l-9.5 9.6v7.8l-8.1 8.1h-23.5v-6.8l-9.8-9.9v-8h-12.2l-7.6 7.6h-12.7l-6.3 6.3-7.6-7.6 4.1-4V441l6.2-6.1h11.8l13.2-13.1h5.9l6.2-6.3h12.3l4.1 4.1-3.5 3.6 6.6 6.6h3.5v-14.3zm-8.2 74.6h-4.6v11.7l11.8-11.7zm65.8-15.2v8.2l8.6 8.7-14 14v-4.4l3.9-3.9v-5.8l-5-4.9v-5.4zm-8.3 23.9v8.8l-21 20.9-2.8-2.8 3.9-3.9v-7.5l6.8-6.8h4.4l4.5-4.5zm-31.9-375.2v-4.8l-4.5-4.5h-13.1l-5.4-5.4h-15.2l-2.9 2.9h-5.7v4.2h-8.8l-5.1 5.1-5.8-5.8h-5.7l-5 5-9.8-9.8h-11.6l-6.1 6.1h-8.3v10.6h-7.3l-9.7-9.7h-9.7l-7.2 7.2H582l-6.6 6.6v-15.8l-5.7-5.7h-10l-3.2-3.2H546v13.9h-4.8l-11.9 11.9v7.9h-6.1l-7.7 7.7 5 5v13l-4.3 4.3v-5.9l-3.7-3.7v-7.1l-5.3-5.3v-6.1h-6v10.1l3.6 3.6v9.8h-8.3l-3.9-3.9-2.4 2.4 5.2 5.2v2.9h-16.6l-9.1 9.1v-7.9h-4.2v8.5l-9.7 9.7-9.1-9.1 2.8-2.8 5.5 5.5 4.3-4.4-14.5-14.5H432l-4.8 4.8H417l-7 7v15l-6.3 6.3h-6.4l-4.4 4.4v13.9l3.7 3.7 3.5-3.5h10.3l4.1 4.1-4 4v3.8l8.8-8.8v-14.6l6.9-6.9 2.5 2.5-3.3 3.3v6.3h9.1v9.7l-6.7 6.7h-4l-4.9 4.9h-11v-7l-3.3-3.3-2.4 2.4v9.9l-4.9 4.9h-5.7L377.2 265l3.3 3.3v6.3l-5.6 5.6-3.5-3.5h-7.5v12.7l5.4 5.4v3.6l-6.6 6.6v4.9l-15.2 15.2v13.6l-4 4v10.6l5.8 5.8v3.8l15.5 15.5 4.2-4.2h11.5l4.7 4.7h9.1l4.1-4.1h10.8v8.8l-4.8 4.8v5.3l10 10v11.9l-6.2 6.2v8.8l4.3 4.3v18.5l9.5 9.5v12.8h5.7l4.4-4.4h9.6l27.1-27.1v-10.8l12.4-12.4v-7.4l-6.3-6.3v-7.4l11-11v-7.5l20.7-20.7v-4.9l-4.2 4.2H486l-11.1-11.1v-3.1l-8-8v-7.1l-5.1-5.1 4.3-4.3 7.1 7.1v6.5l7.5 7.5v7l7.2 7.2h8.6l12.8-12.8h6.1l8.3-8.3-6.4-6.4h-5l-2.9-2.9h-5.9l-5.3-5.3v-5.3h2.3l4 4h6.7l7.4 7.4h16.2l4.8 4.8h5.5l7.2 7.2v9l8.5 8.5v7.7l3.9 3.9h3.5l4-4v-13.3l8.4-8.4h3.4l7.9-7.9h8.9v6.8l8.4 8.4h5.3v15.7l6.3 6.3v5.1l6.2 6.2v3.1l3.7 3.7V376l-11.1-11.1v-4.4l3.9-3.9 10.1 10.1 6.1-6.1v-10.2l-6.3-6.3v-4.9l4.1-4.1 2.1 2.1v5.4h5.7v-4.7l5.3-5.3h7.2l8.2-8.2v-8.1l-2.6-2.6V303l-7.3-7.3 8-8-3.9-3.9-9.7 9.7v-9.9l6.6-6.6 3.3 3.3h4.5l9.2 9.2-3.5 3.5 3.5 3.5 6.9-6.9-7.3-7.3v-5.8l8.9-8.9v-7.8l6.8-6.8v-13.5l2.9-2.9v8.8l5.8 5.8 3.2-3.2-4.9-4.9v-11.9l-4.5-4.5v-6.9l-7-7-3.2 3.2 7.3 7.3-2 2-6.7-6.7h-13.5l9.5-9.5v-6.6l7.5-7.5h11.6l4.9-4.9v-8.6h5.8l5.1-5.1h3.4v21.2l-5.9 5.9 5.4 5.4v11.6l9.8 9.8 4.9-4.9v-11.9l-3.4-3.4v-19.8l-3.4-3.4V179l.5-.5 14.1-14.1h4.7v-6.1l-7.4-7.4v-16.3h8.2zM461.7 309.2h-23.8l-3.9-3.9h-7.7v6.1l-5.1 5.1-14.7-14.7 1.7-1.7v-5.9h-22.5l-6.9 6.9H373v-9.4l.6-.6 3.4-3.4h8.7l9.5-9.5h9.8l9.3 9.3h4.3v2.6h-3.3l-1.8 1.8 4.1 4.1h4.6v-11l-10.7-11 3-3 12.1 12.1v6.8l5.7 5.7h5.8v-3.9l-3.3-3.3V286h6.6v7.1l4.4 4.4h18.5l4.7 4.7-7.3 7zm6.2-26.3l-4.7-4.7h-7.3l-3.7 3.7h-4.5v-8.3l4.8-4.8 4.3 4.5h9.5l6.4 6.4-4.8 3.2zm35.8 10.2h-8.3v-7l-6.9-6.9v-13.1h7.9l2.1 2.1-4.3 4.3 9.5 9.5v11.1z"/><path class="st0" d="M369.3 227.1h7.7v8.5l11.4 11.4-12.4 12.4h-6.5l5.2-5.1-2.5-2.4 5.6-5.6-2.7-2.6-5.8-5.8v-8.3z"/><path class="st0" d="M368.2 240.9l3.7 3.8-3.5 3.5v2.6h-6.2v-4.6l5.6-5.6zM491 134.8h4.5v6.3l-7.3 7.3v4.9l-5.6 5.5v8.2l5.1 5.1-3.5 3.5-9.7-9.6v-6.9l3.7-3.7v-6.8l8.3-8.2v-5.6zm24.2-39h6.2v1.8l7.6 7.6h4.9v8.7h-8.5l-8.2-8.2h-2zm90.2 16.1l5.5 5.5h8.4l5.4-5.3v-4.9h-5.3l-2.6-2.6h-11.4zm94.7 143l4.3 4.3h5.9l-6.4 6.4h-3.3v5l5.4 5.4v13.2l-7.6 7.6h-5.5l-7.4 7.4h-3.7v-4.4l10.2-10.2h3.6v-4.2l2.4-2.4v-15.7l-2.3-2.2v-3l2.5-2.5v-4.7zm-204 165.6l-8.6 8.5h-3.1v7h3.9l-5.9 5.9v6.4h11.7l5.1-5.1v-9.4l4.1-4.1v-7.8l-7.2-7.2zm81.5-57.8l-5.5 5.6v4.8h5.5zm29.9 17.8l9.5 9.5v6.7l15.6 15.6v-11.8l3.2-3.2-3.6-3.6-2 1.9-7.7-7.7v-2.8l-15-15zm29.3 24.3l3.2 3.2h14.9l2.9 2.9h16.3v-2.5h-12.9l-3.5-3.6h-10l-4-4h-6.9v1.7zm23.4-34.8l3.7 3.7v5.5L661 382v2.5l1.7 1.7v5.7l-6.2 6.3H652l-2.8-2.9h-4.9l-5.7-5.7v-5.8h7.9l13.2-13.2zm5.4-26.1v10.9h6v3.3l2.8 2.7v8.1l3.8 3.8h4v-10.3l-4.2-4.1v-3.5l-6.1-6.2v-6l-2.2-2.2h-4.1zm36.7 48.9h3.7l2-2h7.2l5.1 5.1h7.3l5.3 5.4v6.1l3.4 3.3h4.6l-2.9 2.9h-4.9l-5.9-6h-5l-4.9 4.9-5.1-5.1v-3.7l-3.4-3.3h-7.5l-4-4.1v-2.6l-3-3 3-2.9z"/><path class="st1" d="M115.3 276.1c-5.5 0-10-4.5-10-10s4.5-10 10-10 10 4.5 10 10-4.4 10-10 10z"/><circle class="st2" cx="115.3" cy="266.1" r="5.6"/><path class="st1" d="M206.9 263.9c-5.5 0-10-4.5-10-10s4.5-10 10-10 10 4.5 10 10-4.5 10-10 10z"/><circle class="st2" cx="206.9" cy="253.9" r="5.6"/><path class="st1" d="M228.3 257c-5.5 0-10-4.5-10-10s4.5-10 10-10 10 4.5 10 10-4.5 10-10 10z"/><circle class="st2" cx="228.3" cy="247" r="5.6"/><path class="st1" d="M248.3 241.8c-5.5 0-10-4.5-10-10s4.5-10 10-10 10 4.5 10 10-4.5 10-10 10z"/><circle class="st2" cx="248.3" cy="231.8" r="5.6"/><path class="st1" d="M370.8 250.6c-5.5 0-10-4.5-10-10s4.5-10 10-10 10 4.5 10 10-4.5 10-10 10z"/><circle class="st2" cx="370.8" cy="240.6" r="5.6"/><path class="st1" d="M412.6 258.6c-5.5 0-10-4.5-10-10s4.5-10 10-10 10 4.5 10 10-4.5 10-10 10z"/><circle class="st2" cx="412.6" cy="248.6" r="5.6"/><path class="st1" d="M433.2 264.2c-5.5 0-10-4.5-10-10s4.5-10 10-10 10 4.5 10 10-4.5 10-10 10z"/><circle class="st2" cx="433.2" cy="254.2" r="5.6"/><path class="st1" d="M551.7 330.3c-5.5 0-10-4.5-10-10s4.5-10 10-10 10 4.5 10 10-4.5 10-10 10z"/><circle class="st2" cx="551.7" cy="320.3" r="5.6"/><path class="st1" d="M570.8 352.6c-5.5 0-10-4.5-10-10s4.5-10 10-10 10 4.5 10 10-4.5 10-10 10z"/><circle class="st2" cx="570.8" cy="342.6" r="5.6"/><path class="st1" d="M629 386.5c-5.5 0-10-4.5-10-10s4.5-10 10-10 10 4.5 10 10-4.5 10-10 10z"/><circle class="st2" cx="629" cy="376.5" r="5.6"/><path class="st1" d="M568.2 336c-5.5 0-10-4.5-10-10s4.5-10 10-10 10 4.5 10 10-4.5 10-10 10z"/><circle class="st2" cx="568.2" cy="326" r="5.6"/><path class="st1" d="M703.4 273.1c-5.5 0-10-4.5-10-10s4.5-10 10-10 10 4.5 10 10-4.5 10-10 10z"/><circle class="st2" cx="703.4" cy="263.1" r="5.6"/><path class="st1" d="M702.3 297c-5.5 0-10-4.5-10-10s4.5-10 10-10 10 4.5 10 10-4.5 10-10 10z"/><circle class="st2" cx="702.3" cy="287" r="5.6"/><path class="st1" d="M674.8 298.5c-5.5 0-10-4.5-10-10s4.5-10 10-10 10 4.5 10 10-4.5 10-10 10z"/><circle class="st2" cx="674.8" cy="288.5" r="5.6"/><path class="st1" d="M629 294.1c-5.5 0-10-4.5-10-10s4.5-10 10-10 10 4.5 10 10-4.5 10-10 10z"/><circle class="st2" cx="629" cy="284.1" r="5.6"/><path class="st1" d="M653.7 322.8c-5.5 0-10-4.5-10-10s4.5-10 10-10 10 4.5 10 10-4.5 10-10 10z"/><circle class="st2" cx="653.7" cy="312.8" r="5.6"/><path class="st1" d="M633.5 340.9c-5.5 0-10-4.5-10-10s4.5-10 10-10 10 4.5 10 10-4.5 10-10 10z"/><circle class="st2" cx="633.5" cy="330.9" r="5.6"/><path class="st1" d="M666.8 281.4c-5.5 0-10-4.5-10-10s4.5-10 10-10 10 4.5 10 10-4.5 10-10 10z"/><circle class="st2" cx="666.8" cy="271.4" r="5.6"/><path class="st1" d="M417 276.7c-5.5 0-10-4.5-10-10s4.5-10 10-10 10 4.5 10 10c0 5.6-4.5 10-10 10z"/><circle class="st2" cx="417" cy="266.7" r="5.6"/><path class="st1" d="M461.1 430.7c-5.5 0-10-4.5-10-10s4.5-10 10-10 10 4.5 10 10-4.5 10-10 10z"/><circle class="st2" cx="461.1" cy="420.7" r="5.6"/><path class="st1" d="M733.7 475.3c-5.5 0-10-4.5-10-10s4.5-10 10-10 10 4.5 10 10c0 5.6-4.5 10-10 10z"/><circle class="st2" cx="733.7" cy="465.3" r="5.6"/><path class="st1" d="M722.8 495.9c-5.5 0-10-4.5-10-10s4.5-10 10-10 10 4.5 10 10c0 5.6-4.5 10-10 10z"/><circle class="st2" cx="722.8" cy="485.9" r="5.6"/><path class="st1" d="M223.8 277c-5.5 0-10-4.5-10-10s4.5-10 10-10 10 4.5 10 10-4.4 10-10 10z"/><circle class="st2" cx="223.8" cy="267" r="5.6"/><path class="st1" d="M209.9 291.6c-5.5 0-10-4.5-10-10s4.5-10 10-10 10 4.5 10 10-4.5 10-10 10z"/><circle class="st2" cx="209.9" cy="281.6" r="5.6"/><path class="st1" d="M179.2 313.9c-5.5 0-10-4.5-10-10s4.5-10 10-10 10 4.5 10 10-4.5 10-10 10z"/><circle class="st2" cx="179.2" cy="303.9" r="5.6"/><path class="st1" d="M189.3 273.9c-5.5 0-10-4.5-10-10s4.5-10 10-10 10 4.5 10 10-4.5 10-10 10z"/><circle class="st2" cx="189.3" cy="263.9" r="5.6"/><path class="st1" d="M189.3 253.8c-5.5 0-10-4.5-10-10s4.5-10 10-10 10 4.5 10 10-4.5 10-10 10z"/><circle class="st2" cx="189.3" cy="243.8" r="5.6"/><path class="st1" d="M122.5 294.7c-5.5 0-10-4.5-10-10s4.5-10 10-10 10 4.5 10 10-4.5 10-10 10z"/><circle class="st2" cx="122.5" cy="284.7" r="5.6"/><path class="st1" d="M264.2 455.7c-5.5 0-10-4.5-10-10s4.5-10 10-10 10 4.5 10 10-4.4 10-10 10z"/><circle class="st2" cx="264.2" cy="445.7" r="5.6"/><path class="st3" d="M22.2 642.4c1.1-2.9 2.1-5.8 3.2-8.7m9 12.6c1-2.9 2.1-5.8 3.1-8.7m9.1 12.5l3-8.7m9.3 12.3c1-2.9 1.9-5.9 2.9-8.8m9.4 12.3c.9-2.9 1.9-5.9 2.8-8.8m9.5 12.2c.9-2.9 1.8-5.9 2.7-8.8m9.6 12.1c.9-3 1.7-5.9 2.6-8.9m9.8 12c.8-3 1.7-5.9 2.5-8.9m9.9 11.9c.8-3 1.6-5.9 2.4-8.9m10 11.8c.8-3 1.5-6 2.3-8.9m10.2 11.7c.7-3 1.5-6 2.2-9m10.2 11.6l2.1-9m10.4 11.5c.7-3 1.3-6 2-9m10.5 11.3c.6-3 1.3-6 1.9-9m10.7 11.3l1.8-9m10.7 11.1c.6-3 1.1-6 1.7-9.1m10.9 11.1c.5-3 1-6 1.6-9.1m11 10.9c.5-3 1-6.1 1.5-9.1m11.1 10.9c.5-3 .9-6.1 1.4-9.1m11.2 10.7c.4-3 .8-6.1 1.3-9.1m11.3 10.5c.4-3 .8-6.1 1.2-9.1m11.5 10.5c.3-3 .7-6.1 1-9.1m11.6 10.3c.3-3 .6-6.1.9-9.1m11.8 10.2c.3-3.1.6-6.1.8-9.2m11.8 10.1c.2-3.1.5-6.1.7-9.2m12 10.1c.2-3.1.4-6.1.6-9.2m12.1 9.9c.2-3.1.3-6.1.5-9.2m12.2 9.8c.1-3.1.3-6.1.4-9.2m12.3 9.6c.1-3.1.2-6.1.3-9.2m12.4 9.5c.1-3.1.1-6.1.2-9.2m12.5 9.4c0-3.1.1-6.1.1-9.2m12.6 9.3v-9.2m12.7 9.1c0-3.1-.1-6.1-.1-9.2m12.8 9c-.1-3.1-.1-6.1-.2-9.2m12.9 8.9c-.1-3.1-.2-6.1-.3-9.2m13 8.8c-.1-3.1-.3-6.1-.4-9.2m13.1 8.6c-.2-3.1-.3-6.1-.5-9.2m13.2 8.5c-.2-3.1-.4-6.1-.6-9.2m13.3 8.3c-.2-3.1-.5-6.1-.7-9.2m13.3 8.3c-.3-3.1-.6-6.1-.8-9.2m13.5 8.1c-.3-3-.6-6.1-.9-9.1m13.5 7.9c-.3-3-.7-6.1-1-9.1m13.7 7.7c-.4-3-.8-6.1-1.2-9.1m13.8 7.7c-.4-3-.8-6.1-1.3-9.1m13.9 7.5c-.5-3-.9-6.1-1.4-9.1m14 7.3c-.5-3-1-6.1-1.5-9.1m14.1 7.3c-.5-3-1-6-1.6-9.1m14.2 7.1c-.6-3-1.1-6-1.7-9.1m14.2 7l-1.8-9m14.4 6.7c-.6-3-1.3-6-1.9-9m14.4 6.7c-.7-3-1.3-6-2-9m14.5 6.5l-2.1-9m14.5 6.4c-.7-3-1.5-6-2.2-9m14.7 6.2c-.8-3-1.5-6-2.3-8.9m14.7 6c-.8-3-1.6-5.9-2.4-8.9m14.8 5.9c-.8-3-1.7-5.9-2.5-8.9m14.9 5.8c-.9-3-1.7-5.9-2.6-8.9m14.9 5.6c-.9-2.9-1.8-5.9-2.7-8.8m15 5.4c-.9-2.9-1.9-5.9-2.8-8.8m15.1 5.3c-1-2.9-1.9-5.9-2.9-8.8m15.2 5.2l-3-8.7m15.2 4.9c-1-2.9-2.1-5.8-3.1-8.7m15.3 4.8c-1.1-2.9-2.1-5.8-3.2-8.7"/><path class="st3" d="M17.9 617.8c-2.6 6.9-5.2 13.7-7.9 20.6 258.8 87.4 542 87.4 800.8 0-2.6-6.9-5.2-13.7-7.9-20.6M798.8 74c-1.1 2.9-2.1 5.8-3.2 8.7m-9-12.6c-1 2.9-2.1 5.8-3.1 8.7m-9.1-12.4l-3 8.7m-9.3-12.4c-1 2.9-1.9 5.9-2.9 8.8m-9.4-12.3c-.9 2.9-1.9 5.9-2.8 8.8m-9.5-12.2c-.9 2.9-1.8 5.9-2.7 8.8m-9.6-12.1c-.9 3-1.7 5.9-2.6 8.9m-9.8-12c-.8 3-1.7 5.9-2.5 8.9m-9.9-11.9c-.8 3-1.6 5.9-2.4 8.9m-10-11.8c-.8 3-1.5 6-2.3 8.9m-10.2-11.6c-.7 3-1.5 6-2.2 9m-10.2-11.6l-2.1 9m-10.4-11.5c-.7 3-1.3 6-2 9m-10.5-11.4c-.6 3-1.3 6-1.9 9m-10.7-11.2l-1.8 9M613 28.9c-.6 3-1.1 6-1.7 9.1m-10.9-11c-.5 3-1 6-1.6 9.1m-11-11c-.5 3-1 6.1-1.5 9.1m-11.1-10.8c-.5 3-.9 6.1-1.4 9.1m-11.2-10.7c-.4 3-.8 6.1-1.3 9.1M550 20.3c-.4 3-.8 6.1-1.2 9.1M537.3 19c-.3 3-.7 6.1-1 9.1m-11.6-10.4c-.3 3-.6 6.1-.9 9.1M512 16.7c-.3 3.1-.6 6.1-.8 9.2m-11.8-10.2c-.2 3.1-.5 6.1-.7 9.2m-12-10c-.2 3.1-.4 6.1-.6 9.2M474 14.2c-.2 3.1-.3 6.1-.5 9.2m-12.2-9.8c-.1 3.1-.3 6.1-.4 9.2m-12.3-9.7c-.1 3.1-.2 6.1-.3 9.2m-12.4-9.5c-.1 3.1-.1 6.1-.2 9.2m-12.5-9.4c0 3.1-.1 6.1-.1 9.2m-12.6-9.2v9.2m-12.7-9.2c0 3.1.1 6.1.1 9.2m-12.8-9c.1 3.1.1 6.1.2 9.2m-12.9-8.9c.1 3.1.2 6.1.3 9.2m-13-8.7c.1 3.1.3 6.1.4 9.2M347 14.2c.2 3.1.3 6.1.5 9.2m-13.2-8.5c.2 3.1.4 6.1.6 9.2m-13.3-8.4c.2 3.1.5 6.1.7 9.2M309 16.7c.3 3.1.6 6.1.8 9.2m-13.5-8.2c.3 3 .6 6.1.9 9.1M283.7 19c.3 3 .7 6.1 1 9.1M271 20.3c.4 3 .8 6.1 1.2 9.1m-13.8-7.6c.4 3 .8 6.1 1.3 9.1m-13.9-7.5c.5 3 .9 6.1 1.4 9.1m-14-7.4c.5 3 1 6.1 1.5 9.1M220.6 27c.5 3 1 6 1.6 9.1M208 28.9c.6 3 1.1 6 1.7 9.1m-14.2-6.9l1.8 9m-14.4-6.8c.6 3 1.3 6 1.9 9m-14.4-6.6c.7 3 1.3 6 2 9m-14.5-6.5l2.1 9m-14.5-6.4c.7 3 1.5 6 2.2 9M133 43.5c.8 3 1.5 6 2.3 8.9m-14.7-6c.8 3 1.6 5.9 2.4 8.9m-14.8-5.9c.8 3 1.7 5.9 2.5 8.9m-14.9-5.8c.9 3 1.7 5.9 2.6 8.9m-14.9-5.6c.9 2.9 1.8 5.9 2.7 8.8m-15-5.4c.9 2.9 1.9 5.9 2.8 8.8m-15.1-5.3c1 2.9 1.9 5.9 2.9 8.8m-15.2-5.1l3 8.7m-15.2-5c1 2.9 2.1 5.8 3.1 8.7M22.2 74c1.1 2.9 2.1 5.8 3.2 8.7"/><path class="st3" d="M803.1 98.6c2.6-6.9 5.2-13.7 7.9-20.6C552.2-9.4 269-9.4 10.2 78c2.6 6.9 5.2 13.7 7.9 20.6"/><path transform="rotate(-134.999 15.98 571.884)" class="st4" d="M11.8 567.7h8.3v8.3h-8.3z"/><path transform="rotate(134.999 15.982 571.884)" class="st5" d="M14.8 570.7h2.3v2.3h-2.3z"/><path transform="rotate(-134.999 15.98 554.863)" class="st4" d="M11.8 550.7h8.3v8.3h-8.3z"/><path transform="rotate(134.999 15.982 554.863)" class="st5" d="M14.8 553.7h2.3v2.3h-2.3z"/><path transform="rotate(-134.999 15.98 537.842)" class="st4" d="M11.8 533.7h8.3v8.3h-8.3z"/><path transform="rotate(134.996 15.98 537.806)" class="st5" d="M14.8 536.7h2.3v2.3h-2.3z"/><path transform="rotate(-134.999 15.98 520.821)" class="st4" d="M11.8 516.7h8.3v8.3h-8.3z"/><path transform="rotate(134.999 15.982 520.821)" class="st5" d="M14.8 519.7h2.3v2.3h-2.3z"/><path transform="rotate(-134.999 15.98 503.8)" class="st4" d="M11.8 499.6h8.3v8.3h-8.3z"/><path transform="rotate(134.996 15.98 503.767)" class="st5" d="M14.8 502.6h2.3v2.3h-2.3z"/><path class="st4" d="M21.9 571.9h21.4m-21.4-17h70.6m-70.6-17.1h19.4m-19.4-17h54.7m-54.7-17h21.4"/><path class="st2" d="M34 500.2H22.6l-2-2H34c.6 0 1 .4 1 1s-.4 1-1 1zm24 6.8H22.6l-2 2H58c.6 0 1-.4 1-1s-.4-1-1-1zm-24 27.5H22.6l-2-2H34c.6 0 1 .4 1 1 0 .5-.4 1-1 1zm-6.4 6.7h-5l-2 2h7c.6 0 1-.4 1-1 0-.5-.4-1-1-1zm19.7 10.3H22.6l-2-2h26.8c.6 0 1 .4 1 1-.1.5-.5 1-1.1 1zm26.8 6.7H22.6l-2 2h53.5c.6 0 1-.4 1-1 0-.5-.5-1-1-1zm-40.1 10H22.6l-2-2H34c.6 0 1 .4 1 1s-.4 1-1 1zm-4.8 6.8h-6.6l-2 2h8.6c.6 0 1-.4 1-1s-.4-1-1-1zm15.3-57.6H22.6l-2-2h23.9c.6 0 1 .4 1 1s-.5 1-1 1zm-13.4 6.8h-8.5l-2 2h10.5c.6 0 1-.4 1-1s-.5-1-1-1z"/><path transform="rotate(90 804.62 166.52)" class="st4" d="M776.8 160.2h55.7v12.6h-55.7z"/><path class="st2" d="M802 190.9h5.2v-39l-5.2 6zm0 11.7h5.3v19.7H802z"/><path class="st5" d="M802 242.5h5.3v8.1H802z"/><path class="st4" d="M798.3 206.6h12.6m-12.6-7.9h12.6m-12.6 15.9h12.6m-12.6 7.9h12.6m-12.6 8h12.6m-12.6 8h12.6m-12.6 7.9h12.6m-12.6 8h12.6m-12.6-55.7h12.6v55.7h-12.6z"/><path transform="rotate(-45.001 144.839 297.142)" class="st1" d="M137.8 290.1h14.1v14.1h-14.1z"/><path class="st2" d="M144.8 302.1l3.5-3.5h-6.9zm0-9.9l-3.4 3.5h6.9z"/><path transform="rotate(-45.001 397.944 282.932)" class="st1" d="M390.9 275.9H405V290h-14.1z"/><path class="st2" d="M397.9 287.9l3.5-3.5h-6.9zm0-9.9l-3.4 3.4h6.9z"/><path class="st4" d="M49.3 491H16v-77.6h18.4c8.2 0 14.9 6.7 14.9 14.9"/><path class="st2" d="M20.6 439.8h4.1V488h-4.1zm6.3-18.9H31V488h-4.1zm6.4 20.9h4.1V488h-4.1zm6.3 29.2h4.1v16.9h-4.1z"/><path class="st5" d="M20.6 431.9h4.1v17.9h-4.1zm6.3-11H31v38.9h-4.1zm6.4 20.9h4.1v5.8h-4.1zm6.3 29.2h4.1v2.9h-4.1z"/><path class="st1" d="M152.9 279.7c-5.5 0-10-4.5-10-10s4.5-10 10-10 10 4.5 10 10-4.5 10-10 10z"/><circle class="st2" cx="152.9" cy="269.7" r="5.6"/><path transform="rotate(-45.001 159.351 312.699)" class="st1" d="M152.3 305.6h14.1v14.1h-14.1z"/><path class="st2" d="M159.4 317.7l3.4-3.5h-6.9zm0-10l-3.5 3.5h6.9z"/><path class="st1" d="M375.2 268.8c-5.5 0-10-4.5-10-10s4.5-10 10-10 10 4.5 10 10-4.5 10-10 10z"/><circle class="st2" cx="375.2" cy="258.8" r="5.6"/><path transform="rotate(-45.001 391.43 266.515)" class="st1" d="M384.4 259.4h14.1v14.1h-14.1z"/><path class="st2" d="M391.4 271.5l3.5-3.5h-7zm0-10l-3.5 3.5h7z"/><path class="st1" d="M388.4 256.9c-5.5 0-10-4.5-10-10s4.5-10 10-10 10 4.5 10 10-4.4 10-10 10z"/><circle class="st2" cx="388.4" cy="246.9" r="5.6"/><path transform="rotate(45.001 325.684 592.556)" class="st1" d="M319.7 586.6h11.9v11.9h-11.9z"/><path class="st2" d="M325.7 596.7l2.9-2.9h-5.9zm0-8.3l-3 2.9h5.9z"/><circle class="st1" cx="325.7" cy="567.3" r="6.8"/><circle class="st2" cx="325.7" cy="567.3" r="3.8"/><path class="st2" d="M352.6 572.2c-.7.3-2 .6-3.5.6-1.8 0-3.2-.5-4.2-1.4-1-.9-1.5-2.3-1.5-4 0-3.4 2.4-5.6 6-5.6 1.3 0 2.4.3 2.9.5l-.4 1.6c-.6-.3-1.3-.5-2.4-.5-2.3 0-3.9 1.4-3.9 3.9 0 2.4 1.5 3.9 3.7 3.9.7 0 1.2-.1 1.5-.2v-2.7h-1.9v-1.6h3.8v5.5zm8-4.3h-4.1v3.2h4.5v1.6h-6.5v-10.8h6.3v1.6h-4.3v2.8h4.1v1.6zm2.3 4.8v-10.8h2.2l2.8 4.6c.7 1.2 1.3 2.4 1.8 3.6-.1-1.4-.2-2.8-.2-4.5v-3.8h1.8v10.8h-2l-2.8-4.7c-.7-1.2-1.4-2.5-1.9-3.7.1 1.4.1 2.8.1 4.6v3.9h-1.8zm16.8-4.8h-4.1v3.2h4.5v1.6h-6.5v-10.8h6.3v1.6h-4.3v2.8h4.1v1.6zm2.2-5.9c.7-.1 1.8-.2 3-.2 1.6 0 2.6.3 3.3.9.6.5.9 1.2.9 2.2 0 1.4-.9 2.3-2 2.7.8.3 1.2 1 1.5 2.1.3 1.3.6 2.6.8 3h-2c-.2-.3-.4-1.2-.7-2.5-.3-1.4-.8-1.9-1.9-1.9h-1v4.4h-2V562zm2 4.8h1.2c1.3 0 2.2-.7 2.2-1.8 0-1.2-.8-1.7-2.1-1.7-.6 0-1 0-1.2.1v3.4zm9.4 2.8l-.9 3.1h-2l3.5-10.8h2.5l3.5 10.8h-2.1l-1-3.1h-3.5zm3.1-1.5l-.8-2.7c-.2-.7-.4-1.4-.5-2-.2.6-.3 1.4-.5 2l-.8 2.7h2.6zm4.9-6.2h2v9.1h4.4v1.6h-6.4v-10.7zm7.9 0h2v9.1h4.4v1.6h-6.4v-10.7zm8.9 10.8v-4.5l-3.4-6.3h2.2l1.3 2.8c.4.8.6 1.4.9 2.1l.9-2.1 1.3-2.8h2.2l-3.6 6.2v4.5h-1.8zm12.3-3.1l-.9 3.1h-2l3.5-10.8h2.5l3.5 10.8h-2.1l-1-3.1h-3.5zm3-1.5l-.8-2.7c-.2-.7-.4-1.4-.5-2-.2.6-.3 1.4-.5 2l-.8 2.7h2.6zm6.5 4.6l-3.5-10.8h2.1l1.5 4.9c.4 1.4.8 2.6 1.1 3.9.3-1.3.7-2.6 1.1-3.9l1.6-4.9h2.1l-3.7 10.8h-2.3zm8.5-3.1l-.9 3.1h-2l3.5-10.8h2.5l3.5 10.8h-2.1l-1-3.1h-3.5zm3-1.5l-.8-2.7c-.2-.7-.4-1.4-.5-2-.2.6-.3 1.4-.5 2l-.8 2.7h2.6zm6.9-6.2v10.8h-2v-10.8h2zm2.3 0h2v9.1h4.4v1.6h-6.4v-10.7zm10.1 7.7l-.9 3.1h-2l3.5-10.8h2.5l3.5 10.8h-2.1l-1-3.1h-3.5zm3.1-1.5l-.8-2.7c-.2-.7-.4-1.4-.5-2-.2.6-.3 1.4-.5 2l-.8 2.7h2.6zm4.9-6.1c.6-.1 1.8-.2 2.9-.2 1.5 0 2.4.2 3.1.7.7.4 1.1 1.1 1.1 2 0 1-.6 1.9-1.8 2.3 1.1.3 2.2 1.2 2.2 2.7 0 1-.4 1.7-1 2.2-.8.7-2 1-4 1-1.1 0-1.9-.1-2.4-.1V562zm2 4.3h1c1.4 0 2.1-.6 2.1-1.6s-.8-1.5-2-1.5c-.6 0-.9 0-1.1.1v3zm0 4.9h1c1.3 0 2.4-.5 2.4-1.8 0-1.2-1.1-1.8-2.4-1.8h-1v3.6zm7.2-9.3h2v9.1h4.4v1.6h-6.4v-10.7zm14 6h-4.1v3.2h4.5v1.6h-6.5v-10.8h6.3v1.6h-4.3v2.8h4.1v1.6zm-150.2 29.7c-.5.2-1.5.5-2.8.5-3.4 0-5.5-2.1-5.5-5.4 0-3.6 2.5-5.7 5.8-5.7 1.3 0 2.2.3 2.6.5l-.4 1.6c-.5-.2-1.2-.4-2.1-.4-2.2 0-3.8 1.4-3.8 4 0 2.4 1.4 3.9 3.8 3.9.8 0 1.6-.2 2.1-.4l.3 1.4zm10.8-5.2c0 3.6-2.2 5.7-5.2 5.7s-5-2.3-5-5.5c0-3.3 2.1-5.7 5.1-5.7 3.3.1 5.1 2.4 5.1 5.5zm-8 .2c0 2.2 1.1 3.9 3 3.9s3-1.8 3-4c0-2-1-4-3-4s-3 1.8-3 4.1zm18.8.9c-.1-1.4-.1-3.1-.1-4.5-.4 1.3-.8 2.8-1.3 4.1l-1.6 4.7h-1.5l-1.4-4.6c-.4-1.4-.8-2.8-1.1-4.2 0 1.4-.1 3.1-.2 4.6l-.2 4.3h-1.8l.7-10.8h2.6l1.4 4.3c.4 1.3.7 2.5 1 3.7.3-1.2.7-2.5 1.1-3.8l1.5-4.3h2.6l.6 10.8h-1.9l-.4-4.3zm6.1-6.4v10.8h-2v-10.8h2zm2.3 10.8v-10.8h2.2l2.8 4.6c.7 1.2 1.3 2.4 1.8 3.6-.1-1.4-.2-2.8-.2-4.5V587h1.8v10.8h-2l-2.8-4.7c-.7-1.2-1.4-2.5-1.9-3.7.1 1.4.1 2.8.1 4.6v3.9h-1.8zm19.4-.5c-.7.3-2 .6-3.5.6-1.8 0-3.2-.5-4.2-1.4-1-.9-1.5-2.3-1.5-4 0-3.4 2.4-5.6 6-5.6 1.3 0 2.4.3 2.9.5l-.4 1.6c-.6-.3-1.3-.5-2.4-.5-2.3 0-3.9 1.4-3.9 3.9 0 2.4 1.5 3.9 3.7 3.9.7 0 1.2-.1 1.5-.2v-2.7h-1.9V592h3.8v5.4zm5.3-1.6c.6.4 1.6.7 2.6.7 1.3 0 2-.6 2-1.5 0-.8-.5-1.3-1.9-1.8-1.8-.6-2.9-1.6-2.9-3.1 0-1.8 1.5-3.1 3.8-3.1 1.2 0 2 .3 2.6.5l-.5 1.6c-.4-.2-1.1-.5-2.1-.5-1.2 0-1.8.7-1.8 1.3 0 .8.6 1.2 2.1 1.8 1.9.7 2.8 1.6 2.8 3.2 0 1.7-1.3 3.2-4.1 3.2-1.1 0-2.3-.3-2.9-.7l.3-1.6zm17.9-3.4c0 3.6-2.2 5.7-5.2 5.7s-5-2.3-5-5.5c0-3.3 2.1-5.7 5.1-5.7 3.3.1 5.1 2.4 5.1 5.5zm-8 .2c0 2.2 1.1 3.9 3 3.9s3-1.8 3-4c0-2-1-4-3-4s-3 1.8-3 4.1zm19.3-.2c0 3.6-2.2 5.7-5.2 5.7s-5-2.3-5-5.5c0-3.3 2.1-5.7 5.1-5.7 3.2.1 5.1 2.4 5.1 5.5zm-8.1.2c0 2.2 1.1 3.9 3 3.9s3-1.8 3-4c0-2-1-4-3-4-1.9 0-3 1.8-3 4.1zm9.8 5.3v-10.8h2.2l2.8 4.6c.7 1.2 1.3 2.4 1.8 3.6-.1-1.4-.2-2.8-.2-4.5V587h1.8v10.8h-2l-2.8-4.7c-.7-1.2-1.4-2.5-1.9-3.7.1 1.4.1 2.8.1 4.6v3.9h-1.8zm-84.2 20.9c-.1-1.4-.1-3.1-.1-4.5-.4 1.3-.8 2.8-1.3 4.1L350 623h-1.5l-1.4-4.6c-.4-1.4-.8-2.8-1.1-4.2 0 1.4-.1 3.1-.2 4.6l-.2 4.3h-1.8l.7-10.8h2.6l1.4 4.3c.4 1.3.7 2.5 1 3.7.3-1.2.7-2.5 1.1-3.8l1.5-4.3h2.6l.6 10.8h-1.9l-.3-4.2zm6-6.4v6.3c0 2.1.9 3.1 2.2 3.1 1.4 0 2.3-1 2.3-3.1v-6.3h2v6.2c0 3.3-1.7 4.8-4.3 4.8-2.5 0-4.1-1.4-4.1-4.8v-6.2h1.9zm8.7 0h2v9.1h4.4v1.6h-6.4v-10.7zm8.4 1.6h-3.1v-1.6h8.1v1.6h-3.1v9.1h-2V614zm8.3-1.6v10.8h-2v-10.8h2zm5.7 4.6v1.4h-4.1V617h4.1zm9.4 5.9c-.5.2-1.5.5-2.8.5-3.4 0-5.5-2.1-5.5-5.4 0-3.6 2.5-5.7 5.8-5.7 1.3 0 2.2.3 2.6.5l-.4 1.6c-.5-.2-1.2-.4-2.1-.4-2.2 0-3.8 1.4-3.8 4 0 2.4 1.4 3.9 3.8 3.9.8 0 1.6-.2 2.1-.4l.3 1.4zm1.7-10.4c.9-.1 2-.2 3.1-.2 2 0 3.4.4 4.4 1.2 1 .8 1.7 2.1 1.7 4s-.7 3.4-1.7 4.3c-1.1 1-2.8 1.5-4.9 1.5-1.2 0-2-.1-2.7-.1v-10.7zm1.9 9.2h1.1c2.6 0 4.1-1.4 4.1-4.1 0-2.4-1.4-3.7-3.8-3.7-.6 0-1.1 0-1.3.1v7.7zm9 1.5v-10.8h2.2l2.8 4.6c.7 1.2 1.3 2.4 1.8 3.6-.1-1.4-.2-2.8-.2-4.5v-3.8h1.8v10.8h-2l-2.8-4.7c-.7-1.2-1.4-2.5-1.9-3.7.1 1.4.1 2.8.1 4.6v3.9h-1.8z"/><radialGradient id="SVGID_1_" cx="325.676" cy="617.815" r="7.286" gradientUnits="userSpaceOnUse"><stop offset=".482" stop-color="#fff" stop-opacity="0"/><stop offset=".82" stop-color="#fff"/></radialGradient><circle class="st6" cx="325.7" cy="617.8" r="7.3"/><path class="st2" d="M325.7 612c3.2 0 5.8 2.6 5.8 5.8s-2.6 5.8-5.8 5.8-5.8-2.6-5.8-5.8 2.6-5.8 5.8-5.8m0-1.5c-4 0-7.3 3.3-7.3 7.3s3.3 7.3 7.3 7.3 7.3-3.3 7.3-7.3-3.3-7.3-7.3-7.3z"/><radialGradient id="SVGID_2_" cx="178.375" cy="248.222" r="99.44" gradientUnits="userSpaceOnUse"><stop offset=".9" stop-color="#fff" stop-opacity="0"/><stop offset="1" stop-color="#fff"/></radialGradient><path class="st7" d="M178.4 347.7c-54.8 0-99.4-44.6-99.4-99.4 0-54.8 44.6-99.4 99.4-99.4 54.8 0 99.4 44.6 99.4 99.4 0 54.8-44.6 99.4-99.4 99.4z"/><radialGradient id="SVGID_3_" cx="230.707" cy="453.058" r="85.832" gradientUnits="userSpaceOnUse"><stop offset=".9" stop-color="#fff" stop-opacity="0"/><stop offset="1" stop-color="#fff"/></radialGradient><circle class="st8" cx="230.7" cy="453.1" r="85.8"/><radialGradient id="SVGID_4_" cx="405.925" cy="235.254" r="60.199" gradientUnits="userSpaceOnUse"><stop offset=".85" stop-color="#fff" stop-opacity="0"/><stop offset="1" stop-color="#fff"/></radialGradient><circle class="st9" cx="405.9" cy="235.3" r="60.2"/><radialGradient id="SVGID_5_" cx="540.868" cy="309.757" r="53.902" gradientUnits="userSpaceOnUse"><stop offset=".85" stop-color="#fff" stop-opacity="0"/><stop offset="1" stop-color="#fff"/></radialGradient><circle class="st10" cx="540.9" cy="309.8" r="53.9"/><radialGradient id="SVGID_6_" cx="685.811" cy="287.356" r="85.311" gradientUnits="userSpaceOnUse"><stop offset=".9" stop-color="#fff" stop-opacity="0"/><stop offset="1" stop-color="#fff"/></radialGradient><circle class="st11" cx="685.8" cy="287.4" r="85.3"/><radialGradient id="SVGID_7_" cx="713.794" cy="468.153" r="88.619" gradientUnits="userSpaceOnUse"><stop offset=".9" stop-color="#fff" stop-opacity="0"/><stop offset="1" stop-color="#fff"/></radialGradient><circle class="st12" cx="713.8" cy="468.2" r="88.6"/><radialGradient id="SVGID_8_" cx="414.997" cy="394.481" r="89.361" gradientUnits="userSpaceOnUse"><stop offset=".9" stop-color="#fff" stop-opacity="0"/><stop offset="1" stop-color="#fff"/></radialGradient><circle class="st13" cx="415" cy="394.5" r="89.4"/><path class="st2" d="M178.4 150.3c54 0 97.9 43.9 97.9 97.9 0 54-43.9 97.9-97.9 97.9-54 0-97.9-43.9-97.9-97.9-.1-54 43.9-97.9 97.9-97.9m0-1.5c-54.8 0-99.4 44.6-99.4 99.4 0 54.8 44.6 99.4 99.4 99.4 54.8 0 99.4-44.6 99.4-99.4 0-54.8-44.6-99.4-99.4-99.4zm227.5 27.8c32.4 0 58.7 26.3 58.7 58.7S438.3 294 405.9 294s-58.7-26.3-58.7-58.7 26.4-58.7 58.7-58.7m0-1.5c-33.2 0-60.2 27-60.2 60.2s27 60.2 60.2 60.2 60.2-27 60.2-60.2-26.9-60.2-60.2-60.2zM230.7 368.7c46.5 0 84.3 37.8 84.3 84.3s-37.8 84.3-84.3 84.3-84.3-37.8-84.3-84.3 37.8-84.3 84.3-84.3m0-1.5c-47.4 0-85.8 38.4-85.8 85.8s38.4 85.8 85.8 85.8 85.8-38.4 85.8-85.8-38.4-85.8-85.8-85.8zM415 306.6c48.4 0 87.9 39.4 87.9 87.9s-39.4 87.9-87.9 87.9-87.9-39.4-87.9-87.9 39.4-87.9 87.9-87.9m0-1.5c-49.4 0-89.4 40-89.4 89.4s40 89.4 89.4 89.4 89.4-40 89.4-89.4-40.1-89.4-89.4-89.4zm125.9-47.7c28.9 0 52.4 23.5 52.4 52.4s-23.5 52.4-52.4 52.4-52.4-23.5-52.4-52.4 23.5-52.4 52.4-52.4m0-1.5c-29.8 0-53.9 24.1-53.9 53.9 0 29.8 24.1 53.9 53.9 53.9s53.9-24.1 53.9-53.9c0-29.8-24.2-53.9-53.9-53.9zm144.9-52.4c46.2 0 83.8 37.6 83.8 83.8s-37.6 83.8-83.8 83.8-83.8-37.5-83.8-83.7 37.6-83.9 83.8-83.9m0-1.5c-47.1 0-85.3 38.2-85.3 85.3s38.2 85.3 85.3 85.3 85.3-38.2 85.3-85.3-38.2-85.3-85.3-85.3zm28 179c48 0 87.1 39.1 87.1 87.1s-39.1 87.1-87.1 87.1c-48 0-87.1-39.1-87.1-87.1s39.1-87.1 87.1-87.1m0-1.5c-48.9 0-88.6 39.7-88.6 88.6s39.7 88.6 88.6 88.6 88.6-39.7 88.6-88.6-39.7-88.6-88.6-88.6z"/><path class="st14" d="M417.3 41.6l-6.8-9.8-6.8 9.8zM674.5 646l8.8 8.1 4.5-11z"/></svg>