<svg xmlns="http://www.w3.org/2000/svg" id="Layer_1" viewBox="0 0 236 102.3"><style>.st1{enable-background:new}.st2{fill:#005291}.st3{fill:#006fc8}.st4{fill:#00bcf2}.st6,.st7{fill:none;stroke-width:1.5;stroke-miterlimit:10;stroke-linecap:round}.st6{stroke-linejoin:round;stroke:#29ff92}.st7{stroke:#fff}.st8{fill:#29ff92}</style><g class="st1"><path d="M147 34.7l-.1 32.6-28.2 16.4.1-32.6z" class="st2"/><path d="M118.8 51.1l-.1 32.6-28.4-16.4.1-32.6z" class="st3"/><path d="M147 34.7l-28.2 16.4-28.4-16.4 28.2-16.4z" class="st4"/></g><g class="st1"><path d="M103.1 60v14.7l-12.8 7.4.1-14.7z" class="st6"/><path d="M90.4 67.4l-.1 14.7-12.8-7.4V60z" class="st6"/><path d="M103.1 60l-12.7 7.4L77.5 60l12.8-7.5z" class="st6"/><path d="M103.1 74.6L90.4 82l-12.9-7.4 12.8-7.4z" class="st6"/></g><path d="M90.3 52.5v14.7" class="st6"/><path d="M71.5 56.5L65 52.7m6.5 21.9V56.5l15.8-9.1" class="st7"/><path d="M3 15.5v-10h10m210 0h10v10m0 72.9v10h-10m-210 0H3v-10" class="st6"/><path d="M51.2 41.4h11.9v11.9H51.2z" class="st8" transform="rotate(36.58 57.162 47.348)"/></svg>