<svg id="Layer_1" xmlns="http://www.w3.org/2000/svg" viewBox="0 0 184.6 157.2"><style>.st0{enable-background:new}.st1{fill:#00bcf2}.st2{fill:#005291}.st3,.st4{fill:none;stroke:#fff;stroke-width:1.5;stroke-miterlimit:10}.st4{stroke-linecap:round}.st5{fill:#27f089}.st6{fill:none;stroke:#005291;stroke-width:1.5;stroke-miterlimit:10}.st7{fill:#fff}</style><g class="st0"><path class="st1" d="M116.5 128.6l12.5 24.7H14.8L2.3 128.6"/><path class="st2" d="M116.5 128.6h25.1L129 153.3z"/></g><path class="st3" d="M117.3 124.9L161.2 37H60.9l-42.7 87.9z"/><path class="st4" d="M123 124.9l42.1-84.1m-36.4 84.1l40.2-80.3"/><g class="st0"><path class="st1" d="M55.6 8.4h114.2l-12.6 24.8H43z"/><path class="st2" d="M169.8 8.4l12.5 24.8h-25.1z"/></g><path class="st5" d="M162.1 55.6H35.5c-1.7 0-3-1.3-3-3s1.3-3 3-3H162c1.7 0 3 1.3 3 3 .1 1.6-1.3 3-2.9 3zM56.2 115.9H35.5c-1.7 0-3-1.3-3-3s1.3-3 3-3h20.7c1.7 0 3 1.3 3 3s-1.3 3-3 3zm105.9-44.7H57.5c-1.7 0-3-1.3-3-3s1.3-3 3-3H162c1.7 0 3 1.3 3 3 .1 1.7-1.3 3-2.9 3zm0 15.7h-52.7c-1.7 0-3-1.3-3-3s1.3-3 3-3h52.7c1.7 0 3 1.3 3 3s-1.4 3-3 3z"/><path class="st6" d="M162.9 93.2v31.7"/><circle class="st2" cx="162.9" cy="128.9" r="4"/><circle class="st7" cx="162.9" cy="138.9" r="4"/><circle class="st2" cx="162.9" cy="148.9" r="4"/><ellipse transform="rotate(-9.213 26.493 10.875)" class="st7" cx="26.5" cy="10.9" rx="4" ry="4"/><path class="st6" d="M22.4 18.8c4 2.8 9.5 2 12.3-2s2-9.5-2-12.3m2 12.3l6.9 5"/><circle class="st6" cx="162.9" cy="83.9" r="10"/><path class="st6" d="M48.4 8.4L35.8 33.2m130.6 60v21.7"/></svg>