<svg id="Layer_1" xmlns="http://www.w3.org/2000/svg" viewBox="0 0 338.8 325.4"><style>.st0{fill-rule:evenodd;clip-rule:evenodd;fill:#005291}.st1{fill:none;stroke:#29ff92;stroke-width:1.5;stroke-linecap:round;stroke-linejoin:round}.st2{fill:#29ff92}.st3{fill:none;stroke:#29ff92;stroke-width:1.5;stroke-linecap:round;stroke-linejoin:round;stroke-miterlimit:10}.st4{fill:#00bcf2}.st4,.st5,.st6{fill-rule:evenodd;clip-rule:evenodd}.st5{fill:#141414}.st6{fill:#fff}</style><circle class="st0" cx="100.6" cy="132.6" r="3.1"/><circle class="st0" cx="109.7" cy="132.6" r="3.1"/><circle class="st0" cx="118.7" cy="132.6" r="3.1"/><circle class="st0" cx="136.8" cy="132.6" r="3.1"/><circle class="st0" cx="73.4" cy="141.6" r="3.1"/><circle class="st0" cx="91.5" cy="141.6" r="3.1"/><circle class="st0" cx="100.6" cy="141.6" r="3.1"/><circle class="st0" cx="109.7" cy="141.6" r="3.1"/><circle class="st0" cx="118.7" cy="141.6" r="3.1"/><circle class="st0" cx="127.8" cy="141.6" r="3.1"/><circle class="st0" cx="136.8" cy="141.6" r="3.1"/><circle class="st0" cx="145.9" cy="141.6" r="3.1"/><circle class="st0" cx="28.1" cy="150.7" r="3.1"/><circle class="st0" cx="37.2" cy="150.7" r="3.1"/><circle class="st0" cx="64.3" cy="150.7" r="3.1"/><circle class="st0" cx="73.4" cy="150.7" r="3.1"/><circle class="st0" cx="82.5" cy="150.7" r="3.1"/><circle class="st0" cx="91.5" cy="150.7" r="3.1"/><circle class="st0" cx="100.6" cy="150.7" r="3.1"/><circle class="st0" cx="118.7" cy="150.7" r="3.1"/><circle class="st0" cx="127.8" cy="150.7" r="3.1"/><circle class="st0" cx="136.8" cy="150.7" r="3.1"/><circle class="st0" cx="145.9" cy="150.7" r="3.1"/><circle class="st0" cx="19" cy="159.8" r="3.1"/><circle class="st0" cx="28.1" cy="159.8" r="3.1"/><circle class="st0" cx="37.2" cy="159.8" r="3.1"/><circle class="st0" cx="46.2" cy="159.8" r="3.1"/><circle class="st0" cx="55.3" cy="159.8" r="3.1"/><circle class="st0" cx="64.3" cy="159.8" r="3.1"/><circle class="st0" cx="73.4" cy="159.8" r="3.1"/><circle class="st0" cx="82.5" cy="159.8" r="3.1"/><circle class="st0" cx="91.5" cy="159.8" r="3.1"/><circle class="st0" cx="100.6" cy="159.8" r="3.1"/><circle class="st0" cx="118.7" cy="159.8" r="3.1"/><circle class="st0" cx="127.8" cy="159.8" r="3.1"/><circle class="st0" cx="136.8" cy="159.8" r="3.1"/><circle class="st0" cx="145.9" cy="159.8" r="3.1"/><circle class="st0" cx="10" cy="168.8" r="3.1"/><circle class="st0" cx="19" cy="168.8" r="3.1"/><circle class="st0" cx="28.1" cy="168.8" r="3.1"/><circle class="st0" cx="37.2" cy="168.8" r="3.1"/><circle class="st0" cx="46.2" cy="168.8" r="3.1"/><circle class="st0" cx="55.3" cy="168.8" r="3.1"/><circle class="st0" cx="64.3" cy="168.8" r="3.1"/><circle class="st0" cx="73.4" cy="168.8" r="3.1"/><circle class="st0" cx="82.5" cy="168.8" r="3.1"/><circle class="st0" cx="91.5" cy="168.8" r="3.1"/><circle class="st0" cx="100.6" cy="168.8" r="3.1"/><circle class="st0" cx="118.7" cy="168.8" r="3.1"/><circle class="st0" cx="127.8" cy="168.8" r="3.1"/><circle class="st0" cx="136.8" cy="168.8" r="3.1"/><circle class="st0" cx="19" cy="177.9" r="3.1"/><circle class="st0" cx="37.2" cy="177.9" r="3.1"/><circle class="st0" cx="46.2" cy="177.9" r="3.1"/><circle class="st0" cx="55.3" cy="177.9" r="3.1"/><circle class="st0" cx="64.3" cy="177.9" r="3.1"/><circle class="st0" cx="73.4" cy="177.9" r="3.1"/><circle class="st0" cx="82.5" cy="177.9" r="3.1"/><circle class="st0" cx="91.5" cy="177.9" r="3.1"/><circle class="st0" cx="100.6" cy="177.9" r="3.1"/><circle class="st0" cx="118.7" cy="177.9" r="3.1"/><circle class="st0" cx="127.8" cy="177.9" r="3.1"/><circle class="st0" cx="46.2" cy="187" r="3.1"/><circle class="st0" cx="55.3" cy="187" r="3.1"/><circle class="st0" cx="64.3" cy="187" r="3.1"/><circle class="st0" cx="73.4" cy="187" r="3.1"/><circle class="st0" cx="91.5" cy="187" r="3.1"/><circle class="st0" cx="100.6" cy="187" r="3.1"/><circle class="st0" cx="118.7" cy="187" r="3.1"/><circle class="st0" cx="37.2" cy="196" r="3.1"/><circle class="st0" cx="46.2" cy="196" r="3.1"/><circle class="st0" cx="55.3" cy="196" r="3.1"/><circle class="st0" cx="64.3" cy="196" r="3.1"/><circle class="st0" cx="73.4" cy="196" r="3.1"/><circle class="st0" cx="82.5" cy="196" r="3.1"/><circle class="st0" cx="91.5" cy="196" r="3.1"/><circle class="st0" cx="100.6" cy="196" r="3.1"/><circle class="st0" cx="109.7" cy="196" r="3.1"/><circle class="st0" cx="37.2" cy="205.1" r="3.1"/><circle class="st0" cx="46.2" cy="205.1" r="3.1"/><circle class="st0" cx="55.3" cy="205.1" r="3.1"/><circle class="st0" cx="64.3" cy="205.1" r="3.1"/><circle class="st0" cx="73.4" cy="205.1" r="3.1"/><circle class="st0" cx="82.5" cy="205.1" r="3.1"/><circle class="st0" cx="91.5" cy="205.1" r="3.1"/><circle class="st0" cx="100.6" cy="205.1" r="3.1"/><circle class="st0" cx="37.2" cy="214.1" r="3.1"/><circle class="st0" cx="46.2" cy="214.1" r="3.1"/><circle class="st0" cx="55.3" cy="214.1" r="3.1"/><circle class="st0" cx="64.3" cy="214.1" r="3.1"/><circle class="st0" cx="73.4" cy="214.1" r="3.1"/><circle class="st0" cx="82.5" cy="214.1" r="3.1"/><circle class="st0" cx="91.5" cy="214.1" r="3.1"/><circle class="st0" cx="46.2" cy="223.2" r="3.1"/><circle class="st0" cx="55.3" cy="223.2" r="3.1"/><circle class="st0" cx="64.3" cy="223.2" r="3.1"/><circle class="st0" cx="73.4" cy="223.2" r="3.1"/><circle class="st0" cx="82.5" cy="223.2" r="3.1"/><circle class="st0" cx="46.2" cy="232.3" r="3.1"/><circle class="st0" cx="55.3" cy="232.3" r="3.1"/><circle class="st0" cx="82.5" cy="232.3" r="3.1"/><circle class="st0" cx="55.3" cy="241.3" r="3.1"/><circle class="st0" cx="64.3" cy="241.3" r="3.1"/><circle class="st0" cx="73.4" cy="241.3" r="3.1"/><circle class="st0" cx="73.4" cy="250.4" r="3.1"/><circle class="st0" cx="82.5" cy="250.4" r="3.1"/><circle class="st0" cx="91.5" cy="250.4" r="3.1"/><circle class="st0" cx="100.6" cy="250.4" r="3.1"/><circle class="st0" cx="82.5" cy="259.5" r="3.1"/><circle class="st0" cx="91.5" cy="259.5" r="3.1"/><circle class="st0" cx="100.6" cy="259.5" r="3.1"/><circle class="st0" cx="109.7" cy="259.5" r="3.1"/><circle class="st0" cx="82.5" cy="268.5" r="3.1"/><circle class="st0" cx="91.5" cy="268.5" r="3.1"/><circle class="st0" cx="100.6" cy="268.5" r="3.1"/><circle class="st0" cx="109.7" cy="268.5" r="3.1"/><circle class="st0" cx="118.7" cy="268.5" r="3.1"/><circle class="st0" cx="91.5" cy="278.3" r="3.1"/><circle class="st0" cx="100.6" cy="278.3" r="3.1"/><circle class="st0" cx="109.7" cy="278.3" r="3.1"/><circle class="st0" cx="118.7" cy="278.3" r="3.1"/><circle class="st0" cx="91.5" cy="288.2" r="3.1"/><circle class="st0" cx="100.6" cy="288.2" r="3.1"/><circle class="st0" cx="109.7" cy="288.2" r="3.1"/><circle class="st0" cx="91.5" cy="298" r="3.1"/><circle class="st0" cx="100.6" cy="298" r="3.1"/><circle class="st0" cx="91.5" cy="307.8" r="3.1"/><circle class="st0" cx="91.5" cy="317.6" r="3.1"/><circle class="st0" cx="246.6" cy="150.7" r="3.1"/><circle class="st0" cx="255.6" cy="150.7" r="3.1"/><circle class="st0" cx="264.7" cy="150.7" r="3.1"/><circle class="st0" cx="273.7" cy="150.7" r="3.1"/><circle class="st0" cx="282.8" cy="150.7" r="3.1"/><circle class="st0" cx="291.9" cy="150.7" r="3.1"/><circle class="st0" cx="300.9" cy="150.7" r="3.1"/><circle class="st0" cx="310" cy="150.7" r="3.1"/><circle class="st0" cx="319.1" cy="150.7" r="3.1"/><circle class="st0" cx="219.4" cy="159.8" r="3.1"/><circle class="st0" cx="237.5" cy="159.8" r="3.1"/><circle class="st0" cx="246.6" cy="159.8" r="3.1"/><circle class="st0" cx="255.6" cy="159.8" r="3.1"/><circle class="st0" cx="264.7" cy="159.8" r="3.1"/><circle class="st0" cx="273.7" cy="159.8" r="3.1"/><circle class="st0" cx="282.8" cy="159.8" r="3.1"/><circle class="st0" cx="291.9" cy="159.8" r="3.1"/><circle class="st0" cx="300.9" cy="159.8" r="3.1"/><circle class="st0" cx="310" cy="159.8" r="3.1"/><circle class="st0" cx="319.1" cy="159.8" r="3.1"/><circle class="st0" cx="219.4" cy="168.8" r="3.1"/><circle class="st0" cx="237.5" cy="168.8" r="3.1"/><circle class="st0" cx="246.6" cy="168.8" r="3.1"/><circle class="st0" cx="255.6" cy="168.8" r="3.1"/><circle class="st0" cx="264.7" cy="168.8" r="3.1"/><circle class="st0" cx="273.7" cy="168.8" r="3.1"/><circle class="st0" cx="282.8" cy="168.8" r="3.1"/><circle class="st0" cx="291.9" cy="168.8" r="3.1"/><circle class="st0" cx="300.9" cy="168.8" r="3.1"/><circle class="st0" cx="310" cy="168.8" r="3.1"/><circle class="st0" cx="319.1" cy="168.8" r="3.1"/><circle class="st0" cx="328.1" cy="159.8" r="3.1"/><circle class="st0" cx="328.1" cy="168.8" r="3.1"/><circle class="st0" cx="328.1" cy="177.9" r="3.1"/><circle class="st0" cx="328.1" cy="187" r="3.1"/><circle class="st0" cx="192.2" cy="177.9" r="3.1"/><circle class="st0" cx="201.2" cy="177.9" r="3.1"/><circle class="st0" cx="201.2" cy="168.8" r="3.1"/><circle class="st0" cx="210.3" cy="177.9" r="3.1"/><circle class="st0" cx="219.4" cy="177.9" r="3.1"/><circle class="st0" cx="228.4" cy="177.9" r="3.1"/><circle class="st0" cx="237.5" cy="177.9" r="3.1"/><circle class="st0" cx="246.6" cy="177.9" r="3.1"/><circle class="st0" cx="255.6" cy="177.9" r="3.1"/><circle class="st0" cx="264.7" cy="177.9" r="3.1"/><circle class="st0" cx="273.7" cy="177.9" r="3.1"/><circle class="st0" cx="282.8" cy="177.9" r="3.1"/><circle class="st0" cx="291.9" cy="177.9" r="3.1"/><circle class="st0" cx="300.9" cy="177.9" r="3.1"/><circle class="st0" cx="183.1" cy="187" r="3.1"/><circle class="st0" cx="192.2" cy="187" r="3.1"/><circle class="st0" cx="201.2" cy="187" r="3.1"/><circle class="st0" cx="210.3" cy="187" r="3.1"/><circle class="st0" cx="219.4" cy="187" r="3.1"/><circle class="st0" cx="228.4" cy="187" r="3.1"/><circle class="st0" cx="237.5" cy="187" r="3.1"/><circle class="st0" cx="246.6" cy="187" r="3.1"/><circle class="st0" cx="255.6" cy="187" r="3.1"/><circle class="st0" cx="264.7" cy="187" r="3.1"/><circle class="st0" cx="273.7" cy="187" r="3.1"/><circle class="st0" cx="282.8" cy="187" r="3.1"/><circle class="st0" cx="291.9" cy="187" r="3.1"/><circle class="st0" cx="300.9" cy="187" r="3.1"/><circle class="st0" cx="174.1" cy="196" r="3.1"/><circle class="st0" cx="192.2" cy="196" r="3.1"/><circle class="st0" cx="201.2" cy="196" r="3.1"/><circle class="st0" cx="210.3" cy="196" r="3.1"/><circle class="st0" cx="219.4" cy="196" r="3.1"/><circle class="st0" cx="228.4" cy="196" r="3.1"/><circle class="st0" cx="237.5" cy="196" r="3.1"/><circle class="st0" cx="246.6" cy="196" r="3.1"/><circle class="st0" cx="255.6" cy="196" r="3.1"/><circle class="st0" cx="264.7" cy="196" r="3.1"/><circle class="st0" cx="273.7" cy="196" r="3.1"/><circle class="st0" cx="282.8" cy="196" r="3.1"/><circle class="st0" cx="291.9" cy="196" r="3.1"/><circle class="st0" cx="300.9" cy="196" r="3.1"/><circle class="st0" cx="310" cy="196" r="3.1"/><circle class="st0" cx="174.1" cy="205.1" r="3.1"/><circle class="st0" cx="183.1" cy="205.1" r="3.1"/><circle class="st0" cx="192.2" cy="205.1" r="3.1"/><circle class="st0" cx="201.2" cy="205.1" r="3.1"/><circle class="st0" cx="210.3" cy="205.1" r="3.1"/><circle class="st0" cx="219.4" cy="205.1" r="3.1"/><circle class="st0" cx="228.4" cy="205.1" r="3.1"/><circle class="st0" cx="237.5" cy="205.1" r="3.1"/><circle class="st0" cx="246.6" cy="205.1" r="3.1"/><circle class="st0" cx="255.6" cy="205.1" r="3.1"/><circle class="st0" cx="264.7" cy="205.1" r="3.1"/><circle class="st0" cx="273.7" cy="205.1" r="3.1"/><circle class="st0" cx="282.8" cy="205.1" r="3.1"/><circle class="st0" cx="291.9" cy="205.1" r="3.1"/><circle class="st0" cx="300.9" cy="205.1" r="3.1"/><circle class="st0" cx="319.1" cy="205.1" r="3.1"/><circle class="st0" cx="174.1" cy="214.1" r="3.1"/><circle class="st0" cx="192.2" cy="214.1" r="3.1"/><circle class="st0" cx="201.2" cy="214.1" r="3.1"/><circle class="st0" cx="210.3" cy="214.1" r="3.1"/><circle class="st0" cx="219.4" cy="214.1" r="3.1"/><circle class="st0" cx="228.4" cy="214.1" r="3.1"/><circle class="st0" cx="237.5" cy="214.1" r="3.1"/><circle class="st0" cx="246.6" cy="214.1" r="3.1"/><circle class="st0" cx="255.6" cy="214.1" r="3.1"/><circle class="st0" cx="264.7" cy="214.1" r="3.1"/><circle class="st0" cx="273.7" cy="214.1" r="3.1"/><circle class="st0" cx="282.8" cy="214.1" r="3.1"/><circle class="st0" cx="291.9" cy="214.1" r="3.1"/><circle class="st0" cx="300.9" cy="214.1" r="3.1"/><circle class="st0" cx="319.1" cy="214.1" r="3.1"/><circle class="st0" cx="174.1" cy="223.2" r="3.1"/><circle class="st0" cx="183.1" cy="223.2" r="3.1"/><circle class="st0" cx="192.2" cy="223.2" r="3.1"/><circle class="st0" cx="201.2" cy="223.2" r="3.1"/><circle class="st0" cx="210.3" cy="223.2" r="3.1"/><circle class="st0" cx="219.4" cy="223.2" r="3.1"/><circle class="st0" cx="228.4" cy="223.2" r="3.1"/><circle class="st0" cx="237.5" cy="223.2" r="3.1"/><circle class="st0" cx="246.6" cy="223.2" r="3.1"/><circle class="st0" cx="255.6" cy="223.2" r="3.1"/><circle class="st0" cx="264.7" cy="223.2" r="3.1"/><circle class="st0" cx="273.7" cy="223.2" r="3.1"/><circle class="st0" cx="282.8" cy="223.2" r="3.1"/><circle class="st0" cx="291.9" cy="223.2" r="3.1"/><circle class="st0" cx="300.9" cy="223.2" r="3.1"/><circle class="st0" cx="164.2" cy="232.3" r="3.1"/><circle class="st0" cx="164.2" cy="241.3" r="3.1"/><circle class="st0" cx="164.2" cy="250.4" r="3.1"/><circle class="st0" cx="174.1" cy="232.3" r="3.1"/><circle class="st0" cx="183.1" cy="232.3" r="3.1"/><circle class="st0" cx="192.2" cy="232.3" r="3.1"/><circle class="st0" cx="201.2" cy="232.3" r="3.1"/><circle class="st0" cx="210.3" cy="232.3" r="3.1"/><circle class="st0" cx="219.4" cy="232.3" r="3.1"/><circle class="st0" cx="228.4" cy="232.3" r="3.1"/><circle class="st0" cx="237.5" cy="232.3" r="3.1"/><circle class="st0" cx="246.6" cy="232.3" r="3.1"/><circle class="st0" cx="255.6" cy="232.3" r="3.1"/><circle class="st0" cx="264.7" cy="232.3" r="3.1"/><circle class="st0" cx="273.7" cy="232.3" r="3.1"/><circle class="st0" cx="282.8" cy="232.3" r="3.1"/><circle class="st0" cx="291.9" cy="232.3" r="3.1"/><circle class="st0" cx="300.9" cy="232.3" r="3.1"/><circle class="st0" cx="174.1" cy="241.3" r="3.1"/><circle class="st0" cx="183.1" cy="241.3" r="3.1"/><circle class="st0" cx="192.2" cy="241.3" r="3.1"/><circle class="st0" cx="201.2" cy="241.3" r="3.1"/><circle class="st0" cx="210.3" cy="241.3" r="3.1"/><circle class="st0" cx="219.4" cy="241.3" r="3.1"/><circle class="st0" cx="228.4" cy="241.3" r="3.1"/><circle class="st0" cx="237.5" cy="241.3" r="3.1"/><circle class="st0" cx="255.6" cy="241.3" r="3.1"/><circle class="st0" cx="273.7" cy="241.3" r="3.1"/><circle class="st0" cx="282.8" cy="241.3" r="3.1"/><circle class="st0" cx="300.9" cy="241.3" r="3.1"/><circle class="st0" cx="174.1" cy="250.4" r="3.1"/><circle class="st0" cx="183.1" cy="250.4" r="3.1"/><circle class="st0" cx="192.2" cy="250.4" r="3.1"/><circle class="st0" cx="201.2" cy="250.4" r="3.1"/><circle class="st0" cx="210.3" cy="250.4" r="3.1"/><circle class="st0" cx="219.4" cy="250.4" r="3.1"/><circle class="st0" cx="228.4" cy="250.4" r="3.1"/><circle class="st0" cx="282.8" cy="250.4" r="3.1"/><circle class="st0" cx="310" cy="250.4" r="3.1"/><circle class="st0" cx="192.2" cy="259.5" r="3.1"/><circle class="st0" cx="201.2" cy="259.5" r="3.1"/><circle class="st0" cx="210.3" cy="259.5" r="3.1"/><circle class="st0" cx="219.4" cy="259.5" r="3.1"/><circle class="st0" cx="282.8" cy="259.5" r="3.1"/><circle class="st0" cx="291.9" cy="259.5" r="3.1"/><circle class="st0" cx="300.9" cy="259.5" r="3.1"/><circle class="st0" cx="192.2" cy="268.5" r="3.1"/><circle class="st0" cx="201.2" cy="268.5" r="3.1"/><circle class="st0" cx="210.3" cy="268.5" r="3.1"/><circle class="st0" cx="219.4" cy="268.5" r="3.1"/><circle class="st0" cx="192.2" cy="278.3" r="3.1"/><circle class="st0" cx="201.2" cy="278.3" r="3.1"/><circle class="st0" cx="210.3" cy="278.3" r="3.1"/><circle class="st0" cx="219.4" cy="278.3" r="3.1"/><circle class="st0" cx="192.2" cy="288.2" r="3.1"/><circle class="st0" cx="201.2" cy="288.2" r="3.1"/><circle class="st0" cx="210.3" cy="288.2" r="3.1"/><circle class="st0" cx="201.2" cy="298" r="3.1"/><circle class="st0" cx="291.9" cy="268.5" r="3.1"/><circle class="st0" cx="300.9" cy="268.5" r="3.1"/><circle class="st0" cx="319.1" cy="268.5" r="3.1"/><circle class="st0" cx="328.9" cy="268.5" r="3.1"/><circle class="st0" cx="310" cy="278.3" r="3.1"/><circle class="st0" cx="319.1" cy="278.3" r="3.1"/><circle class="st0" cx="291.9" cy="288.2" r="3.1"/><circle class="st0" cx="300.9" cy="288.2" r="3.1"/><circle class="st0" cx="310" cy="288.2" r="3.1"/><circle class="st0" cx="319.1" cy="288.2" r="3.1"/><circle class="st0" cx="328.1" cy="288.2" r="3.1"/><circle class="st0" cx="328.1" cy="278.3" r="3.1"/><circle class="st0" cx="300.9" cy="298" r="3.1"/><circle class="st0" cx="310" cy="298" r="3.1"/><circle class="st0" cx="319.1" cy="298" r="3.1"/><circle class="st0" cx="319.1" cy="307.8" r="3.1"/><circle class="st0" cx="328.1" cy="298" r="3.1"/><circle class="st0" cx="328.1" cy="307.8" r="3.1"/><path class="st1" d="M150.4 58.4l-62.2 62.2"/><path class="st2" d="M85.4 115.4l-2.9 10.9 10.9-2.9z"/><path class="st3" d="M127.1 73.7l-22.8 22.8"/><path class="st1" d="M199.3 58.4l62.2 62.2"/><path class="st2" d="M256.3 123.4l10.9 2.9-2.9-10.9z"/><path class="st1" d="M174.8 68.7v68.7"/><path class="st2" d="M169.2 135.8l5.6 9.7 5.7-9.7z"/><path class="st4" d="M187.8 38.8l-4.4 4.4V30.5h13.5l-5 4.4 12.2 11.4V21.7l-17.2-17h-24.1L158.4 9l13.7 14.2 6.3-6.2v18.7h-18.9l5.9-6-13.7-13.6-6.1 6.3v23.7l17.2 17.1h21.1l-16.4-15.8-3 3.3v-9.8h9.6l-2.9 3.2 17.7 17.5 10.7-10.7-11.8-12.1z"/><path transform="rotate(90 51.511 157.272)" class="st5" d="M21.5 127.3h60v60h-60z"/><path class="st4" d="M47 178.9H30.1v-16.4h3.4c-.4-.9-.7-2-.7-3.2v-.3h-6.3v23.3h23.9v-13.7H47v10.3zm22.9-16.4h3v16.4H56v-10.3h-3.4v13.7h23.9V159H69c.6.9.9 2 .9 3.2v.3zm-40-10.4v-16.5h17v9.6c1.1-.7 2.2-1.4 3.4-1.7v-11.2H26.5v23.3h6.9c.5-1.3 1.2-2.4 2.2-3.3l-5.7-.2zm26.1-8.8v-7.6h16.9v16.4h-7.2c.2 1 .4 2.1.4 3.2v.1h10.4v-23.3H52.6V143h.9c.9 0 1.8.2 2.5.3z"/><path class="st6" d="M67.4 162.2c0-2.2-1.7-4-3.6-4h-.5c.3-.9.3-1.7.3-2.8 0-5.7-4.4-10.4-9.8-10.4-4.4 0-8 3-9.4 7.2-.7-.3-1.5-.4-2.1-.4-3.8 0-6.7 3.2-6.7 7.1 0 4 3 7.1 6.7 7.1h21.8c1.9-.1 3.3-1.7 3.3-3.8z"/><path class="st3" d="M179.8 96.5v28m32-45.6l20.6 20.6"/><path transform="rotate(90 174.842 176.507)" class="st5" d="M144.8 146.5h60v60h-60z"/><path class="st4" d="M170.3 198.1h-16.9v-16.4h3.4c-.4-.9-.7-2-.7-3.2v-.3h-6.3v23.3h23.9v-13.7h-3.4v10.3zm22.9-16.4h3v16.4h-16.9v-10.3H176v13.7h23.9v-23.3h-7.5c.6.9.9 2 .9 3.2l-.1.3zm-39.9-10.4v-16.5h17v9.6c1.1-.7 2.2-1.4 3.4-1.7v-11.2h-23.9v23.3h6.9c.5-1.3 1.2-2.4 2.2-3.3l-5.6-.2zm26.1-8.7V155h16.9v16.4H189c.2 1 .4 2.1.4 3.2v.1h10.4v-23.3H176v10.7h.9c.8.1 1.7.3 2.5.5z"/><path class="st6" d="M190.8 181.5c0-2.2-1.7-4-3.6-4h-.5c.3-.9.3-1.7.3-2.8 0-5.7-4.4-10.4-9.8-10.4-4.4 0-8 3-9.4 7.2-.7-.3-1.5-.4-2.1-.4-3.8 0-6.7 3.2-6.7 7.1 0 4 3 7.1 6.7 7.1h21.8c1.8-.2 3.3-1.8 3.3-3.8z"/><path transform="rotate(90 298.172 157.272)" class="st5" d="M268.2 127.3h60v60h-60z"/><path class="st4" d="M293.6 178.9h-16.9v-16.4h3.4c-.4-.9-.7-2-.7-3.2v-.3h-6.3v23.3H297v-13.7h-3.4v10.3zm23-16.4h3v16.4h-16.9v-10.3h-3.4v13.7h23.9V159h-7.5c.6.9.9 2 .9 3.2v.3zm-40-10.4v-16.5h17v9.6c1.1-.7 2.2-1.4 3.4-1.7v-11.2h-23.9v23.3h6.9c.5-1.3 1.2-2.4 2.2-3.3l-5.6-.2zm26.1-8.8v-7.6h16.9v16.4h-7.2c.2 1 .4 2.1.4 3.2v.1h10.4v-23.3h-23.9V143h.9c.9 0 1.7.2 2.5.3z"/><path class="st6" d="M314.1 162.2c0-2.2-1.7-4-3.6-4h-.5c.3-.9.3-1.7.3-2.8 0-5.7-4.4-10.4-9.8-10.4-4.4 0-8 3-9.4 7.2-.7-.3-1.5-.4-2.1-.4-3.8 0-6.7 3.2-6.7 7.1 0 4 3 7.1 6.7 7.1h21.8c1.8-.1 3.3-1.7 3.3-3.8z"/></svg>