<svg id="Layer_1" xmlns="http://www.w3.org/2000/svg" viewBox="0 0 508 506.9"><style>.st0{fill:none;stroke:#29ff92;stroke-width:1.5;stroke-miterlimit:10}.st1{fill:#006fc8}.st2{fill:#00bcf2}.st3{fill:#005291}.st4{fill:none;stroke:#fff;stroke-width:1.5;stroke-linecap:round;stroke-miterlimit:10}.st5{fill:#27f089}.st6{fill:#fff}.st7{stroke:#fff;stroke-width:1.5;stroke-linecap:round;stroke-dasharray:3.1807,4.241}.st7,.st8,.st9{fill:none;stroke-miterlimit:10}.st8{stroke-width:1.5;stroke:#005291}.st9{stroke:#fff}.st10{fill:#29ff92}.st11{fill:none;stroke:#29ff92;stroke-width:1.5;stroke-miterlimit:10;stroke-dasharray:12}</style><path class="st1" d="M247.1 89.1l13 13h212.6c7.2 0 13-5.8 13-13H247.1z"/><path class="st2" d="M119.9 76l13 13h352.8c0-7.2-5.8-13-13-13H119.9z"/><path class="st3" d="M479.3 118.8H353.4l13 13h112.9c3.6 0 6.5-2.9 6.5-6.5 0-3.5-2.9-6.5-6.5-6.5z"/><path class="st3" d="M369.3 119.8l11 11h-69.1l-11-11h69.1m.4-1h-72l13 13h72l-13-13z"/><path class="st4" d="M23.9 291.4v9h461.9v-9"/><path class="st5" d="M156.4 330.1H98c-1.7 0-3-1.3-3-3s1.3-3 3-3h58.4c1.7 0 3 1.3 3 3s-1.3 3-3 3zm-69.5 0H29.5c-1.7 0-3-1.3-3-3s1.3-3 3-3h57.4c1.7 0 3 1.3 3 3s-1.4 3-3 3zm69.5 15.7h-33c-1.7 0-3-1.3-3-3s1.3-3 3-3h33c1.7 0 3 1.3 3 3s-1.3 3-3 3zm0 15.8h-52.8c-1.7 0-3-1.3-3-3s1.3-3 3-3h52.8c1.7 0 3 1.3 3 3 0 1.6-1.3 3-3 3zm249.2-31.5H295.2c-1.7 0-3-1.3-3-3s1.3-3 3-3h110.4c1.7 0 3 1.3 3 3s-1.4 3-3 3zm-82.9 15.7h-27.5c-1.7 0-3-1.3-3-3s1.3-3 3-3h27.5c1.7 0 3 1.3 3 3s-1.4 3-3 3zm39.1 0h-27.5c-1.7 0-3-1.3-3-3s1.3-3 3-3h27.5c1.7 0 3 1.3 3 3s-1.3 3-3 3zm-5.8 15.8h-60.8c-1.7 0-3-1.3-3-3s1.3-3 3-3H356c1.7 0 3 1.3 3 3 0 1.6-1.4 3-3 3z"/><path class="st4" d="M368.1 366.6c-4.4 0-8-3.6-8-8s3.6-8 8-8h7.5c4.4 0 8 3.6 8 8s-3.6 8-8 8h-7.5z"/><path class="st6" d="M375.5 361.6H368c-1.7 0-3-1.3-3-3s1.3-3 3-3h7.5c1.7 0 3 1.3 3 3 0 1.6-1.3 3-3 3z"/><path class="st5" d="M338.1 376.9h-42.9c-1.7 0-3-1.3-3-3s1.3-3 3-3h42.9c1.7 0 3 1.3 3 3s-1.3 3-3 3zm52.9 49.8h-60.8c-1.7 0-3-1.3-3-3s1.3-3 3-3H391c1.7 0 3 1.3 3 3s-1.4 3-3 3zm-23.6 15.4h-37.3c-1.7 0-3-1.3-3-3s1.3-3 3-3h37.3c1.7 0 3 1.3 3 3 0 1.6-1.3 3-3 3zm26.8 0h-14.9c-1.7 0-3-1.3-3-3s1.3-3 3-3h14.9c1.7 0 3 1.3 3 3 0 1.6-1.4 3-3 3zm-37.6 15.3h-26.5c-1.7 0-3-1.3-3-3s1.3-3 3-3h26.5c1.7 0 3 1.3 3 3s-1.3 3-3 3zm16.5 0h-5.3c-1.7 0-3-1.3-3-3s1.3-3 3-3h5.3c1.7 0 3 1.3 3 3s-1.3 3-3 3zM354 472.8h-23.9c-1.7 0-3-1.3-3-3s1.3-3 3-3H354c1.7 0 3 1.3 3 3 0 1.6-1.3 3-3 3z"/><path class="st4" d="M103.6 429.8c-4.4 0-8-3.6-8-8s3.6-8 8-8h52.8c4.4 0 8 3.6 8 8s-3.6 8-8 8h-52.8zm217.4-7.7c0-4.4 3.6-8 8-8s8 3.6 8 8v52.8c0 4.4-3.6 8-8 8s-8-3.6-8-8v-52.8z"/><path class="st6" d="M135.6 424.8h-14.1c-1.7 0-3-1.3-3-3s1.3-3 3-3h14.1c1.7 0 3 1.3 3 3 0 1.6-1.3 3-3 3zm-26.8 0h-4c-1.7 0-3-1.3-3-3s1.3-3 3-3h4c1.7 0 3 1.3 3 3 0 1.6-1.4 3-3 3zm47.6 0h-9.9c-1.7 0-3-1.3-3-3s1.3-3 3-3h9.9c1.7 0 3 1.3 3 3 0 1.6-1.3 3-3 3z"/><path class="st4" d="M260.2 451.5V300.4m-64.9 108.4V300.4m242.8 44.1v-44.1"/><path class="st6" d="M195.3 188.9l-38.8 38.8 38.8 38.8 38.8-38.8-38.8-38.8zm0 21.1h4l-.9 24h-6.2l-.9-24h4zm3.2 34.2c-.8.8-1.9 1.1-3.2 1.1s-2.4-.4-3.2-1.2-1.3-1.7-1.3-2.9.4-2.1 1.3-2.9c.9-.7 1.9-1.1 3.2-1.1s2.4.4 3.2 1.1c.8.8 1.2 1.7 1.2 2.9.1 1.3-.4 2.3-1.2 3zm239.6-48.3l-38.8 38.8 38.8 38.8 38.8-38.8-38.8-38.8zm0 21.1h4l-.9 24H435l-.9-24h4zm3.3 34.2c-.8.8-1.9 1.1-3.2 1.1-1.3 0-2.4-.4-3.2-1.2-.8-.8-1.3-1.7-1.3-2.9s.4-2.1 1.3-2.9 1.9-1.1 3.2-1.1c1.3 0 2.4.4 3.2 1.1.8.8 1.2 1.7 1.2 2.9 0 1.3-.4 2.3-1.2 3zm33.5 96.8L464 358.9l10.9 10.9 10.9-10.9-10.9-10.9zm0 5.9h1.1l-.3 6.7H474l-.3-6.7h1.2zm.9 9.6c-.2.2-.5.3-.9.3s-.7-.1-.9-.3c-.2-.2-.4-.5-.4-.8s.1-.6.4-.8c.2-.2.5-.3.9-.3s.7.1.9.3c.2.2.3.5.3.8.1.3 0 .6-.3.8zM68 410.9l-10.9 10.9L68 432.6l10.9-10.9L68 410.9zm0 5.9h1.1l-.3 6.7h-1.7l-.3-6.7H68zm.9 9.6c-.2.2-.5.3-.9.3s-.7-.1-.9-.3-.4-.5-.4-.8.1-.6.4-.8c.2-.2.5-.3.9-.3s.7.1.9.3c.2.2.3.5.3.8.1.3 0 .6-.3.8z"/><path class="st4" d="M95.5 421.8H83.9M321 464.5h-11.6m-6.7 0h-1.5"/><path class="st7" d="M297 464.5h-20.2"/><path class="st4" d="M274.7 464.5h-1.5m-108.8-42.7h16.8"/><path class="st2" d="M78.5 114.7c4.2-2 7.1-6.3 7.1-11.3 0-6.9-5.6-12.6-12.6-12.6s-12.6 5.6-12.6 12.6c0 5 2.9 9.3 7.1 11.3-9.9 2.5-17.3 11.4-17.3 22.1h45.6c0-10.7-7.4-19.6-17.3-22.1z"/><path class="st4" d="M117.8 130.8v24h-24m24 0l50.8 50.8"/><path class="st6" d="M221.4 169.2l38.8 38.8 38.8-38.8-38.8-38.8-38.8 38.8zm42 16.5c-.8.8-1.9 1.1-3.2 1.1-1.3 0-2.4-.4-3.2-1.2-.8-.8-1.3-1.7-1.3-2.9s.4-2.1 1.3-2.9c.9-.7 1.9-1.1 3.2-1.1 1.3 0 2.4.4 3.2 1.1.8.8 1.2 1.7 1.2 2.9 0 1.3-.4 2.3-1.2 3zm-.2-10.2H257l-.9-24h8.1l-1 24z"/><circle class="st4" cx="260.2" cy="102.1" r="11.3"/><path class="st4" d="M260.2 113.4v12"/><circle class="st4" cx="438.1" cy="153.8" r="11.3"/><path class="st4" d="M438.1 165v26.3"/><circle class="st5" cx="472.2" cy="153.8" r="5.3"/><circle class="st5" cx="455.2" cy="153.8" r="5.3"/><path class="st5" d="M438.1 149.5c2.4 0 4.3 1.9 4.3 4.3s-1.9 4.3-4.3 4.3-4.3-1.9-4.3-4.3 2-4.3 4.3-4.3m0-1c-2.9 0-5.3 2.4-5.3 5.3s2.4 5.3 5.3 5.3 5.3-2.4 5.3-5.3-2.3-5.3-5.3-5.3z"/><circle class="st5" cx="421.1" cy="153.8" r="5.3"/><circle class="st5" cx="404" cy="153.8" r="5.3"/><path class="st8" d="M40.3 77.3h65.4v65.4H40.3z"/><circle class="st9" cx="260.2" cy="464.5" r="8"/><circle class="st3" cx="260.2" cy="464.5" r="3.9"/><circle class="st9" cx="195.3" cy="421.8" r="8"/><circle class="st3" cx="195.3" cy="421.8" r="3.9"/><circle class="st9" cx="438.1" cy="358.5" r="8"/><circle class="st3" cx="438.1" cy="358.5" r="3.9"/><path class="st4" d="M56.9 300.4v-4.5m33 4.5v-4.5m33 4.5v-4.5m33 4.5v-4.5m33 4.5v-4.5m33 4.5v-4.5m32.9 4.5v-4.5m33 4.5v-4.5m33 4.5v-4.5m33 4.5v-4.5m33 4.5v-4.5m33 4.5v-4.5m33 4.5v-4.5"/><path class="st10" d="M25.9 38.7V24.4h14.3c-.1 7.9-6.5 14.3-14.3 14.3z"/><path class="st4" d="M459 358.9h-7.9m-26 0h-41.6"/><path class="st5" d="M111.3 345.8H51.5c-1.7 0-3-1.3-3-3s1.3-3 3-3h59.8c1.7 0 3 1.3 3 3s-1.3 3-3 3z"/><path class="st6" d="M336.9 420.7h-6.7c-1.7 0-3 1.3-3 3s1.3 3 3 3h6.9v-4.6c-.1-.5-.1-1-.2-1.4zm-6.7 15.4c-1.7 0-3 1.3-3 3s1.3 3 3 3h6.9v-6h-6.9zm0 15.3c-1.7 0-3 1.3-3 3s1.3 3 3 3h6.9v-6h-6.9zm0 15.4c-1.7 0-3 1.3-3 3s1.3 3 3 3h6.9v-6h-6.9z"/><path class="st4" d="M137.2 200.7h9.3v53.8h-9.3z"/><path class="st6" d="M141.2 204.8h1.3v45.8h-1.3z"/><path class="st4" d="M308.7 142.2h9.3V196h-9.3z"/><path class="st6" d="M312.8 158.3h1.3v33.8h-1.3z"/><path class="st4" d="M379.7 207.8h9.3v53.8h-9.3z"/><path class="st6" d="M383.7 242.5h1.3v15.1h-1.3z"/><path class="st4" d="M40.3 151h49.4v7.7H40.3z"/><path class="st11" d="M48.5 31.5h423.7"/></svg>