<svg xmlns="http://www.w3.org/2000/svg" id="Layer_1" viewBox="0 0 302.1 173.6"><style>.st0{fill:#005291}.st1{fill:#006fc8}.st2{fill:#29ff92}.st4{fill:none;stroke:#fff;stroke-width:1.5;stroke-miterlimit:10}.st5{fill:#00bcf2}.st10,.st11,.st12,.st6,.st7,.st8,.st9{fill:none;stroke:#29ff92;stroke-width:1.5;stroke-linecap:round;stroke-miterlimit:10}.st7{stroke-dasharray:.9609,3.8435}.st8{stroke-dasharray:.9809,3.9237}.st9{stroke-dasharray:.9859,3.9435}.st10{stroke-dasharray:1.0389,4.1556}.st11{stroke-dasharray:1.0411,4.1645}.st12{stroke-dasharray:1.0235,4.094}</style><path d="M121.2 82.8h30.9l20.5-51.4h-30.9z" class="st0"/><path d="M172.6 134.2h-30.9l-20.5-51.4h30.9z" class="st1"/><circle cx="8.2" cy="6.7" r="3.5" class="st2"/><circle cx="57" cy="46.3" r="3.5" class="st2"/><circle cx="12.6" cy="31.4" r="3.5" class="st2"/><circle cx="72.7" cy="30.3" r="3.5" class="st2"/><circle cx="117.8" cy="71.1" r="3.5" class="st2"/><path d="M137.5 75.2c1.1 0 2 .9 2 2s-.9 2-2 2-2-.9-2-2c0-1 .9-2 2-2m0-1.5c-2 0-3.5 1.6-3.5 3.5 0 2 1.6 3.5 3.5 3.5 2 0 3.5-1.6 3.5-3.5.1-1.9-1.5-3.5-3.5-3.5z" class="st2"/><circle cx="153.9" cy="68.6" r="3.5" class="st2"/><path d="M117.8 49.3c1.1 0 2 .9 2 2s-.9 2-2 2-2-.9-2-2 .9-2 2-2m0-1.5c-2 0-3.5 1.6-3.5 3.5 0 2 1.6 3.5 3.5 3.5s3.5-1.6 3.5-3.5-1.5-3.5-3.5-3.5zm-29 48.5c1.1 0 2 .9 2 2s-.9 2-2 2-2-.9-2-2 .8-2 2-2m0-1.5c-2 0-3.5 1.6-3.5 3.5 0 2 1.6 3.5 3.5 3.5 2 0 3.5-1.6 3.5-3.5s-1.6-3.5-3.5-3.5zm-53.3-39c1.1 0 2 .9 2 2s-.9 2-2 2-2-.9-2-2 .9-2 2-2m0-1.5c-2 0-3.5 1.6-3.5 3.5 0 2 1.6 3.5 3.5 3.5s3.5-1.6 3.5-3.5c.1-2-1.5-3.5-3.5-3.5z" class="st2"/><circle cx="32" cy="82.6" r="3.5" class="st2"/><circle cx="49.9" cy="81.9" r="3.5" class="st2"/><circle cx="11.7" cy="111.4" r="3.5" class="st2"/><path d="M80.8 70.1c1.1 0 2 .9 2 2s-.9 2-2 2-2-.9-2-2c-.1-1.1.9-2 2-2m0-1.5c-2 0-3.5 1.6-3.5 3.5 0 2 1.6 3.5 3.5 3.5 2 0 3.5-1.6 3.5-3.5s-1.6-3.5-3.5-3.5z" class="st2"/><circle cx="59.5" cy="65.6" r="3.5" class="st2"/><path d="M26.8 125.6c1.1 0 2 .9 2 2s-.9 2-2 2-2-.9-2-2 .9-2 2-2m0-1.5c-2 0-3.5 1.6-3.5 3.5 0 2 1.6 3.5 3.5 3.5s3.5-1.6 3.5-3.5c.1-2-1.5-3.5-3.5-3.5z" class="st2"/><circle cx="9.7" cy="139.1" r="3.5" class="st2"/><path d="M8.7 164.8c1.1 0 2 .9 2 2s-.9 2-2 2-2-.9-2-2 .9-2 2-2m0-1.5c-2 0-3.5 1.6-3.5 3.5 0 2 1.6 3.5 3.5 3.5s3.5-1.6 3.5-3.5c.1-1.9-1.5-3.5-3.5-3.5z" class="st2"/><circle cx="117.3" cy="115.5" r="3.5" class="st2"/><path d="M138.3 104.1c1.1 0 2 .9 2 2s-.9 2-2 2-2-.9-2-2 .9-2 2-2m0-1.5c-2 0-3.5 1.6-3.5 3.5 0 2 1.6 3.5 3.5 3.5s3.5-1.6 3.5-3.5-1.5-3.5-3.5-3.5z" class="st2"/><circle cx="128.7" cy="90.1" r="3.5" class="st2"/><path d="M62.2 101.8c1.1 0 2 .9 2 2s-.9 2-2 2-2-.9-2-2 .8-2 2-2m0-1.5c-2 0-3.5 1.6-3.5 3.5 0 2 1.6 3.5 3.5 3.5 2 0 3.5-1.6 3.5-3.5s-1.6-3.5-3.5-3.5z" class="st2"/><circle cx="79.8" cy="117" r="3.5" class="st2"/><circle cx="30.4" cy="15.7" r="3.5" class="st2"/><circle cx="12.6" cy="55.9" r="3.5" class="st2"/><path d="M33.9 31.2c1.1 0 2 .9 2 2s-.9 2-2 2-2-.9-2-2 .9-2 2-2m0-1.5c-2 0-3.5 1.6-3.5 3.5 0 2 1.6 3.5 3.5 3.5 2 0 3.5-1.6 3.5-3.5s-1.5-3.5-3.5-3.5z" class="st2"/><circle cx="86.1" cy="36.8" r="3.5" class="st2"/><circle cx="53.4" cy="20.5" r="3.5" class="st2"/><path d="M77.2 47.8c1.1 0 2 .9 2 2s-.9 2-2 2-2-.9-2-2 .9-2 2-2m0-1.5c-2 0-3.5 1.6-3.5 3.5 0 2 1.6 3.5 3.5 3.5 2 0 3.5-1.6 3.5-3.5.1-2-1.5-3.5-3.5-3.5zM13.6 78.8c1.1 0 2 .9 2 2s-.9 2-2 2-2-.9-2-2 .9-2 2-2m0-1.5c-2 0-3.5 1.6-3.5 3.5 0 2 1.6 3.5 3.5 3.5s3.5-1.6 3.5-3.5-1.6-3.5-3.5-3.5z" class="st2"/><circle cx="94.8" cy="63" r="3.5" class="st2"/><circle cx="102.8" cy="82.8" r="3.5" class="st2"/><circle cx="35.5" cy="104.8" r="3.5" class="st2"/><circle cx="49.9" cy="125.2" r="3.5" class="st2"/><circle cx="30.4" cy="150" r="3.5" class="st2"/><circle cx="73.7" cy="87.2" r="3.5" class="st2"/><circle cx="98.8" cy="124.1" r="3.5" class="st2"/><circle cx="51.4" cy="146.5" r="3.5" class="st2"/><path d="M73.8 134.3c1.1 0 2 .9 2 2s-.9 2-2 2-2-.9-2-2 .9-2 2-2m0-1.5c-2 0-3.5 1.6-3.5 3.5 0 2 1.6 3.5 3.5 3.5s3.5-1.6 3.5-3.5-1.5-3.5-3.5-3.5z" class="st2"/><circle cx="109.9" cy="101.3" r="3.5" class="st2"/><circle cx="153.4" cy="96.9" r="3.5" class="st2"/><circle cx="101" cy="44.2" r="3.5" class="st2"/><circle cx="135.2" cy="59.6" r="3.5" class="st2"/><circle cx="151.6" cy="82.6" r="3.5" class="st2"/><circle cx="270.6" cy="134.2" r="3.7" class="st2"/><path d="M278.1 128.9h15.8m-15.8 3.6h18.3m-18.3 3.5h18.3m-18.3 3.6h15.8" class="st4"/><circle cx="270.6" cy="108.5" r="3.7" class="st2"/><path d="M278.1 103.2h17.5m-17.5 3.6h14m-14 3.5h11.7m-11.7 3.6h19.4" class="st4"/><circle cx="270.6" cy="82.8" r="3.7" class="st2"/><path d="M278.1 77.5h10.6m-10.6 3.6H295m-16.9 3.5h9.6m-9.6 3.6H291" class="st4"/><circle cx="270.6" cy="57.1" r="3.7" class="st2"/><path d="M278.1 51.8h18m-18 3.6h17.3m-17.3 3.5H291m-12.9 3.6h16.2" class="st4"/><circle cx="270.6" cy="31.4" r="3.7" class="st2"/><path d="M278.1 26.1H295m-16.9 3.5h10m-10 3.6h18m-18 3.6h12.5" class="st4"/><path d="M193.1 82.8h-30.9l-20.5 51.4h30.9z" class="st0"/><path d="M141.7 31.4h30.9l20.5 51.4h-30.9z" class="st5"/><path d="M198.1 82.8h.5" class="st6"/><path d="M202.4 82.8h55.8" class="st7"/><path d="M260.1 82.8h.5M191 65h.5" class="st6"/><path d="M195.4 65h37.3" class="st8"/><path d="M234.6 65h.5l.4-.3" class="st6"/><path d="M238.3 61.9l23-23" class="st9"/><path d="M262.7 37.5l.3-.3m-72 63.4h.5" class="st6"/><path d="M195.4 100.6h37.3" class="st8"/><path d="M234.6 100.6h.5l.4.4" class="st6"/><path d="M238.3 103.8l23 23" class="st9"/><path d="M262.7 128.2l.3.3m-.3-65.5l-.3.3" class="st6"/><path d="M259.5 66.2l-5.9 5.9" class="st10"/><path d="M252.1 73.6l-.3.3h-.5" class="st6"/><path d="M247.1 73.9h-50" class="st11"/><path d="M195 73.9h-.5m68.8 28.7l-.3-.4" class="st6"/><path d="M260.1 99.3l-5.8-5.8" class="st12"/><path d="M252.9 92.1l-.4-.4h-.5" class="st6"/><path d="M247.8 91.7h-49.9" class="st11"/><path d="M195.8 91.7h-.5" class="st6"/></svg>