<svg id="Layer_1" xmlns="http://www.w3.org/2000/svg" viewBox="0 0 176.6 167.7"><style>.st0{fill:none;stroke:#005291;stroke-width:1.5;stroke-miterlimit:10}.st1{fill:#00bcf2}.st2{fill:#005291}.st3{fill:none;stroke:#fff;stroke-width:1.5;stroke-linecap:round;stroke-miterlimit:10}.st4{fill:#fff}.st5{fill:#27f089}.st6{fill:none;stroke:#27f089;stroke-width:1.5;stroke-miterlimit:10}</style><path class="st0" d="M28.2 28.4v-22h22m0 114h-22v-22m98.3-92h22v22m0 70v22h-22"/><path class="st1" d="M148.5 154.8H30.6l33.6-19.1h50.7z"/><path class="st2" d="M30.6 154.8h117.9v7.2H30.6z"/><path class="st3" d="M6.8 43.1h163v40.5H6.8z"/><circle class="st2" cx="64.2" cy="135.6" r="3.6"/><circle class="st2" cx="76.2" cy="135.6" r="3.6"/><circle class="st2" cx="100.4" cy="135.6" r="3.6"/><circle class="st2" cx="112.4" cy="135.6" r="3.6"/><circle class="st2" cx="58.2" cy="145.5" r="3.6"/><circle class="st2" cx="70.3" cy="145.5" r="3.6"/><circle class="st2" cx="82.3" cy="145.5" r="3.6"/><circle class="st2" cx="94.4" cy="145.5" r="3.6"/><circle class="st2" cx="106.5" cy="145.5" r="3.6"/><circle class="st2" cx="118.5" cy="145.5" r="3.6"/><path class="st3" d="M88.3 83.6v22.7"/><path class="st4" d="M72.9 54.8h3.8v17.5h-3.8z"/><path transform="rotate(90 74.8 63.548)" class="st4" d="M72.9 54.8h3.8v17.5h-3.8z"/><path transform="rotate(90 101.8 63.548)" class="st4" d="M99.9 54.8h3.8v17.5h-3.8z"/><path class="st5" d="M64.2 22.8H44.5c-1.7 0-3-1.3-3-3s1.3-3 3-3h19.8c1.7 0 3 1.3 3 3-.1 1.6-1.4 3-3.1 3zm57.3 0H75.4c-1.7 0-3-1.3-3-3s1.3-3 3-3h46.1c1.7 0 3 1.3 3 3 0 1.6-1.4 3-3 3zm10.6 0c-1.7 0-3-1.3-3-3s1.3-3 3-3 3 1.3 3 3c0 1.6-1.3 3-3 3z"/><path class="st6" d="M18.8 64.4l18.7 10.8V53.6z"/><circle class="st3" cx="88.3" cy="118.2" r="11.9"/><circle class="st2" cx="88.3" cy="118.2" r="6.5"/><path class="st6" d="M163 64.4l-18.6-10.8v21.6zM42.5 58v12.8M139.4 58v12.8"/><path class="st2" d="M126.5 104.2h3.4v12.9h-3.4zm5.3 5.2h3.4v7.8h-3.4zm5.3-13.3h3.4v21.1h-3.4zm5.4 13.8h3.4v7.3h-3.4zM30.7 97.4h3.4v19.8h-3.4zm5.4 8.9h3.4v10.8h-3.4zm5.3 9.3h3.4v1.6h-3.4zm5.3-11.1h3.4v12.7h-3.4z"/></svg>