<svg id="Layer_1" xmlns="http://www.w3.org/2000/svg" viewBox="0 0 636.5 198.2"><style>.st0{fill:none;stroke:#29ff92;stroke-width:1.5;stroke-miterlimit:10}.st1{fill:#141414}.st2{fill:#00bcf2}.st3{fill:#005291}.st4{fill:none;stroke:#fff;stroke-width:1.5;stroke-miterlimit:10}.st5{fill:#fff}</style><path class="st0" d="M17.8 180.4c91.6-27.4 193.4-42.7 300.5-42.7s208.9 15.3 300.5 42.7c0 0 13.7-40.6 13.7-78.7s-13.7-78.6-13.7-78.6c-91.6 27.4-193.4 42.7-300.5 42.7S109.4 50.5 17.8 23.1c0 0-13.7 40.6-13.7 78.7s13.7 78.6 13.7 78.6zm589.6-154v150.7M582.3 33.2v137M557.1 39.3v124.8M532 44.8v113.9M506.8 49.5v104.4M481.7 53.6v96.2m-25.1-92.7v89.2M431.4 60v83.4m-25.1-81.1v78.9m-25.1-77.5v76M356 65.2v73.1m-25.1-72.5v71.9m-25.2-72v72.1m-25.1-72.6v73.1M255.5 64v75.4m-25.2-76.6v77.9M205.2 60v83.4m-25.1-86.3v89.2m-25.2-92.7v96.2M129.8 49.5v104.4M104.6 44.8v113.9M79.5 39.3v124.8M54.4 33.2v137M29.2 26.4v150.7"/><path class="st0" d="M17.8 180.4c91.6-27.4 193.4-42.7 300.5-42.7s208.9 15.3 300.5 42.7m13.7-78.7H4.1m626.6-26.2c-30.5 9.1-276.6 14.2-312.4 14.2S36.5 84.6 5.9 75.5"/><path class="st0" d="M625.9 49.3c-61.1 18.3-236.2 28.5-307.6 28.5S71.7 67.6 10.7 49.3"/><path class="st0" d="M618.8 23.1c-91.6 27.4-193.4 42.7-300.5 42.7S109.4 50.5 17.8 23.1M630.7 128c-30.5-9.1-276.6-14.2-312.4-14.2S36.5 118.9 5.9 128"/><path class="st0" d="M625.9 154.2c-61.1-18.3-236.2-28.5-307.6-28.5S71.7 135.9 10.7 154.2"/><path class="st0" d="M618.8 180.4c-91.6-27.4-193.4-42.7-300.5-42.7S109.4 153 17.8 180.4"/><path class="st1" d="M265.3 131.7v-60l52.9-24.3 53 24.3v60l-53 24.3z"/><path class="st2" d="M318.2 145l-42.9-19.7V78.1l42.9-19.7z"/><path class="st3" d="M318.2 58.4l43 19.7v47.2l-43 19.7z"/><path class="st1" d="M214.2 128.5c0-8.9 7.2-16.1 16.1-16.1s16.1 7.2 16.1 16.1-7.2 16.1-16.1 16.1c-8.9 0-16.1-7.3-16.1-16.1z"/><circle class="st4" cx="230.3" cy="128.5" r="11.1"/><path transform="rotate(-45.001 230.225 128.406)" class="st3" d="M225.7 123.9h9v9h-9z"/><path class="st1" d="M113.3 84.9c0-8.9 7.2-16.1 16.1-16.1 8.9 0 16.1 7.2 16.1 16.1s-7.2 16.1-16.1 16.1c-8.8 0-16.1-7.2-16.1-16.1z"/><circle class="st4" cx="129.4" cy="84.9" r="11.1"/><path transform="rotate(-45.001 129.436 84.818)" class="st2" d="M124.9 80.3h9v9h-9z"/><path class="st1" d="M15.8 125.5c0-8.9 7.2-16.1 16.1-16.1 8.9 0 16.1 7.2 16.1 16.1s-7.2 16.1-16.1 16.1c-8.8 0-16.1-7.2-16.1-16.1z"/><circle class="st4" cx="31.9" cy="125.5" r="11.1"/><path transform="rotate(-45.001 31.96 125.407)" class="st3" d="M27.5 120.9h9v9h-9z"/><path class="st1" d="M566.2 81.1c0-8.9 7.2-16.1 16.1-16.1s16.1 7.2 16.1 16.1-7.2 16.1-16.1 16.1c-8.9 0-16.1-7.2-16.1-16.1z"/><circle class="st4" cx="582.3" cy="81.1" r="11.1"/><path transform="rotate(-45.001 582.226 81.052)" class="st3" d="M577.7 76.5h9v9h-9z"/><path class="st1" d="M465.6 117.8c0-8.9 7.2-16.1 16.1-16.1s16.1 7.2 16.1 16.1-7.2 16.1-16.1 16.1c-8.9 0-16.1-7.2-16.1-16.1z"/><circle class="st4" cx="481.7" cy="117.8" r="11.1"/><path transform="rotate(-45.001 481.647 117.782)" class="st2" d="M477.1 113.3h9v9h-9z"/><path class="st4" d="M234.6 138.7l19.1 46.5h42.5"/><path class="st3" d="M201.6 18.8h11v8.5h-11zm14.8 0h11v8.5h-11zm14.8 0h11v8.5h-11zm14.9 0h11v8.5h-11zm14.8 0h11v8.5h-11zm14.8 0h11v8.5h-11zm14.9 0h11v8.5h-11zm14.8 0h11v8.5h-11zm14.8 0h11v8.5h-11zm14.9 0h11v8.5h-11zm14.8 0h11v8.5h-11zm24.3 7h-8v-5.5h8v5.5m1.5 1.5v-8.5h-11v8.5h11zm13.4-1.5h-8v-5.5h8v5.5m1.5 1.5v-8.5h-11v8.5h11zm13.3-1.5h-8v-5.5h8v5.5m1.5 1.5v-8.5h-11v8.5h11zm13.3-1.5h-8v-5.5h8v5.5m1.5 1.5v-8.5h-11v8.5h11zm13.4-1.5h-8v-5.5h8v5.5m1.5 1.5v-8.5h-11v8.5h11z"/><path class="st4" d="M296.2 174.3h64.7v21.3h-64.7z"/><path class="st5" d="M300.7 178.8h15.6v4.8h-15.6zm0 7.7h21.2v4.8h-21.2z"/><path class="st3" d="M321.9 186.4h8.5v4.8h-8.5zm-5.6-7.6h40v4.8h-40z"/><path class="st5" d="M355.4 13.9l6.1-10.5h-12.2z"/></svg>