<svg id="Layer_1" xmlns="http://www.w3.org/2000/svg" viewBox="0 0 500.7 312"><style>.st0{fill:#00bcf2}.st1{fill:#006fc8}.st2{fill:#005291}.st3,.st4{fill:none;stroke:#29ff92;stroke-width:1.5;stroke-linecap:round;stroke-miterlimit:10}.st4{stroke:#fff}.st5{fill:#29ff92}.st6{fill:#fff}.st7{fill:none;stroke:#fff}.st7,.st8,.st9{stroke-width:1.5;stroke-miterlimit:10}.st8{fill:none;stroke-linecap:round;stroke:#005291}.st9{stroke:#fff}.st10,.st9{fill:#141414}</style><path class="st0" d="M99.2 88.2L78 99.4l21.2 48.4 21.2-48.4z"/><path class="st1" d="M78 99.4l21.2 48.4v-37.1z"/><path class="st2" d="M120.4 99.4l-21.2 48.4v-37.1z"/><path class="st0" d="M23.9 196.1L2.7 207.4l21.2 48.3 21.2-48.3z"/><path class="st1" d="M2.7 207.4l21.2 48.3v-37.1z"/><path class="st2" d="M45.1 207.4l-21.2 48.3v-37.1z"/><path class="st0" d="M174.4 196.1l-21.2 11.3 21.2 48.3 21.2-48.3z"/><path class="st1" d="M153.2 207.4l21.2 48.3v-37.1z"/><path class="st2" d="M195.6 207.4l-21.2 48.3v-37.1z"/><path class="st3" d="M86.5 133.8L37 197.1m122.2 0l-49.4-63.3m248.3 0l-49.5 63.3m122.2 0l-49.5-63.3"/><path class="st0" d="M234.9 3.5l-20.3 10.8 20.3 46.5 20.4-46.5z"/><path class="st1" d="M214.6 14.3l20.3 46.5V25.1z"/><path class="st2" d="M255.3 14.3l-20.4 46.5V25.1z"/><path class="st3" d="M115.4 90.5l100.7-54.6m37.7 0l100.7 54.6"/><path class="st4" d="M179.7 186.2l40 21.2-13.3 7"/><ellipse transform="matrix(.03586 -.9994 .9994 .03586 .827 367.023)" class="st5" cx="190.6" cy="183.1" rx="3.4" ry="5.6"/><ellipse transform="matrix(.03586 -.9994 .9994 .03586 5.843 383.507)" class="st5" cx="201.7" cy="188.7" rx="3.4" ry="5.6"/><ellipse transform="matrix(.03586 -.9994 .9994 .03586 203.077 425.966)" class="st5" cx="322.3" cy="107.7" rx="3.4" ry="5.6"/><ellipse transform="matrix(.03586 -.9994 .9994 .03586 208.093 442.449)" class="st5" cx="333.4" cy="113.4" rx="3.4" ry="5.6"/><path class="st6" d="M212.5 192h.3c2.7.1 4.6 1.4 4.6 2.5s-1.8 2.2-4.4 2.2h-.3c-1.3 0-2.6-.4-3.4-1-.7-.5-1.1-1-1.1-1.6-.1-1 1.7-2.1 4.3-2.1m0-1c-3 0-5.3 1.4-5.4 3.2-.1 1.9 2.4 3.4 5.5 3.6h.3c3 0 5.3-1.4 5.4-3.2.1-1.9-2.4-3.4-5.5-3.6h-.3zm11.1 6.7h.3c2.7.1 4.6 1.4 4.6 2.5s-1.8 2.2-4.4 2.2h-.3c-2.7-.1-4.6-1.4-4.6-2.5s1.8-2.2 4.4-2.2m0-1c-3 0-5.3 1.4-5.4 3.2-.1 1.9 2.4 3.4 5.5 3.6h.3c3 0 5.3-1.4 5.4-3.2.1-1.9-2.4-3.4-5.5-3.6h-.3z"/><path class="st7" d="M346.6 110.7l-21.1-11.3 16.6-8.8"/><circle class="st8" cx="99.2" cy="114.9" r="47.1"/><path class="st8" d="M52 114.9h8.8m38.4-47.1v8.8m47.1 38.3h-8.8m-38.3 47.2v-8.8"/><circle class="st8" cx="446" cy="225.9" r="47.1"/><path class="st8" d="M398.8 225.9h8.8m38.4-47.1v8.8m47.1 38.3h-8.8M446 273.1v-8.8"/><circle class="st2" cx="446" cy="167.4" r="4.1"/><path class="st2" d="M54.7 75.6c1.5 0 2.6 1.2 2.6 2.6 0 1.5-1.2 2.6-2.6 2.6-1.5 0-2.6-1.2-2.6-2.6 0-1.4 1.2-2.6 2.6-2.6m0-1.5c-2.3 0-4.1 1.9-4.1 4.1 0 2.3 1.9 4.1 4.1 4.1 2.3 0 4.1-1.9 4.1-4.1.1-2.2-1.8-4.1-4.1-4.1z"/><ellipse transform="rotate(-14.693 46.86 90.708)" class="st2" cx="46.9" cy="90.7" rx="4.1" ry="4.1"/><ellipse transform="rotate(-29.39 42.433 104.788)" class="st2" cx="42.4" cy="104.8" rx="4.1" ry="4.1"/><ellipse transform="rotate(-44.086 41.711 119.5)" class="st2" cx="41.7" cy="119.5" rx="4.1" ry="4.1"/><ellipse transform="rotate(-58.774 44.765 133.932)" class="st2" cx="44.8" cy="133.9" rx="4.1" ry="4.1"/><ellipse transform="rotate(-76.256 459.834 169.116)" class="st2" cx="459.9" cy="169.1" rx="4.1" ry="4.1"/><path class="st2" d="M473 171.4c.4 0 .8.1 1.2.3.6.3 1.1.9 1.3 1.5s.1 1.4-.2 2c-.5.9-1.4 1.4-2.3 1.4-.4 0-.8-.1-1.2-.3-.6-.3-1.1-.9-1.3-1.5s-.1-1.4.2-2c.4-.8 1.3-1.4 2.3-1.4m0-1.5c-1.5 0-2.9.8-3.7 2.2-1.1 2-.3 4.5 1.8 5.6.6.3 1.3.5 1.9.5 1.5 0 2.9-.8 3.7-2.2 1.1-2 .3-4.5-1.8-5.6-.6-.3-1.3-.5-1.9-.5zm11.5 9.4c.6 0 1.3.2 1.7.7 1.1 1 1.2 2.6.2 3.7-.5.6-1.2.9-2 .9-.6 0-1.3-.2-1.7-.7-.5-.5-.8-1.1-.9-1.8 0-.7.2-1.4.6-1.9.6-.6 1.4-.9 2.1-.9m0-1.5c-1.2 0-2.3.5-3.1 1.4-1.5 1.7-1.3 4.3.4 5.8.8.7 1.8 1 2.7 1 1.2 0 2.3-.5 3.1-1.4 1.5-1.7 1.3-4.3-.4-5.8-.7-.7-1.7-1-2.7-1zm9.4 11.9c.9 0 1.7.4 2.2 1.1.4.6.6 1.3.4 2-.1.7-.5 1.3-1.1 1.7-.4.3-1 .5-1.5.5-.9 0-1.7-.4-2.2-1.1-.4-.6-.6-1.3-.4-2 .1-.7.5-1.3 1.1-1.7.4-.3.9-.5 1.5-.5m0-1.5c-.8 0-1.6.2-2.4.8-1.9 1.3-2.3 3.9-1 5.8.8 1.1 2.1 1.8 3.4 1.8.8 0 1.6-.2 2.4-.8 1.9-1.3 2.3-3.9 1-5.8-.9-1.2-2.1-1.8-3.4-1.8z"/><path class="st9" d="M194.2 40.7l-43.6 25.1 12.2 6.1 43.6-25.1z"/><path class="st6" d="M157.7 65.6l36.6-21.1 4.9 2.5-36.5 21.1z"/><path class="st10" d="M158.8 65.6l13.5-7.8 3.8 1.9-13.4 7.8z"/><path class="st6" d="M172.3 58.4l2.8 1.4-12.4 7.2-2.8-1.4 12.4-7.2m-.1-1.1l-14.5 8.4 4.9 2.5 14.5-8.4-4.9-2.5zM23 293.3c-2.3 1.3-4.9 1.9-7.8 1.9-3.3 0-6-1-8-3.1-2.1-2.1-3.1-4.8-3.1-8.2 0-3.5 1.1-6.3 3.4-8.5 2.2-2.2 5.1-3.3 8.6-3.3 2.5 0 4.6.4 6.3 1.1v3.8c-1.7-1.1-3.8-1.7-6.1-1.7-2.4 0-4.3.8-5.9 2.4-1.5 1.6-2.3 3.6-2.3 6.1 0 2.6.7 4.6 2 6.1s3.1 2.2 5.3 2.2c1.5 0 2.9-.3 4-.9v-5.3h-4.7v-3.1H23v10.5zm16.5 1.5H36v-2.5c-1.1 1.9-2.7 2.9-4.9 2.9-1.6 0-2.8-.4-3.7-1.3-.9-.9-1.3-2-1.3-3.4 0-3 1.7-4.8 5.2-5.3l4.7-.7c0-2.3-1.1-3.4-3.3-3.4-1.9 0-3.6.7-5.2 2V280c1.7-1 3.6-1.5 5.8-1.5 4 0 6.1 2 6.1 6v10.3zM36 287l-3.4.5c-1 .1-1.8.4-2.4.8-.5.4-.8 1-.8 1.9 0 .7.2 1.2.7 1.7.5.4 1.1.6 1.9.6 1.1 0 2-.4 2.7-1.2.7-.8 1.1-1.8 1.1-2.9V287zm31.7 7.8h-3.6v-8.7c0-1.7-.2-2.9-.7-3.6-.5-.8-1.3-1.1-2.4-1.1-.9 0-1.8.5-2.4 1.4-.7.9-1 2.1-1 3.4v8.7H54v-9c0-3-1.1-4.5-3.2-4.5-1 0-1.8.4-2.4 1.3-.6.9-.9 2.1-.9 3.5v8.7h-3.6v-16h3.6v2.5h.1c1.2-1.9 2.8-2.9 5-2.9 1.1 0 2.1.3 2.9.9s1.4 1.4 1.7 2.4c1.2-2.2 3-3.3 5.3-3.3 3.5 0 5.3 2.2 5.3 6.5v9.8zm17.8-7H74.6c0 1.5.5 2.6 1.4 3.4.9.8 2.1 1.2 3.6 1.2 1.7 0 3.3-.5 4.7-1.5v2.9c-1.5.9-3.4 1.4-5.8 1.4s-4.2-.7-5.5-2.2-2-3.5-2-6.1c0-2.5.7-4.5 2.2-6.1 1.5-1.6 3.3-2.4 5.5-2.4s3.9.7 5.1 2.1 1.8 3.4 1.8 5.9v1.4zm-3.5-2.5c0-1.3-.3-2.3-.9-3-.6-.7-1.4-1.1-2.5-1.1-1 0-1.9.4-2.6 1.1-.7.8-1.2 1.8-1.3 3H82zm34.3 9.5h-4.1l-2-5.7h-8.8l-1.9 5.7h-4.1l8.4-22.4h4.2l8.3 22.4zm-7.1-8.7l-3.1-8.9c-.1-.3-.2-.8-.3-1.4h-.1c-.1.6-.2 1.1-.3 1.4l-3.1 8.9h6.9zm13.8 8.7h-3.8v-22.4h3.8v22.4z"/><path class="st0" d="M370.7 88.2l-21.2 11.2 21.2 48.4 21.2-48.4z"/><path class="st1" d="M349.5 99.4l21.2 48.4v-37.1z"/><path class="st2" d="M391.9 99.4l-21.2 48.4v-37.1z"/><path class="st0" d="M295.5 196.1l-21.2 11.3 21.2 48.3 21.2-48.3z"/><path class="st1" d="M274.3 207.4l21.2 48.3v-37.1z"/><path class="st2" d="M316.7 207.4l-21.2 48.3v-37.1z"/><path class="st0" d="M446 196.1l-21.2 11.3 21.2 48.3 21.2-48.3z"/><path class="st1" d="M424.8 207.4l21.2 48.3v-37.1z"/><path class="st2" d="M467.2 207.4L446 255.7v-37.1z"/></svg>