<svg id="Layer_1" xmlns="http://www.w3.org/2000/svg" viewBox="0 0 234 97.9"><style>.st0{fill:none;stroke:#29ff92;stroke-width:1.5;stroke-linecap:round;stroke-linejoin:round;stroke-miterlimit:10}.st1{fill:#29ff92}.st2{fill:#005291}.st3{fill:#00bcf2}.st4{fill:#006fc8}.st5{fill:#fff}</style><path class="st0" d="M2 12.5v-10h10m210 0h10v10m0 72.9v10h-10m-210 0H2v-10"/><circle class="st1" cx="29" cy="39" r="3.1"/><circle class="st1" cx="42" cy="39" r="3.1"/><circle class="st1" cx="35.5" cy="49.1" r="3.1"/><circle class="st1" cx="48.4" cy="49.1" r="3.1"/><circle class="st1" cx="48.4" cy="29" r="3.1"/><circle class="st1" cx="61.3" cy="29" r="3.1"/><circle class="st1" cx="54.9" cy="39" r="3.1"/><circle class="st1" cx="67.8" cy="39" r="3.1"/><circle class="st1" cx="61.3" cy="49.1" r="3.1"/><circle class="st1" cx="74.2" cy="49.1" r="3.1"/><circle class="st1" cx="61.3" cy="69.2" r="3.1"/><circle class="st1" cx="67.8" cy="59.1" r="3.1"/><circle class="st1" cx="74.2" cy="29" r="3.1"/><circle class="st1" cx="80.7" cy="39" r="3.1"/><circle class="st1" cx="87.1" cy="49.1" r="3.1"/><circle class="st1" cx="74.2" cy="69.2" r="3.1"/><circle class="st1" cx="80.7" cy="59.1" r="3.1"/><circle class="st1" cx="87.1" cy="29" r="3.1"/><circle class="st1" cx="93.6" cy="39" r="3.1"/><circle class="st1" cx="100" cy="49.1" r="3.1"/><circle class="st1" cx="87.1" cy="69.2" r="3.1"/><circle class="st1" cx="93.6" cy="59.1" r="3.1"/><circle class="st1" cx="100" cy="29" r="3.1"/><circle class="st1" cx="106.5" cy="39" r="3.1"/><circle class="st1" cx="113" cy="49.1" r="3.1"/><circle class="st1" cx="100" cy="69.2" r="3.1"/><circle class="st1" cx="106.5" cy="59.1" r="3.1"/><circle class="st1" cx="54.9" cy="59.1" r="3.1"/><circle class="st1" cx="48.4" cy="69.2" r="3.1"/><circle class="st1" cx="35.5" cy="69.2" r="3.1"/><circle class="st1" cx="42" cy="59.1" r="3.1"/><circle class="st1" cx="29" cy="59.1" r="3.1"/><circle class="st1" cx="22.6" cy="29" r="3.1"/><circle class="st1" cx="22.6" cy="69.2" r="3.1"/><circle class="st1" cx="35.5" cy="29" r="3.1"/><path class="st2" d="M151.6 55.8c0-.2 0-.4.1-.6 0-.4.1-.7.1-1.1v-7.9 2.2c0 .4-.1.7-.1 1.1 0 .2 0 .4-.1.6 0 .3-.1.7-.1 1 0 .2-.1.4-.1.6-.1.3-.1.6-.2.9 0 .2-.1.5-.1.7-.1.3-.1.6-.2.9-.1.2-.1.5-.2.7l-.3.9c-.1.2-.1.5-.2.7l-.3.9c-.1.2-.1.4-.2.6l-.3.6c-.1.3-.3.7-.4 1-.1.2-.2.4-.3.7-.1.3-.3.6-.4.9-.1.2-.2.4-.3.7-.2.3-.3.6-.5.9-.1.2-.3.4-.4.7-.2.3-.3.6-.5.8-.1.2-.3.4-.4.6-.3.4-.5.8-.8 1.2-.1.2-.2.3-.3.5l-1.2 1.5-.1.1c-.4.5-.8.9-1.2 1.3l-.4.4c-.3.3-.6.7-1 1-.2.1-.3.3-.5.4-.4.3-.8.7-1.1 1l-.3.3-1.5 1.2c-.1.1-.3.2-.4.3-.4.3-.8.6-1.2.8-.2.1-.4.2-.5.3-.4.2-.8.5-1.2.7-.2.1-.3.2-.5.3-.6.3-1.2.6-1.7.9h-.1c-.6.3-1.1.5-1.7.8-.2.1-.4.1-.6.2-.4.2-.9.3-1.3.5-.2.1-.4.1-.6.2-.5.2-1 .3-1.5.4-.1 0-.3.1-.4.1-.6.2-1.3.3-2 .4-.2 0-.3.1-.5.1-.5.1-1 .2-1.5.2-.2 0-.4.1-.7.1-.5.1-1 .1-1.5.1h-.6c-.7 0-1.4.1-2.1.1-19.2 0-34.8-15.5-34.8-34.6v5.7C82.4 70.5 98 86 117.2 86c.7 0 1.4 0 2.1-.1h.6c.5 0 1-.1 1.5-.1.2 0 .4-.1.7-.1.5-.1 1-.2 1.5-.2.2 0 .3-.1.5-.1.7-.1 1.3-.3 2-.4.1 0 .3-.1.4-.1.5-.1 1-.3 1.5-.4.2-.1.4-.1.6-.2.4-.2.9-.3 1.3-.5.2-.1.4-.1.6-.2.6-.2 1.2-.5 1.7-.8h.1c.6-.3 1.2-.6 1.7-.9.2-.1.3-.2.5-.3.4-.2.8-.5 1.2-.7.2-.1.4-.2.6-.4.4-.3.8-.5 1.2-.8.1-.1.3-.2.4-.3l1.5-1.2.3-.3c.4-.3.8-.7 1.1-1 .2-.1.3-.3.5-.4.3-.3.7-.6 1-1l.4-.4c.4-.4.8-.9 1.2-1.3l.1-.1 1.2-1.5c.1-.2.2-.3.3-.5.3-.4.5-.8.8-1.2.1-.1.1-.2.2-.3.1-.1.1-.2.2-.3.2-.3.3-.6.5-.8.1-.2.3-.4.4-.7.2-.3.3-.6.5-.9.1-.2.2-.4.3-.7.2-.3.3-.6.4-.9.1-.2.2-.4.3-.7.1-.3.3-.7.4-1 .1-.2.1-.3.2-.5v-.1c.1-.2.1-.4.2-.6l.3-.9c.1-.2.1-.5.2-.7l.3-.9c.1-.2.1-.5.2-.7.1-.3.1-.6.2-.9.1-.2.1-.5.1-.7 0-.2.1-.4.1-.6 0-.1 0-.2.1-.3 0-.2.1-.4.1-.6 0-.2 0-.5.1-.9z"/><path class="st3" d="M117 11.6c19.2 0 34.8 15.5 34.8 34.6S136.2 80.8 117 80.8c-19.2 0-34.8-15.5-34.8-34.6S97.8 11.6 117 11.6z"/><path class="st4" d="M117 74c-15.4 0-27.9-12.4-27.9-27.7s12.5-27.7 27.9-27.7c15.4 0 27.9 12.4 27.9 27.7S132.4 74 117 74z"/><path class="st2" d="M117 22.8c14.7 0 26.7 11.3 27.8 25.6.1-.7.1-1.4.1-2.1 0-15.3-12.5-27.7-27.9-27.7-15.4 0-27.9 12.4-27.9 27.7 0 .7 0 1.4.1 2.1 1.1-14.3 13.1-25.6 27.8-25.6z"/><path class="st5" d="M117 63.5c-3 0-5.4-2.4-5.4-5.4V38.6c0-3 2.4-5.4 5.4-5.4 3 0 5.4 2.4 5.4 5.4v19.5c0 3-2.4 5.4-5.4 5.4z"/></svg>