<svg id="Layer_1" xmlns="http://www.w3.org/2000/svg" viewBox="0 0 236 100.3"><style>.st0{fill:#00bcf2}.st1{fill:#006fc8}.st2{fill:#005291}.st3{fill:none;stroke:#29ff92;stroke-width:1.5;stroke-linecap:round;stroke-linejoin:round;stroke-miterlimit:10}</style><path class="st0" d="M118 30.8V50H98.9z"/><path class="st1" d="M137.2 50H118V30.8z"/><path class="st2" d="M118 69.2V50h19.2z"/><path class="st1" d="M98.9 50H118v19.2z"/><path class="st3" d="M105.1 37.1l-9.8-9.9m36 9.9l9.8-9.9m-9.8 35.7l9.8 9.9m-36-9.9l-9.8 9.9"/><path class="st0" d="M82.4 33.5V14.3h19.1z"/><path class="st1" d="M134.9 14.3H154v19.2z"/><path class="st2" d="M154 66.5v19.2h-19.1z"/><path class="st1" d="M101.5 85.7H82.4V66.5z"/><path class="st3" d="M3 13.7v-10h10m210 0h10v10m0 72.9v10h-10m-210 0H3v-10"/></svg>