<svg id="Layer_1" xmlns="http://www.w3.org/2000/svg" viewBox="0 0 218.6 299.3"><style>.st0{enable-background:new}.st1{fill:#005291}.st2{fill:#006fc8}.st3{fill:#00bcf2}.st4{fill:none;stroke:#29ff92;stroke-width:1.5;stroke-miterlimit:10}.st5{fill:#fff}.st6,.st7{stroke:#29ff92}.st6{fill:none;stroke-width:1.5;stroke-miterlimit:10;stroke-dasharray:3.0186,3.0186}.st7{stroke-dasharray:3.0499,3.0499}.st7,.st8,.st9{fill:none;stroke-width:1.5;stroke-miterlimit:10}.st8{stroke-dasharray:3.0477,3.0477;stroke:#29ff92}.st9{stroke:#fff;stroke-linecap:round}</style><g class="st0"><path class="st1" d="M141.6 29.3l-.1 46.1-39.8 23.1.1-46z"/><path class="st2" d="M101.8 52.5l-.1 46-40.1-23.1.2-46.1z"/><path class="st3" d="M141.6 29.3l-39.8 23.2-40-23.2 39.8-23.1z"/></g><path class="st4" d="M151.3 6.2c6.6 0 11.9 5.3 11.9 11.9v68.5c0 6.6-5.3 11.9-11.9 11.9m11.9-46h26.4"/><circle class="st4" cx="195" cy="52.5" r="5"/><path class="st5" d="M166.7 40.5h2.6v8.3h-2.6zm5 0h2.6v8.3h-2.6zm5 0h2.6v8.3h-2.6z"/><path class="st2" d="M3.8 196.4h8.3v8.3H3.8zm11 0h8.3v8.3h-8.3zm11 0h8.3v8.3h-8.3zm11.1 0h8.3v8.3h-8.3zm11 0h8.3v8.3h-8.3zm11 0h8.3v8.3h-8.3z"/><path class="st3" d="M70 196.4h8.3v8.3H70z"/><path class="st2" d="M81 196.4h8.3v8.3H81zm11 0h8.3v8.3H92zm11.1 0h8.3v8.3h-8.3zm11 0h8.3v8.3h-8.3zm11 0h8.3v8.3h-8.3zm11.1 0h8.3v8.3h-8.3zm11 0h8.3v8.3h-8.3zm11 0h8.3v8.3h-8.3z"/><path class="st3" d="M169.2 196.4h8.3v8.3h-8.3z"/><path class="st2" d="M180.3 196.4h8.3v8.3h-8.3zm11 0h8.3v8.3h-8.3z"/><path class="st1" d="M3.8 207.6h8.3v8.3H3.8z"/><path class="st3" d="M14.8 207.6h8.3v8.3h-8.3z"/><path class="st1" d="M25.8 207.6h8.3v8.3h-8.3z"/><path class="st2" d="M36.9 207.6h8.3v8.3h-8.3zm11 0h8.3v8.3h-8.3zm11 0h8.3v8.3h-8.3zm11.1 0h8.3v8.3H70zm11 0h8.3v8.3H81z"/><path class="st1" d="M92 207.6h8.3v8.3H92z"/><path class="st2" d="M103.1 207.6h8.3v8.3h-8.3zm11 0h8.3v8.3h-8.3z"/><path class="st1" d="M125.1 207.6h8.3v8.3h-8.3z"/><path class="st2" d="M136.2 207.6h8.3v8.3h-8.3zm11 0h8.3v8.3h-8.3z"/><path class="st3" d="M158.2 207.6h8.3v8.3h-8.3zm11 0h8.3v8.3h-8.3z"/><path class="st1" d="M180.3 207.6h8.3v8.3h-8.3z"/><path class="st2" d="M191.3 207.6h8.3v8.3h-8.3zM3.8 218.7h8.3v8.3H3.8zm11 0h8.3v8.3h-8.3zm11 0h8.3v8.3h-8.3zm11.1 0h8.3v8.3h-8.3z"/><path class="st3" d="M47.9 218.7h8.3v8.3h-8.3z"/><path class="st2" d="M58.9 218.7h8.3v8.3h-8.3z"/><path class="st1" d="M70 218.7h8.3v8.3H70z"/><path class="st2" d="M81 218.7h8.3v8.3H81zm11 0h8.3v8.3H92zm11.1 0h8.3v8.3h-8.3zm11 0h8.3v8.3h-8.3zm11 0h8.3v8.3h-8.3zm11.1 0h8.3v8.3h-8.3zm11 0h8.3v8.3h-8.3zm11 0h8.3v8.3h-8.3zm11 0h8.3v8.3h-8.3z"/><path class="st3" d="M180.3 218.7h8.3v8.3h-8.3z"/><path class="st2" d="M191.3 218.7h8.3v8.3h-8.3zM3.8 229.9h8.3v8.3H3.8zm11 0h8.3v8.3h-8.3zm11 0h8.3v8.3h-8.3zm11.1 0h8.3v8.3h-8.3zm11 0h8.3v8.3h-8.3zm11 0h8.3v8.3h-8.3zm11.1 0h8.3v8.3H70zm11 0h8.3v8.3H81zm11 0h8.3v8.3H92zm11.1 0h8.3v8.3h-8.3zm11 0h8.3v8.3h-8.3zm11 0h8.3v8.3h-8.3z"/><path class="st3" d="M136.2 229.9h8.3v8.3h-8.3z"/><path class="st2" d="M147.2 229.9h8.3v8.3h-8.3zm11 0h8.3v8.3h-8.3zm11 0h8.3v8.3h-8.3zm11.1 0h8.3v8.3h-8.3z"/><path class="st1" d="M191.3 229.9h8.3v8.3h-8.3z"/><path class="st2" d="M3.8 241h8.3v8.3H3.8z"/><path class="st3" d="M14.8 241h8.3v8.3h-8.3z"/><path class="st2" d="M25.8 241h8.3v8.3h-8.3zm11.1 0h8.3v8.3h-8.3zm11 0h8.3v8.3h-8.3z"/><path class="st3" d="M58.9 241h8.3v8.3h-8.3z"/><path class="st2" d="M70 241h8.3v8.3H70zm11 0h8.3v8.3H81zm11 0h8.3v8.3H92z"/><path class="st3" d="M103.1 241h8.3v8.3h-8.3z"/><path class="st1" d="M114.1 241h8.3v8.3h-8.3z"/><path class="st2" d="M125.1 241h8.3v8.3h-8.3zm11.1 0h8.3v8.3h-8.3zm11 0h8.3v8.3h-8.3zm11 0h8.3v8.3h-8.3z"/><path class="st1" d="M169.2 241h8.3v8.3h-8.3z"/><path class="st2" d="M180.3 241h8.3v8.3h-8.3zm11 0h8.3v8.3h-8.3zM3.8 252.1h8.3v8.3H3.8zm11 0h8.3v8.3h-8.3zm11 0h8.3v8.3h-8.3zm11.1 0h8.3v8.3h-8.3zm11 0h8.3v8.3h-8.3zm11 0h8.3v8.3h-8.3zm11.1 0h8.3v8.3H70z"/><path class="st1" d="M81 252.1h8.3v8.3H81z"/><path class="st2" d="M92 252.1h8.3v8.3H92zm11.1 0h8.3v8.3h-8.3zm11 0h8.3v8.3h-8.3zm11 0h8.3v8.3h-8.3zm11.1 0h8.3v8.3h-8.3zm11 0h8.3v8.3h-8.3zm11 0h8.3v8.3h-8.3zm11 0h8.3v8.3h-8.3z"/><path class="st1" d="M180.3 252.1h8.3v8.3h-8.3z"/><path class="st2" d="M191.3 252.1h8.3v8.3h-8.3zM3.8 263.3h8.3v8.3H3.8zm11 0h8.3v8.3h-8.3z"/><path class="st1" d="M25.8 263.3h8.3v8.3h-8.3z"/><path class="st2" d="M36.9 263.3h8.3v8.3h-8.3zm11 0h8.3v8.3h-8.3zm11 0h8.3v8.3h-8.3zm11.1 0h8.3v8.3H70zm11 0h8.3v8.3H81zm11 0h8.3v8.3H92zm11.1 0h8.3v8.3h-8.3zm11 0h8.3v8.3h-8.3zm11 0h8.3v8.3h-8.3z"/><path class="st3" d="M136.2 263.3h8.3v8.3h-8.3z"/><path class="st2" d="M147.2 263.3h8.3v8.3h-8.3zm11 0h8.3v8.3h-8.3zm11 0h8.3v8.3h-8.3zm11.1 0h8.3v8.3h-8.3zm11 0h8.3v8.3h-8.3zM3.8 274.4h8.3v8.3H3.8z"/><path class="st3" d="M14.8 274.4h8.3v8.3h-8.3z"/><path class="st2" d="M25.8 274.4h8.3v8.3h-8.3zm11.1 0h8.3v8.3h-8.3zm11 0h8.3v8.3h-8.3z"/><path class="st1" d="M58.9 274.4h8.3v8.3h-8.3z"/><path class="st2" d="M70 274.4h8.3v8.3H70zm11 0h8.3v8.3H81zm11 0h8.3v8.3H92z"/><path class="st3" d="M103.1 274.4h8.3v8.3h-8.3z"/><path class="st2" d="M114.1 274.4h8.3v8.3h-8.3zm11 0h8.3v8.3h-8.3zm11.1 0h8.3v8.3h-8.3zm11 0h8.3v8.3h-8.3zm11 0h8.3v8.3h-8.3z"/><path class="st1" d="M169.2 274.4h8.3v8.3h-8.3z"/><path class="st2" d="M180.3 274.4h8.3v8.3h-8.3zm11 0h8.3v8.3h-8.3z"/><path class="st1" d="M3.8 285.5h8.3v8.3H3.8z"/><path class="st2" d="M14.8 285.5h8.3v8.3h-8.3zm11 0h8.3v8.3h-8.3zm11.1 0h8.3v8.3h-8.3zm11 0h8.3v8.3h-8.3z"/><path class="st3" d="M58.9 285.5h8.3v8.3h-8.3z"/><path class="st2" d="M70 285.5h8.3v8.3H70zm11 0h8.3v8.3H81zm11 0h8.3v8.3H92zm11.1 0h8.3v8.3h-8.3zm11 0h8.3v8.3h-8.3zm11 0h8.3v8.3h-8.3zm11.1 0h8.3v8.3h-8.3z"/><path class="st3" d="M147.2 285.5h8.3v8.3h-8.3z"/><path class="st2" d="M158.2 285.5h8.3v8.3h-8.3zm11 0h8.3v8.3h-8.3zm11.1 0h8.3v8.3h-8.3zm11 0h8.3v8.3h-8.3z"/><path class="st4" d="M101.6 105.3v1.5"/><path class="st6" d="M101.6 109.8V120c0 10.6-8.6 19.3-19.3 19.3-10.6 0-19.3 8.6-19.3 19.3V189"/><path class="st4" d="M63.1 190.4v1.5m15.2-97.3v1.5"/><path class="st7" d="M78.3 99.1v26.1c0 17.7 14.3 32 32 32h9.1c16.7 0 30.3 12.7 31.9 29"/><path class="st4" d="M151.3 187.8v1.5m-26.2-94.7v1.5"/><path class="st8" d="M125.1 99.1v56.1c0 10.1-8.2 18.3-18.3 18.3H48.3c-9.1 0-16.7 6.6-18.1 15.3"/><path class="st4" d="M30 190.4c0 .5-.1 1-.1 1.5"/><path class="st9" d="M181.1 39.4l7.5-7.5h6.1m2.8-4l6.4 6.4 10.2-10.2"/></svg>