<svg id="Layer_1" xmlns="http://www.w3.org/2000/svg" viewBox="0 0 306 171"><style>.st0{fill:#00bcf2}.st1,.st2{fill:none;stroke:#29ff92;stroke-width:1.5;stroke-miterlimit:10}.st2{stroke:#005291;stroke-linecap:round}.st3{fill:#fff}.st4{fill:none;stroke:#005291;stroke-width:1.5;stroke-miterlimit:10}.st5{fill:#006fc8}.st6{fill:#005291}.st7,.st8{fill:#141414}.st8{stroke:#fff;stroke-miterlimit:10}.st9{fill:#29ff92}</style><path class="st0" d="M209.7 85.4c.5-1.8.8-3.8.8-5.8 0-11.2-8.8-20.3-19.8-20.9.1-.7.1-1.5.1-2.2 0-11.6-9.4-20.9-20.9-20.9-6.7 0-12.6 3.1-16.4 8-3.8-4.9-9.8-8-16.4-8-11.6 0-20.9 9.4-20.9 20.9 0 .8 0 1.5.1 2.3-10.6 1.1-18.8 10-18.8 20.8 0 1.8.2 3.6.7 5.3-7.5 4.4-12.5 12.5-12.5 21.8C85.7 120.6 97 132 111 132h85v-.1c13.9 0 25.3-11.3 25.3-25.3-.1-8.9-4.7-16.7-11.6-21.2z"/><path class="st1" d="M22.4 51.6c17.8 17.8 17.8 46.6 0 64.4M13 61c12.6 12.6 12.6 33 0 45.5m-9.5-9.4c7.4-7.4 7.4-19.3 0-26.7M283.6 116c-17.8-17.8-17.8-46.6 0-64.4m9.4 55c-12.6-12.6-12.6-33 0-45.5m9.5 9.3c-7.4 7.4-7.4 19.3 0 26.7"/><path class="st2" d="M202.7 21.7c25.1 0 45.5 20.4 45.5 45.5M202.7 35c17.8 0 32.2 14.4 32.2 32.2m-13.4 0c0-10.4-8.4-18.9-18.9-18.9m-110 117.1c-25.1 0-45.5-20.4-45.5-45.5m45.5 32.2c-17.8 0-32.2-14.4-32.2-32.2m13.3 0c0 10.4 8.4 18.9 18.9 18.9"/><circle class="st3" cx="153.4" cy="83.8" r="26.8"/><path class="st4" d="M126.6 88.7h11.9l3.6-7.3 7.2 17.5 7.1-27.3 7.2 24.4 4.3-7.3h12.2"/><path class="st5" d="M153.4 61.9c14 0 25.4 10.7 26.6 24.3.1-.8.1-1.6.1-2.4 0-14.8-12-26.8-26.8-26.8s-26.8 12-26.8 26.8c0 .8 0 1.6.1 2.4 1.4-13.6 12.8-24.3 26.8-24.3z"/><path transform="rotate(-45.001 212.104 36.43)" class="st6" d="M208.8 33.1h6.6v6.6h-6.6z"/><path class="st7" d="M212.1 32.8l3.6 3.6-3.6 3.6-3.6-3.6 3.6-3.6m0-2.1l-1.1 1.1-3.6 3.6-1.1 1.1 1.1 1.1 3.6 3.6 1.1 1.1 1.1-1.1 3.6-3.6 1.1-1.1-1.1-1.1-3.6-3.6-1.1-1.1z"/><path transform="rotate(-45.001 79.886 149.467)" class="st6" d="M76.6 146.2h6.6v6.6h-6.6z"/><path class="st7" d="M79.9 145.9l3.6 3.6-3.6 3.6-3.6-3.6 3.6-3.6m0-2.1l-1.1 1.1-3.6 3.6-1.1 1.1 1.1 1.1 3.6 3.6 1.1 1.1 1.1-1.1 3.6-3.6 1.1-1.1-1.1-1.1-3.6-3.6-1.1-1.1z"/><path transform="rotate(-45.001 61.687 153.3)" class="st6" d="M58.4 150H65v6.6h-6.6z"/><path class="st7" d="M61.7 149.7l3.6 3.6-3.6 3.6-3.6-3.6 3.6-3.6m0-2.1l-1.1 1.1-3.6 3.6-1.1 1.1 1.1 1.1 3.6 3.6 1.1 1.1 1.1-1.1 3.6-3.6 1.1-1.1-1.1-1.1-3.6-3.6-1.1-1.1z"/><path transform="rotate(134.999 244.119 48.355)" class="st8" d="M238.6 42.9h11v11h-11z"/><path transform="rotate(45.001 244.12 48.353)" class="st3" d="M241.6 45.8h5.1v5.1h-5.1z"/><path class="st8" d="M248.2 52l22.7 22.7"/><circle class="st8" cx="270.9" cy="74.7" r="5.3"/><circle class="st9" cx="270.9" cy="74.7" r="2.3"/><ellipse transform="rotate(-45.001 21.777 83.787)" class="st8" cx="21.8" cy="83.8" rx="5.3" ry="5.3"/><ellipse transform="rotate(-45.001 21.777 83.787)" class="st9" cx="21.8" cy="83.8" rx="2.3" ry="2.3"/><path class="st8" d="M25.5 87.5l35.3 35.3"/><path transform="rotate(134.999 60.829 122.836)" class="st8" d="M55.3 117.3h11v11h-11z"/><path transform="rotate(45.001 60.83 122.836)" class="st3" d="M58.3 120.3h5.1v5.1h-5.1z"/><path class="st5" d="M196 121.4l-85.2.1c-12.1 0-22.3-8.6-24.7-20-.4 1.7-.5 3.4-.5 5.2 0 13.9 11.3 25.3 25.3 25.3H196v-.1c13.9 0 25.3-11.3 25.3-25.3 0-1.8-.2-3.5-.6-5.2-2.4 11.4-12.6 20-24.7 20z"/><path class="st8" d="M41.8 103.8l22-21.9m0-37.5h15.5v37.4H63.8z"/><path class="st3" d="M67.3 46.8h8.4v4.3h-8.4zm7.3 6.9v2h-6v-2h6m1.5-1.5H67v5h9v-5h.1zm-8.8 6h8.4v4.3h-8.4zm0 5.6h8.4v4.3h-8.4zm0 5.7h8.4v4.3h-8.4zm0 5.7h8.4v4.3h-8.4z"/><path class="st6" d="M205.4 16.7c-1-.1-1.9-.1-2.7-.1h-.8v-11h4.3v11.1h-.8z"/><path class="st7" d="M205.4 6.4V16c-.9-.1-1.8-.1-2.8-.1V6.4h2.8m1.5-1.5h-5.8v12.5h1.5c.8 0 1.7 0 2.7.1l1.6.1V4.9z"/><path class="st6" d="M210.6 17.3c-.9-.2-1.8-.3-2.7-.4l-.7-.1V5.6h4.3v11.9l-.9-.2z"/><path class="st7" d="M210.8 6.4v10.2c-.9-.2-1.8-.3-2.8-.4V6.4h2.8m1.5-1.5h-5.8v12.6l1.3.2c.9.1 1.8.2 2.7.4l1.8.3V4.9z"/><path class="st6" d="M215.9 18.6c-.8-.2-1.7-.5-2.7-.7l-.6-.1v-5.4h4.3V19l-1-.4z"/><path class="st7" d="M216.1 13.1v4.8c-.9-.3-1.8-.5-2.8-.7v-4h2.8m1.5-1.6h-5.8v6.7l1.1.3c1 .2 1.9.5 2.7.7l1.9.6v-8.3h.1z"/><path class="st6" d="M221.1 20.6c-1-.4-1.8-.8-2.7-1.1l-.5-.2v-6.9h4.3v8.7l-1.1-.5z"/><path class="st7" d="M221.4 13.1v6.8c-.9-.4-1.8-.8-2.8-1.2V13h2.8m1.5-1.4h-5.8v8.2l1 .4c.9.3 1.7.7 2.7 1.1l2.1 1V11.6z"/></svg>