<svg id="Layer_1" xmlns="http://www.w3.org/2000/svg" viewBox="0 0 186 295.4"><style>.st0{enable-background:new}.st1{fill:#005291}.st2{fill:#006fc8}.st3{fill:#00bcf2}.st4,.st5{fill:none;stroke:#fff;stroke-width:1.5;stroke-linecap:round;stroke-linejoin:round;stroke-miterlimit:10}.st5{stroke:#29ff92}</style><g class="st0"><path class="st1" d="M145.3 181l-.2 61.7-53.4 31 .2-61.7z"/><path class="st2" d="M91.9 212l-.2 61.7-53.7-31 .2-61.7z"/><path class="st3" d="M145.3 181l-53.4 31-53.7-31 53.4-31.1z"/></g><g class="st0"><path class="st1" d="M128.5 138.9l-.2 42.3-36.6 21.3.1-42.4z"/><path class="st2" d="M91.8 160.1l-.1 42.4-36.9-21.3.1-42.3z"/><path class="st3" d="M128.5 138.9l-36.7 21.2-36.9-21.2 36.7-21.3z"/></g><g class="st0"><path class="st1" d="M114 109.7l-.1 25.7-22.2 12.9.1-25.7z"/><path class="st2" d="M91.8 122.6l-.1 25.7-22.4-12.9.1-25.7z"/><path class="st3" d="M114 109.7l-22.2 12.9-22.4-12.9 22.2-12.9z"/></g><g class="st0"><path class="st1" d="M102.8 91.8v12.9l-11.1 6.4V98.3z"/><path class="st2" d="M91.7 98.3v12.8l-11.2-6.4V91.8z"/><path class="st3" d="M102.8 91.8l-11.1 6.5-11.2-6.5 11.1-6.5z"/></g><path class="st4" d="M16.9 252.5L7 258.2l53.8 31.1 9.8-5.8m-10.2-2.9l-7.3 4.2m-.4-8.7l-7.3 4.3m-.3-8.7l-7.4 4.3m-.3-8.7l-7.3 4.2m-.4-8.7l-7.3 4.3m-.4-8.7l-7.3 4.3M166.8 86.1H179v156.3h-12.2m12.2-9.8h-8.4m8.4-9.7h-8.4m8.4-9.8h-8.4m8.4-9.8h-8.4m8.4-9.7h-8.4m8.4-9.8h-8.4m8.4-9.8h-8.4m8.4-9.8h-8.4m8.4-9.7h-8.4m8.4-9.8h-8.4m8.4-9.8h-8.4m8.4-9.8h-8.4m8.4-9.7h-8.4m8.4-9.8h-8.4m8.4-9.8h-8.4"/><circle class="st5" cx="91.7" cy="27.9" r="21.7"/><path class="st5" d="M91.7 49.6v41.6"/><g class="st0"><path class="st1" d="M97.2 24.7v6.4l-5.5 3.3v-6.5z"/><path class="st2" d="M91.7 27.9v6.5L86 31.1l.1-6.4z"/><path class="st3" d="M97.2 24.7l-5.5 3.2-5.6-3.2 5.5-3.3z"/></g></svg>