<svg id="Layer_1" xmlns="http://www.w3.org/2000/svg" viewBox="0 0 238 101.6"><style>.st0{fill:none;stroke:#29ff92;stroke-width:1.5;stroke-linecap:round;stroke-linejoin:round;stroke-miterlimit:10}.st1{fill:#fff}.st2{fill:#00bcf2}.st3{fill:#005291}</style><path class="st0" d="M4 14.3v-10h10m210 0h10v10m0 72.9v10h-10m-210 0H4v-10"/><path class="st1" d="M196.3 34.1h-39.8c-.7 0-1.3-.6-1.3-1.3 0-.7.6-1.3 1.3-1.3h39.8c.7 0 1.3.6 1.3 1.3 0 .7-.6 1.3-1.3 1.3zm3.5 9H160c-.7 0-1.3-.6-1.3-1.3 0-.7.6-1.3 1.3-1.3h39.8c.7 0 1.3.6 1.3 1.3 0 .7-.6 1.3-1.3 1.3zm1.7 9h-39.8c-.7 0-1.3-.6-1.3-1.3 0-.7.6-1.3 1.3-1.3h39.8c.7 0 1.3.6 1.3 1.3 0 .7-.6 1.3-1.3 1.3zm-41.6 9.1h39.8c.7 0 1.3-.6 1.3-1.3 0-.7-.6-1.3-1.3-1.3h-39.8c-.7 0-1.3.6-1.3 1.3 0 .7.6 1.3 1.3 1.3zm-3.5 9h39.8c.7 0 1.3-.6 1.3-1.3 0-.7-.6-1.3-1.3-1.3h-39.8c-.7 0-1.3.6-1.3 1.3 0 .7.6 1.3 1.3 1.3z"/><path class="st2" d="M120.3 82.3c17.4 0 31.5-14.1 31.5-31.5s-14.1-31.5-31.5-31.5v63z"/><path class="st3" d="M120.3 78.3c15.2 0 27.5-12.3 27.5-27.5s-12.3-27.5-27.5-27.5v55z"/><path class="st1" d="M120.3 56.6c3.2 0 5.9-2.6 5.9-5.9s-2.6-5.9-5.9-5.9v11.8z"/><path class="st1" d="M139.5 58.4L121 49.1c-.3-.1-.5-.2-.8-.2v3.8l17.6 8.9c.9.4 2 .1 2.4-.8.5-.9.1-2-.7-2.4z"/><path class="st1" d="M143.2 34.1c-.6-.8-1.7-1-2.5-.4l-20.5 14.9v4c.4 0 .8-.1 1.1-.3l21.5-15.7c.9-.6 1-1.7.4-2.5z"/><path class="st2" d="M120.3 54.4c2 0 3.6-1.6 3.6-3.6s-1.6-3.6-3.6-3.6v7.2z"/><path class="st0" d="M87.6 59.8L75.4 72H40.2m11.7-26.7h17.3l13.5-13.5m6.2 6.2L72.2 21.3"/><ellipse transform="rotate(-45.001 69.187 18.306)" class="st0" cx="69.2" cy="18.3" rx="4.3" ry="4.3"/><ellipse transform="rotate(-45.001 47.7 45.254)" class="st0" cx="47.7" cy="45.3" rx="4.3" ry="4.3"/><circle class="st0" cx="35.9" cy="72" r="4.3"/><path class="st0" d="M117.9 19.1c-17.5 0-31.7 14.2-31.7 31.7s14.2 31.7 31.7 31.7m0-63.4v63.4M86.2 50.8h31.7M90.5 35h27.4M90.5 66.6h27.4m-8.5-46.3c-12.3 18.2-12.3 42.8 0 61"/></svg>