<svg id="Layer_1" xmlns="http://www.w3.org/2000/svg" viewBox="0 0 43.4 31.9"><style>.st0{fill:#00bcf2}</style><circle class="st0" cx="31.9" cy="4.4" r="3.2"/><circle class="st0" cx="38.8" cy="28.4" r="2.2"/><path class="st0" d="M14.8 7.2c-2.7 0-4.9-2.2-4.9-4.9 0-.5-.4-.9-.9-.9s-.9.4-.9.9c0 2.7-2.2 4.9-4.9 4.9-.5 0-.9.4-.9.9s.4.9.9.9c2.7 0 4.9 2.2 4.9 4.9 0 .5.4.9.9.9s.9-.4.9-.9c0-2.7 2.2-4.9 4.9-4.9.5 0 .9-.4.9-.9-.1-.5-.5-.9-.9-.9zM9 10.3c-.6-.9-1.3-1.7-2.2-2.2.9-.6 1.6-1.4 2.2-2.3.6.9 1.3 1.7 2.2 2.2-.9.6-1.6 1.4-2.2 2.3zm16.1 18.8c-.8 0-1.4-.6-1.4-1.4V26c0-.8.6-1.4 1.4-1.4V22c0-.8.6-1.4 1.4-1.4h7.1c.1-.4.1-.9.1-1.3v-.9H23.6c-1.8 0-3.2-1.4-3.2-3.2 0-1.8 1.4-3.2 3.2-3.2h1.2c0-1.3 1.1-2.4 2.4-2.4h.9c-1.6-1-3.5-1.6-5.5-1.6-5.5 0-10 4-11 9.2H14c2 0 3.6 1.6 3.6 3.6h.4c1.6 0 2.9 1.3 2.9 2.9 0 1.6-1.3 2.9-2.9 2.9h-3.8c2 2.3 5 3.8 8.4 3.8 1.9 0 3.7-.5 5.3-1.3h-2.8z"/><path class="st0" d="M40.8 13.6c-.6-1.9-3.1-3-7.1-3.1-1.2 0-2.5 0-3.8.2.6.5 1.1 1 1.5 1.6.6 0 1.2-.1 1.8-.1h.5c3.1.1 5.2.8 5.5 1.9.3 1.1-1 2.9-3.5 4.7-.6.4-1.2.8-1.9 1.2-2.7 1.6-6 3-9.6 4.1-3.6 1.1-7.2 1.8-10.3 2-.8.1-1.5.1-2.3.1-3.1-.1-5.2-.8-5.5-1.9-.3-1.1 1-2.9 3.5-4.7.6-.4 1.2-.8 1.9-1.2.1-.7.2-1.5.4-2.1-1.2.6-2.3 1.3-3.2 2-3.3 2.4-4.8 4.6-4.2 6.6.6 1.9 3.1 3 7.1 3.1h.5c1 0 2.1-.1 3.3-.2 2.9-.3 6-1 9.3-2 3.2-1 6.2-2.2 8.8-3.6 1.2-.6 2.3-1.3 3.2-2 3.2-2.4 4.7-4.7 4.1-6.6z"/></svg>