<svg id="Layer_1" xmlns="http://www.w3.org/2000/svg" viewBox="0 0 38.1 37"><style>.st0{fill-rule:evenodd;clip-rule:evenodd;fill:#00bcf2}</style><path class="st0" d="M18.8 20.8l2 1.9 2.3-2.2c-.2-1.1.2-2.2 1.1-3 .9-.8 2-1.2 3.1-1.1L37 7l-5.5-5.4-9.8 9.5c.1 1.1-.3 2.2-1.1 3-.9.8-2 1.2-3.1 1l-2.3 2.2 2 1.9-9.7 9.4-.4-.4-1.9 1.5L2 34.5l1 .8 5-3 1.5-1.8-.4-.4 9.7-9.3zm5.6-.9c-.1.3-.1.6-.1.9l.1.4-.3.3-2.2 2.2-.9.8-2-1.9-1.1 1.1L29 34.3c.8.7 1.7 1 2.6 1 1 0 1.9-.3 2.6-1 1.4-1.4 1.4-3.6 0-5l-9.8-9.4zM11.1 17l3.3 3.2 1.1-1-1.4-1.3-.6-.6 3.4-3.3.4.1h.3c.3 0 .5-.1.7-.1l-2-2-.2-.1c.7-2.5.1-5.3-2-7.3-2-1.9-4.9-2.6-7.4-1.9l4.4 4.2L9.9 11l-4.3 1.1L1.4 8c-.7 2.5-.1 5.3 2 7.2 2 2 5.1 2.6 7.7 1.8z"/></svg>