<svg id="Layer_1" xmlns="http://www.w3.org/2000/svg" viewBox="0 0 20 23.2"><style>.st0{fill:#00bcf2}.st1{fill:#29ff92}</style><path class="st0" d="M19 6.3l-8.9-5.1h-.2L1 6.3c-.1 0-.1.1-.1.2v10.2c0 .1 0 .2.1.2L9.9 22h.2l8.8-5.1c.1 0 .1-.1.1-.2V6.5c.1-.1.1-.2 0-.2zM2.4 16V7.2L10 2.8l7.6 4.4V16L10 20.4 2.4 16z"/><path class="st0" d="M18.7 15.8l-8-4.9v-9c0-.1-.1-.3-.3-.3h-1c-.1 0-.3.1-.3.3v8.9l-8 4.9c-.1.1-.2.2-.1.3l.7 1c0 .1.1.1.2.1h.2l8-4.9 8 4.9h.2c.1 0 .1-.1.2-.1l.5-.9c-.1-.1-.1-.2-.3-.3z"/><path class="st1" d="M10 6.1L5.3 8.9l-.1 5.4 4.8 2.8 4.7-2.8.1-5.4z"/><path class="st0" d="M18.8 7.1l-.5-.9c0-.1-.1-.1-.1-.1H18l-8 4.3-8-4.3h-.1c-.1 0-.2 0-.2.1l-.5.9v.2c0 .1.1.1.1.1l8 4.3v9.5c0 .1.1.3.3.3h1c.1 0 .3-.1.3-.3v-9.5l8-4.3s0-.2-.1-.3z"/></svg>