<svg id="Layer_1" xmlns="http://www.w3.org/2000/svg" viewBox="0 0 43.4 36.4"><style>.st0{fill-rule:evenodd;clip-rule:evenodd;fill:#00bcf2}.st1{fill:none}.st2{fill:#00bcf2}.st3{fill:#141414}</style><path class="st0" d="M24.3 12.2c-.6 0-.9.8-.9 2.3 0 1.4.3 2.1.9 2.1.6 0 .9-.7.9-2.2s-.3-2.2-.9-2.2z"/><path class="st1" d="M18.5 11.6c-.3.2-.7.3-1 .4v1.2c.1 0 .2 0 .4-.1.1 0 .2-.1.4-.1.1 0 .2-.1.3-.2s.2-.1.3-.2v4.9h1.4v-6.4h-.8c-.4.2-.7.4-1 .5z"/><path class="st1" d="M18.5 11.6c-.3.2-.7.3-1 .4v1.2c.1 0 .2 0 .4-.1.1 0 .2-.1.4-.1.1 0 .2-.1.3-.2s.2-.1.3-.2v4.9h1.4v-6.4h-.8c-.4.2-.7.4-1 .5z"/><path class="st2" d="M31.4 1.3H12.1l-9.7 17 9.7 16.9h19.3l9.6-17-9.6-16.9zm-2.6 27.1H14.6c-1.4 0-2.6-1.2-2.6-2.7V10.6C12 9.2 13.2 8 14.6 8h12.7l4 4v13.8c.1 1.4-1.1 2.6-2.5 2.6z"/><path class="st3" d="M27.4 8H14.6C13.2 8 12 9.2 12 10.6v15.1c0 1.5 1.2 2.7 2.6 2.7h14.2c1.4 0 2.6-1.2 2.6-2.7V12l-4-4z"/><path class="st2" d="M23.6 19.3c-.3.2-.7.3-1 .4v1.2c.1 0 .2 0 .4-.1.1 0 .2-.1.4-.1.1 0 .2-.1.3-.2s.2-.1.3-.2v4.9h1.4v-6.4h-.8c-.4.2-.7.3-1 .5zm.7-2.7c-.6 0-.9-.7-.9-2.1 0-1.5.3-2.3.9-2.3.6 0 .8.7.8 2.2s-.3 2.2-.8 2.2z"/><path class="st2" d="M30.2 25.8c0 .6-.6 1.2-1.2 1.2H14.4c-.6 0-1.2-.6-1.2-1.2V10.6c0-.6.5-1.2 1.2-1.2h10.9c.6 0 1.3 0 1.7.1v3.3h3.3v13z"/><path class="st1" d="M23.6 19.3c-.3.2-.7.3-1 .4v1.2c.1 0 .2 0 .4-.1.1 0 .2-.1.4-.1.1 0 .2-.1.3-.2s.2-.1.3-.2v4.9h1.4v-6.4h-.8c-.4.2-.7.3-1 .5z"/><path class="st1" d="M23.6 19.3c-.3.2-.7.3-1 .4v1.2c.1 0 .2 0 .4-.1.1 0 .2-.1.4-.1.1 0 .2-.1.3-.2s.2-.1.3-.2v4.9h1.4v-6.4h-.8c-.4.2-.7.3-1 .5z"/><path class="st2" d="M24.3 12.2c-.6 0-.9.8-.9 2.3 0 1.4.3 2.1.9 2.1.6 0 .9-.7.9-2.2s-.3-2.2-.9-2.2zm-5.8-.6c-.3.2-.7.3-1 .4v1.2c.1 0 .2 0 .4-.1.1 0 .2-.1.4-.1.1 0 .2-.1.3-.2s.2-.1.3-.2v4.9h1.4v-6.4h-.8c-.4.2-.7.4-1 .5z"/><path class="st3" d="M23.6 19.3c-.3.2-.7.3-1 .4v1.2c.1 0 .2 0 .4-.1.1 0 .2-.1.4-.1.1 0 .2-.1.3-.2s.2-.1.3-.2v4.9h1.4v-6.4h-.8c-.4.2-.7.3-1 .5zm.8-8.2c-.8 0-1.4.3-1.8.9s-.6 1.4-.6 2.5c0 2.1.8 3.2 2.3 3.2.7 0 1.3-.3 1.7-.9s.6-1.4.6-2.5c-.1-2.1-.8-3.2-2.2-3.2z"/><path class="st2" d="M24.3 12.2c-.6 0-.9.8-.9 2.3 0 1.4.3 2.1.9 2.1.6 0 .9-.7.9-2.2s-.3-2.2-.9-2.2z"/><path class="st3" d="M18.5 11.6c-.3.2-.7.3-1 .4v1.2c.1 0 .2 0 .4-.1.1 0 .2-.1.4-.1.1 0 .2-.1.3-.2s.2-.1.3-.2v4.9h1.4v-6.4h-.8c-.4.2-.7.4-1 .5zm.7 7.2c-.8 0-1.4.3-1.8.9s-.6 1.4-.6 2.5c0 2.1.8 3.2 2.3 3.2.7 0 1.3-.3 1.7-.9s.6-1.4.6-2.5c0-2.1-.8-3.2-2.2-3.2z"/><path class="st2" d="M19.1 19.9c-.6 0-.9.8-.9 2.3 0 1.4.3 2.1.9 2.1.6 0 .9-.7.9-2.2s-.3-2.2-.9-2.2z"/></svg>