<svg id="Layer_1" xmlns="http://www.w3.org/2000/svg" viewBox="0 0 40.4 40.6"><style>.st0{fill-rule:evenodd;clip-rule:evenodd;fill:#00bcf2}</style><path class="st0" d="M37 17.7c0-2.9-2.3-5.3-5.2-5.3-1.1 0-2.1.3-3 .9l-3.6-3.1c.2-.5.3-1 .3-1.5 0-2.9-2.4-5.3-5.3-5.3s-5.3 2.4-5.3 5.3c0 .5.1 1.1.3 1.5l-4 3.3c-.7-.4-1.6-.6-2.6-.6-2.9 0-5.3 1.8-5.3 4.7 0 2.6 1.8 4.7 4.3 5.2L9 27.9c-1.1.9-1.8 2.4-1.8 4 0 2.9 2.3 5.3 5.2 5.3 2.3 0 4.2-1.4 5-3.4h5.4c.7 2 2.7 3.4 5 3.4 2.9 0 5.3-2.4 5.3-5.3 0-1.6-.8-3.1-2-4.1l1.4-5c2.6-.3 4.5-2.5 4.5-5.1zm-9.2 8.9c-2.5 0-4.7 1.8-5.2 4.2h-5c-.5-2.4-2.6-4.2-5.2-4.2-.3 0-.5.1-.8.1l-1.2-4.2c2-.8 3.3-2.6 3.3-4.9 0-.8-.2-1.5-.5-2.2l3.4-2.8c.9.8 2.1 1.3 3.4 1.3s2.5-.5 3.4-1.3l3.4 2.7c-.3.7-.5 1.4-.5 2.2 0 2.2 1.3 4 3.2 4.8l-1.2 4.2c-.1.2-.3.1-.5.1z"/></svg>