<svg id="Layer_1" xmlns="http://www.w3.org/2000/svg" viewBox="0 0 36.6 49.9"><style>.st0{fill-rule:evenodd;clip-rule:evenodd;fill:#00bcf2}</style><path class="st0" d="M19.5 24.9c-.1-.2-.3-.4-.5-.5-.1-.1-.4-.2-.7-.2-.3 0-.5.1-.7.2-.2.1-.4.3-.5.5-.1.2-.2.4-.3.7-.1.3-.1.6-.1.8 0 .4 0 .8.1 1.1.1.3.2.5.3.7.1.2.3.3.5.4.2.1.4.1.6.1.2 0 .3 0 .5-.1s.3-.3.5-.4c.1-.2.3-.4.3-.7.1-.3.1-.6.1-1s0-.6-.1-.9c.2-.3.1-.5 0-.7"/><path class="st0" d="M18.3 3.3C9.7 3.3 2.6 6.4 2.6 9.7V40c0 3.4 7.1 6.5 15.7 6.5 8.7 0 15.7-3 15.7-6.3V9.9c0-3.4-7-6.6-15.7-6.6zm-4.7 25.4c-.1.3-.1.5-.2.6-.1.2-.3.4-.5.6-.1.1-.4.4-.7.5-.3.1-.5.2-1 .3-.3.1-.8.1-1.3.1h-.7c-.2-.1-.5-.1-.7-.1-.2 0-.4-.1-.5-.1-.2-.1-.3-.1-.4-.1v-2.4c.1.1.3.2.5.3.1.1.3.2.5.3.2.1.4.2.7.2.3 0 .5.1.7.1s.3-.1.5-.1c.1-.1.2-.1.3-.1 0-.1.1-.1.1-.2v-.2c0-.1 0-.3-.1-.4l-.3-.3c-.1-.1-.3-.1-.4-.2-.2-.1-.4-.1-.5-.2-.4-.1-.7-.4-1-.5-.3-.2-.5-.4-.6-.6-.2-.2-.3-.5-.4-.7-.1-.3-.1-.5-.1-.8 0-.4.1-.8.2-1.2.2-.4.4-.6.7-.8.3-.3.6-.4 1-.6.5-.1.9-.2 1.4-.2.3 0 .5 0 .8.1.2 0 .4 0 .6.1.2 0 .3.1.5.1.2.1.3.1.4.1v2.3c-.1-.1-.2-.2-.4-.2-.1-.1-.3-.1-.5-.2s-.3-.1-.5-.1c-.2-.1-.4-.1-.6-.1-.3 0-.5.1-.7.1-.2.1-.3.3-.3.5 0 .1 0 .1.1.2 0 .1.1.1.1.2.1.1.2.1.3.2s.3.2.5.3c.3.1.6.3 1 .4.3.2.5.4.7.6.2.2.3.4.5.7.1.3.2.6.2 1 .2.1.2.3.1.5zM20 33l-1.8-2.1c-.5 0-1.1-.1-1.6-.4-.5-.2-.9-.5-1.2-.9-.3-.4-.6-.8-.8-1.3-.2-.5-.3-1.1-.3-1.8s.1-1.3.3-1.9c.2-.6.5-1.1.9-1.4.3-.4.8-.8 1.4-1 .5-.2 1.1-.4 1.8-.4.5 0 1.2.1 1.6.4.5.2 1 .5 1.3.8.4.4.7.8.9 1.4.2.6.3 1.2.3 1.9 0 .5-.1 1-.2 1.4-.1.4-.3.8-.5 1.1-.2.4-.5.6-.7.9-.3.3-.6.5-1 .6l2.9 2.5H20v.2zm9.3-2.2h-5.4V22h2.6v6.7h2.9v2.1h-.1zm-11-18.1c-6.2 0-11.1-1.5-11.1-3.5s5-3.5 11.1-3.5 11.2 1.5 11.2 3.5c0 1.9-5 3.5-11.2 3.5z"/></svg>