<svg id="Layer_1" xmlns="http://www.w3.org/2000/svg" viewBox="0 0 55 38.3"><style>.st0{fill:#00bcf2}</style><path class="st0" d="M11.4 13.6v11l7-2.5v-5.9zM5 16.2V22l5.3 2.5V13.6L5 16.2zm.4 5.1V17h.1l.8-.4v5.2l-.8-.4-.1-.1zm2.5 1.2l-1.2-.6v-5.5l1.2-.6v6.7zm1.8.8l-.9-.4-.5-.3v-7l.5-.3.9-.4v8.4zm17.5-9.7v11l7-2.5v-5.9zm-6.4 2.6V22l5.3 2.5V13.6l-5.3 2.6zm.4 5.1V17h.1l.8-.4v5.2l-.8-.4-.1-.1zm2.5 1.2l-1.2-.6v-5.5l1.2-.6v6.7zm1.8.8l-.9-.4-.6-.3v-7l.5-.3.9-.4v8.4zm17.6-9.7v11l6.9-2.5v-5.9zm-6.4 2.6V22l5.3 2.5V13.6l-5.3 2.6zm.4 5.1V17h.1l.8-.4v5.2l-.8-.4-.1-.1zm2.4 1.2l-1.2-.6v-5.5l1.2-.6v6.7zm1.8.8l-.9-.4-.5-.3v-7l.5-.3.9-.4v8.4zM19.2 2.6v10.9l6.9-2.5V5.1zm-6.4 2.5V11l5.3 2.5V2.6l-5.3 2.5zm.4 5.1V5.9h.1l.8-.4v5.2l-.8-.4-.1-.1zm2.4 1.2l-1.2-.6V5.3l1.2-.6v6.7zm1.8.9l-.9-.4-.5-.3v-7l.5-.3.9-.4v8.4zm17.9-9.7v10.9l6.9-2.5V5.1zm-6.4 2.5V11l5.3 2.5V2.6l-5.3 2.5zm.4 5.1V5.9h.1l.8-.4v5.2l-.8-.4-.1-.1zm2.4 1.2l-1.2-.6V5.3l1.2-.6v6.7zm1.9.9l-.9-.4-.5-.3v-7l.5-.3.9-.4v8.4zM19.2 24.7v11l6.9-2.6v-5.8zm-6.4 2.6v5.8l5.3 2.5V24.7l-5.3 2.6zm.4 5.1V28h.1l.8-.4v5.2l-.8-.4h-.1zm2.4 1.1l-1.1-.5v-5.5l1.2-.6v6.6zm1.8.9l-.9-.4-.5-.3v-7l.5-.3.9-.4v8.4zm17.9-9.7v11l6.9-2.6v-5.8zm-6.4 2.6v5.8l5.3 2.5V24.7l-5.3 2.6zm.4 5.1V28h.1l.8-.4v5.2l-.8-.4h-.1zm2.4 1.1l-1.1-.5v-5.5l1.2-.6v6.6zm1.9.9l-1-.4-.5-.3v-7l.5-.3.9-.4v8.4z"/></svg>