<svg id="Layer_1" xmlns="http://www.w3.org/2000/svg" viewBox="0 0 24 20.5"><style>.st0{fill:#29ff92}.st1{fill:#00bcf2}</style><path class="st0" d="M5.3 9.1h1.9V11H5.3zM5 2h1.9v1.9H5zM2.7 5.5h1.9v1.9H2.7zM.5 9.1h1.9V11H.5z"/><path transform="rotate(-180 3.697 13.609)" class="st0" d="M2.7 12.6h1.9v1.9H2.7z"/><path transform="rotate(-180 5.928 17.164)" class="st0" d="M5 16.2h1.9v1.9H5z"/><path transform="rotate(-180 17.706 10.053)" class="st0" d="M16.7 9.1h1.9V11h-1.9z"/><path transform="rotate(-180 18.072 2.943)" class="st0" d="M17.1 2H19v1.9h-1.9z"/><path transform="rotate(-180 20.303 6.498)" class="st0" d="M19.3 5.5h1.9v1.9h-1.9z"/><path transform="rotate(-180 22.534 10.053)" class="st0" d="M21.6 9.1h1.9V11h-1.9z"/><path class="st0" d="M19.3 12.6h1.9v1.9h-1.9zm-2.2 3.6H19v1.9h-1.9z"/><path class="st1" d="M9.1.6H11v4.6H9.1zm3.8 0h1.9v4.6h-1.9z"/><path class="st1" d="M8.1 15.6v-2c1 .8 2.2 1.1 3.4 1.1 1.7 0 2.5-.6 2.5-1.7 0-.3-.1-.6-.2-.8-.1-.2-.3-.4-.6-.6-.2-.2-.5-.3-.9-.5s-.7-.3-1.1-.4c-.5-.2-1-.4-1.4-.6-.4-.2-.7-.5-1-.7-.2-.3-.4-.6-.5-.9-.2-.4-.2-.8-.2-1.2 0-.6.1-1.1.4-1.5.3-.4.6-.8 1-1.1.4-.3.9-.5 1.5-.7.5-.1 1.1-.2 1.7-.2 1 0 2 .2 2.8.5v1.9c-.9-.6-1.9-.9-3-.9-.4 0-.7 0-1 .1-.3.1-.5.2-.7.3-.2.1-.4.3-.5.5-.2.4-.3.7-.3.9 0 .3.1.6.2.8.1.2.3.4.5.6.2.2.5.3.8.4.3.1.7.3 1.1.4.5.2 1 .4 1.4.6.4.2.8.5 1.1.7.3.3.5.6.7.9.2.3.2.8.2 1.2 0 .6-.1 1.1-.4 1.5-.3.4-.6.8-1 1.1-.4.3-.9.5-1.5.6-.6.1-1.2.2-1.8.2-1.3.2-2.3-.1-3.2-.5z"/><path class="st1" d="M9.1 15.3H11V20H9.1zm3.8 0h1.9V20h-1.9z"/></svg>