<svg id="Layer_1" xmlns="http://www.w3.org/2000/svg" viewBox="0 0 22 21"><style>.st0{fill:#00bcf2}.st1{fill:#29ff92}</style><path class="st0" d="M15.6 2c-.2-.1-.3-.2-.5-.3-.1 0-.2-.1-.2-.1-.2-.1-.4-.1-.5-.2-.1 0-.2-.1-.3-.1H14c-.1 0-.1 0-.2-.1h-.1c-.1 0-.2 0-.3-.1-.1 0-.2 0-.3-.1h-2.2C8.7 1 6.6 1.8 5 3c-2.3 1.8-3.8 4.5-3.8 7.6v2.2c0 .1 0 .2.1.3 0 .1 0 .2.1.3v.1c0 .1 0 .1.1.2v.1c0 .1.1.2.1.3.4-.1.4.1.5.2 0 .1.1.2.1.2 1.5 3.3 4.9 5.5 8.7 5.5 5.3 0 9.7-4.3 9.7-9.7.1-3.4-2-6.6-5-8.3z"/><path class="st1" d="M16.5 13.6h-1.2l-1.8 1.8v2.2l1.7 1.7c1.9-.9 3.5-2.5 4.5-4.4h-1.8l-1.4-1.3zm2.3-8.8h-3.6l-1.4 1.4L16.5 9l.5.5v2.3l1.4 1.4h1.8c.3-.9.4-1.8.4-2.7.1-2.1-.6-4.1-1.8-5.7zm-8.6-.4L9.1 3.3H4.5c-2 1.8-3.2 4.3-3.2 7.2v2.2c0 .1 0 .2.1.2 0 .2.1.4.2.6v.1c0 .1 0 .1.1.2v.1c.3 0 .3.1.3.2v.1c0 .1 0 .1.1.2v.1c0 .1.1.1.1.2v.1c0 .1.1.1.1.2v.1c0 .1.1.1.1.2v.1c.6 1.1 1.4 2.1 2.4 2.8l1-1 .7-.7.7-.7v-2.4l-2.6-2.6h3L10 8.4l-1.8-2 2-2z"/></svg>