<svg id="Layer_1" xmlns="http://www.w3.org/2000/svg" viewBox="0 0 40 36.1"><style>.st0{fill-rule:evenodd;clip-rule:evenodd;fill:#00bcf2}</style><path class="st0" d="M36.4 11H13.3c-.8 0-1.5.7-1.5 1.5v16.1c0 .8.6 1.5 1.5 1.5h7.9c.9 3-.3 3.4-5.3 3.4V35H33v-1.6c-5 0-5.5-.4-4.6-3.4h8.1c.8 0 1.6-.7 1.6-1.5v-16c-.1-.8-.9-1.5-1.7-1.5zm-.4 2v15H13.9V13H36z"/><path class="st0" d="M28.6 17.5l-4.1-2.2-3.9 2.2v.1l3.9 2.1 4.1-2.1v-.1zm-3.7 3.2v4.8l4.4-2.4v-4.9l-4.4 2.5zm-.7 0l-4.4-2.5v4.9l4.4 2.4v-4.8zM4 18.1v-15L26.2 3l-.1.1v1.8h2V2.6c0-.8-.8-1.5-1.6-1.5H3.4c-.8 0-1.4.7-1.4 1.5v16.1c0 .8.6 1.5 1.5 1.5h2.3v-2H4z"/><path class="st0" d="M9 23.1v-15L31.1 8l-.1.1v1.8h2V7.5c0-.8-.8-1.5-1.6-1.5h-23c-.8 0-1.5.7-1.5 1.5v16.1c0 .8.6 1.5 1.5 1.5h2.3v-2H9z"/></svg>