<svg id="Layer_1" xmlns="http://www.w3.org/2000/svg" viewBox="0 0 37.7 38.3"><style>.st0{fill-rule:evenodd;clip-rule:evenodd;fill:#00bcf2}</style><path class="st0" d="M35.5 1.5H2.2c-.3 0-.6.3-.6.6v7.2c0 .3.3.6.6.6h3.6c.3 0 .6-.3.6-.6v-3h25v3.1c0 .3.3.6.7.6h3.5c.3 0 .6-.3.6-.6V2.1c-.1-.4-.3-.6-.7-.6zm-.1 27.6H32c-.4 0-.6.2-.6.6v2.7H6.3v-2.8c0-.3-.3-.6-.7-.6H2.2c-.3 0-.6.2-.6.6v6.6c0 .3.3.5.6.5h33.4c.3 0 .6-.2.6-.5v-6.6c-.1-.3-.4-.5-.8-.5z"/><path class="st0" d="M14.3 13.7c0 .3-.3.5-.7.5h-5c-.3 0-.6-.2-.6-.5v-3.2c0-.3.3-.6.6-.6h5c.5 0 .7.2.7.6v3.2zm0 7c0 .3-.3.5-.7.5h-5c-.3 0-.6-.2-.6-.5v-3.2c0-.3.3-.6.6-.6h5c.5 0 .7.2.7.6v3.2zm0 7.1c0 .3-.3.5-.7.5h-5c-.3 0-.6-.2-.6-.5v-3.2c0-.3.3-.6.6-.6h5c.5 0 .7.2.7.6v3.2zm8.4-3.5c0 .3-.3.5-.7.5h-5c-.3 0-.6-.2-.6-.5v-3.2c0-.3.3-.6.6-.6h5c.5 0 .7.2.7.6v3.2zm0-7.1c0 .3-.3.5-.7.5h-5c-.3 0-.6-.2-.6-.5V14c0-.3.3-.6.6-.6h5c.5 0 .7.2.7.6v3.2zm8.4 3.5c0 .3-.3.5-.7.5h-5c-.3 0-.6-.2-.6-.5v-3.2c0-.3.3-.6.6-.6h5c.5 0 .7.2.7.6v3.2z"/></svg>