<svg id="Layer_1" xmlns="http://www.w3.org/2000/svg" viewBox="0 0 39.7 31.7"><style>.st0{fill-rule:evenodd;clip-rule:evenodd;fill:#00bcf2}</style><path class="st0" d="M33.7 21.1l1-2.3 4.1-1.5V14l-.4-.1-3.6-1.2-1-2.3 1.9-3.9L33.3 4l-.5.3L29.4 6l-2.3-1-1.5-4h-3.4l-.2.4L20.7 5l-2.3 1-3.9-1.8-2.3 2.3.2.5 1.1 2c1.8-1.1 3.9-1.5 6-1.5 3 .1 5.7 1.2 7.8 3.2.4.4 1 .7 1.4 1.2.2.2.4.6.6.9 1.4 2.5.9 5.7-1.5 7.6-1.7 1.5-4.2 1.7-6.1.8-.2-.1-.3-.1-.4-.2-.4-.2-.9-.6-1.3-.9-.2 0-.2-.1-.4-.1-.4 0-1 .2-1.3.6l-.1.1c-1.4 1.5-3.1 2.6-4.8 3.1l-.9 1.3 2.4 2.4.4-.2 3.4-1.7 2.3.9 1.3 4h3.4l.1-.4 1.2-3.6 2.3-1 4 1.8 2.3-2.3-.2-.4-1.7-3.5z"/><path class="st0" d="M13.2 14.9c-2.6 2.7-6.7 2.7-9.2-.1-.2-.3-.9-.3-1.1 0-.2.1-.2.3-.2.6 0 .2.1.4.2.6 3.1 3.3 8.1 3.5 11.3.2V16c2.6-2.5 6.6-2.5 9 .2.4.3.9.3 1.1 0 .1-.1.2-.3.2-.6 0-.2-.1-.4-.2-.6-2.9-3.2-7.9-3.3-11.1-.1z"/><path class="st0" d="M18.8 16.4c-1.4 0-2.6.4-3.5 1.5l-.3.4c-1.7 2-4.1 3-6.6 2.8-2.5 0-4.7-1.3-6.4-3.2-.3-.4-.9-.4-1.1 0v.6c0 .2.2.5.2.6 2 2.3 4.6 3.7 7.5 3.7 2.9.1 5.4-1.1 7.7-3.5l.3-.3c.6-.7 1.5-1.1 2.5-1.1s1.7.4 2.5 1.3c.3.4.9.4 1 0 .2-.2.2-.4.2-.6s-.1-.4-.2-.6c-1-1-2.3-1.6-3.8-1.6zm8.1-4c-2-2.3-4.7-3.6-7.6-3.6-2.8 0-5.5 1.1-7.7 3.4l-.3.3c-.6.7-1.5 1.1-2.5 1.1s-1.7-.5-2.4-1.3c-.4-.4-.9-.4-1.1 0-.1.1-.2.4-.2.6 0 .2.1.5.2.6 1 1.1 2.2 1.7 3.5 1.7 1.4 0 2.6-.5 3.6-1.6l.1-.1s.2 0 .2-.1c1.7-2 4.1-3 6.6-3s4.8 1.3 6.3 3.2c.4.4.9.4 1.1 0 .1-.2.2-.4.2-.6v-.6z"/></svg>