<svg id="Layer_1" xmlns="http://www.w3.org/2000/svg" viewBox="0 0 640 236.9"><style>.st0{fill:#00bcf2}.st1{fill:#fff}.st2,.st3{fill:none;stroke:#29ff92;stroke-width:1.5;stroke-miterlimit:10}.st3{stroke:#fff;stroke-width:3;stroke-linecap:round;stroke-linejoin:round}.st4{fill:#29ff92}</style><path class="st0" d="M236.6 188.5c0 .9-.3 1.2-1.1 1.5-15.3 6.1-30.6 12.3-46 18.5-.8.3-1.2.2-1.8-.4l-76.5-76.5c-.7-.7-1.1-.6-1.8-.1-15.8 12.5-31.6 25-47.5 37.6-.6.5-1 .5-1.6.1-5.8-3-11.7-6-17.5-9-.6-.3-.8-.6-.8-1.3V64.7c0-.6.2-.9.7-1.2 5.9-3 11.8-6 17.7-9.1.6-.3 1-.2 1.5.2 14 11.1 45.8 36.2 47.7 37.8.6.5 1 .4 1.5-.1 13.8-13.9 64.9-64.9 76.6-76.6.6-.6 1-.6 1.8-.3 15.3 6.2 30.7 12.4 46 18.5.7.3 1 .6 1 1.4 0 25.2 0 128 .1 153.2zM188.2 152V71.9c-.3.2-.5.3-.6.5-16.6 13-33.3 26-49.9 39-.8.6-.3.8.1 1.2 12.3 9.6 24.6 19.2 36.8 28.8 4.5 3.5 9 7 13.6 10.6zm-127-9.8l.7-.7c9.4-9.6 18.7-19.3 28.1-28.9.5-.5.4-.8 0-1.2-9.4-9.5-18.8-19-28.1-28.5-.2-.2-.3-.5-.6-.4-.1 19.8-.1 39.7-.1 59.7z"/><path class="st1" d="M582.9 111.1c-.7-1.1-.7-1.9 0-3 3.1-5.2 6.1-10.4 9.2-15.6.8-1.3.9-2.5.5-4l-15.3-57c-1.3-4.7-2.5-9.4-3.8-14.1-.4 0-.5-.1-.7-.1-23.7 6.3-47.5 12.7-71.2 19.1-.9.3-1.9 1.1-2.5 2-3.1 5.2-6.1 10.4-8.9 15.7-.8 1.5-1.7 1.9-3.4 1.9-5.9-.2-11.8-.1-17.7-.2-1.5 0-2.5.4-3.6 1.4-4.5 4.6-9 9.1-13.6 13.6l-38.6 38.6c.3.4.5.7.7.9 17.3 17.3 34.6 34.6 51.9 51.8.6.6 1.8 1 2.8 1 6.1.1 12.2 0 18.3-.1 1.5 0 2.3.5 3 1.7 2.9 5.2 5.9 10.4 8.8 15.6.8 1.4 1.7 2.1 3.2 2.5 20.5 5.4 40.9 10.9 61.4 16.4 3.2.9 6.5 1.7 9.7 2.6.3-.5.4-.8.5-1.1 6.3-23.6 12.7-47.2 18.9-70.8.2-.9-.1-2.2-.6-3.1-2.8-5.2-5.9-10.4-9-15.7zM454.5 96.5c11.7-12 23.4-23.9 35.2-35.9.7-.7 1.6-1.4 2.6-1.7l53.4-13.8c.3-.1.6-.1 1.1-.2-.4.8-.6 1.4-1 2-10 17.4-20.1 34.7-30.1 52.1-.7 1.1-1.4 1.5-2.7 1.5h-60.4c-.4 0-.9 0-1.8-.1 1.4-1.5 2.5-2.7 3.7-3.9zm76.4 73.8c-12.8-3.3-25.5-6.6-38.3-9.9-.9-.2-1.9-.7-2.5-1.3-13-13.2-25.9-26.4-38.8-39.6-.1-.1-.1-.3-.3-.6.6-.1 1.2-.2 1.7-.2h60.2c1.2 0 2 .1 2.8 1.3l30.6 53.1c.1.2.2.4.5 1.1-5.6-1.3-10.7-2.6-15.9-3.9zm46.7-58.3c-4.7 17-9.4 34-14.2 50.9-.2.6-.4 1.2-.7 2.3-2-3.5-3.9-6.7-5.7-9.8-8.5-14.7-17-29.4-25.4-44.1-.4-.8-.6-2.1-.2-2.8 10.2-17.8 20.5-35.5 30.7-53.3.1-.2.3-.3.8-.9 1.8 6.6 3.6 12.9 5.4 19.2 3.2 11.3 6.4 22.6 9.4 34 .3 1.3.3 3-.1 4.5z"/><path class="st2" d="M298 63.9l31.8-31.8L346 48.3"/><path class="st3" d="M300.9 80.7l28.9-29 50.2 50.2"/><path class="st1" d="M277.3 75.8v28.4h28.5z"/><path class="st2" d="M306.4 165.2l-36.5-36.6"/><path class="st3" d="M358.8 140l-29 28.9-50.1-50.1"/><path class="st1" d="M382.4 144.9v-28.5h-28.5z"/><path class="st2" d="M370.8 146.9l-22 22M17.3 5.4v13.8M27.7 5.4v13.8M38 5.4v13.8M48.3 5.4v13.8M58.7 5.4v13.8M69 5.4v13.8M79.3 5.4v13.8M89.7 5.4v13.8M33.5 47H7V5.4h91.2m521 128.3H633v91.2h-26.7m26.7-80.8h-13.8m13.8 10.3h-13.8m13.8 10.3h-13.8m13.8 10.4h-13.8m13.8 10.3h-13.8m13.8 10.3h-13.8m13.8 10.4h-13.8m13.8 10.3h-13.8"/><circle class="st4" cx="589.6" cy="225.9" r="6.4"/><circle class="st4" cx="570.7" cy="225.9" r="6.4"/><circle class="st4" cx="551.7" cy="225.9" r="6.4"/><circle class="st4" cx="532.8" cy="225.9" r="6.4"/></svg>