<svg id="Layer_1" xmlns="http://www.w3.org/2000/svg" viewBox="0 0 577.1 240.1"><style>.st0{fill:none;stroke:#e6e6e6;stroke-width:3;stroke-linecap:round;stroke-linejoin:round;stroke-miterlimit:10}.st1{fill:#29ff92}.st2{fill:#16894e}.st3{fill:#1fbe6e}.st4{fill:#00bcf2}.st5{fill:#005291}.st6{fill:#006fc8}.st7,.st8{fill:none;stroke:#0a0a0a;stroke-width:3;stroke-linecap:round;stroke-linejoin:round;stroke-miterlimit:10}.st8{stroke:#e6e6e6;stroke-width:1.5}.st9{fill:#0a0a0a}</style><path class="st0" d="M6.1 127.4h20l18.6 52.3 18.7-52.3h46l32.3-60.7 32.4 60.7h226l28.5 52.3 28.5-52.3h40.3l26.8-48.7 26.8 48.7h20.1m-565-15.8v31.1m565-31.1v31.1"/><path class="st1" d="M284.1 25.9L196 77.1l-.3 101.9 88.7 51.2 88.1-51.2.3-101.9z"/><path class="st2" d="M372.8 77.1l-.3 101.9-88.1 51.2.3-101.9z"/><path class="st3" d="M284.7 128.3l-.3 101.9-88.7-51.2.3-101.9z"/><path class="st4" d="M196.2 123.6l-48.1 27.9-.2 55.6 48.4 27.9 48.1-27.9.1-55.6z"/><path class="st5" d="M244.5 151.5l-.1 55.6-48.1 27.9.2-55.5z"/><path class="st6" d="M196.5 179.5l-.2 55.5-48.4-27.9.2-55.6z"/><circle class="st7" cx="44.7" cy="179.7" r="17.5"/><circle class="st7" cx="497.4" cy="127.4" r="17.5"/><path class="st7" d="M44.7 179.7h87.4m365.3-52.3V40"/><path class="st0" d="M406.2 57.8l-20 11.6-88.7-51.2 20.1-11.6"/><path class="st8" d="M322.3 20.9l-10 5.8m24.8 2.7L327 35.3m24.9 2.7l-10.1 5.8m24.8 2.7l-10 5.8m24.8 2.7l-10 5.9"/><path class="st0" d="M406.2 159.5l-20 11.7V69.4"/><path class="st8" d="M396.2 80.5l-10 5.9m10 11.1l-10 5.8m10 11.2l-10 5.8m10 11.1l-10 5.8m10 11.2l-10 5.8"/><path class="st9" d="M73.6 165.3c1.8 0 3.3 1.5 3.3 3.3s-1.5 3.3-3.3 3.3c-1.8 0-3.3-1.5-3.3-3.3s1.5-3.3 3.3-3.3m0-1.5c-2.7 0-4.8 2.2-4.8 4.8s2.2 4.8 4.8 4.8 4.8-2.2 4.8-4.8-2.1-4.8-4.8-4.8zm15.5 1.5c1.8 0 3.3 1.5 3.3 3.3s-1.5 3.3-3.3 3.3-3.3-1.5-3.3-3.3 1.4-3.3 3.3-3.3m0-1.5c-2.7 0-4.8 2.2-4.8 4.8s2.2 4.8 4.8 4.8 4.8-2.2 4.8-4.8-2.2-4.8-4.8-4.8zm15.4 1.5c1.8 0 3.3 1.5 3.3 3.3s-1.5 3.3-3.3 3.3c-1.8 0-3.3-1.5-3.3-3.3s1.4-3.3 3.3-3.3m0-1.5c-2.7 0-4.8 2.2-4.8 4.8s2.2 4.8 4.8 4.8 4.8-2.2 4.8-4.8-2.1-4.8-4.8-4.8z"/><circle class="st9" cx="119.9" cy="168.6" r="4.8"/><path class="st9" d="M486.6 93.7c1.8 0 3.3 1.5 3.3 3.3 0 1.8-1.5 3.3-3.3 3.3s-3.3-1.5-3.3-3.3c-.1-1.8 1.4-3.3 3.3-3.3m0-1.5c-2.7 0-4.8 2.2-4.8 4.8s2.2 4.8 4.8 4.8 4.8-2.2 4.8-4.8-2.2-4.8-4.8-4.8zm0-13.9c1.8 0 3.3 1.5 3.3 3.3 0 1.8-1.5 3.3-3.3 3.3s-3.3-1.5-3.3-3.3c-.1-1.8 1.4-3.3 3.3-3.3m0-1.5c-2.7 0-4.8 2.2-4.8 4.8s2.2 4.8 4.8 4.8 4.8-2.2 4.8-4.8-2.2-4.8-4.8-4.8zm0-13.9c1.8 0 3.3 1.5 3.3 3.3s-1.5 3.3-3.3 3.3-3.3-1.5-3.3-3.3 1.4-3.3 3.3-3.3m0-1.5c-2.7 0-4.8 2.2-4.8 4.8s2.2 4.8 4.8 4.8 4.8-2.2 4.8-4.8-2.2-4.8-4.8-4.8z"/><circle class="st9" cx="486.6" cy="50.8" r="4.8"/><circle class="st9" cx="497.4" cy="127.4" r="10.1"/><circle class="st9" cx="44.7" cy="179.7" r="10.1"/><path class="st4" d="M372.7 148.4l-26.4 15.3-.1 30.5 26.6 15.3 26.3-15.3.1-30.5z"/><path class="st5" d="M399.2 163.7l-.1 30.5-26.3 15.3V179z"/><path class="st6" d="M372.8 179v30.5l-26.6-15.3.1-30.5z"/></svg>