<svg id="Layer_1" xmlns="http://www.w3.org/2000/svg" viewBox="0 0 550 212.5"><style>.st0{fill:none;stroke:#e6e6e6;stroke-width:1.5;stroke-linecap:round;stroke-linejoin:round;stroke-miterlimit:10}.st1{fill:#00bcf2}.st2,.st3,.st4{fill:none;stroke:#fff;stroke-width:1.5;stroke-miterlimit:10}.st3,.st4{stroke:#0a0a0a;stroke-width:3;stroke-linecap:round;stroke-linejoin:round}.st4{stroke-width:1.5}.st5{fill:#0a0a0a}.st6{fill:#29ff92}.st7{fill:#1fbe6e}.st8{fill:#fff}.st9{fill:#e6e6e6}.st10{fill:#fff;stroke:#e6e6e6;stroke-width:1.5;stroke-linecap:round;stroke-linejoin:round;stroke-miterlimit:10}</style><path class="st0" d="M432.3 121.9c21.8 0 39.6 17.3 39.6 38.5"/><path class="st1" d="M305.3 8.5c29 0 52.4 22.6 52.4 50.4v7.2c31.5 0 57.1 24.5 57.1 54.9v11h17.5c16.4 0 29.6 12.7 29.6 28.5S448.6 189 432.3 189H156.9c-21.5 0-38.9-16.7-38.9-37.4 0-20.6 17.4-37.4 38.9-37.4h24.8c0-30.3 25.6-54.9 57.1-54.9h14.1c0-28.3 23.5-50.8 52.4-50.8z"/><path class="st2" d="M362.1 176.8h-92.2m154.5-32.9h7.9c9.7 0 17.6 7.4 17.6 16.5s-7.9 16.5-17.6 16.5h-22.4m-7.1-56v23M333.6 31.5c7.5 7 12.1 16.7 12.1 27.4v19.2h12m-92.8-18.9c0-12 5.7-22.7 14.6-29.8m-85.8 96.7v-12c0-12.7 5.8-24.1 15.1-32 8-6.8 18.5-10.9 30-10.9m-81.9 105.6c-14.8 0-26.9-11.4-26.9-25.4"/><path class="st3" d="M114.2 103.4L85 74.1H7.1"/><path class="st4" d="M127.1 116.2l-7-7"/><path class="st3" d="M159.8 102.7V91.6c-31.7 0-57.3 25.7-57.3 57.3h11.1"/><path class="st4" d="M116.9 131.6l-9.2-3.7m34-21.6l-3.9-9.1m54.7 84.4l6.9 7"/><path class="st3" d="M159.8 195.1v11.1c31.7 0 57.3-25.7 57.3-57.3H206"/><path class="st4" d="M202.7 166.2l9.1 3.7m-33.9 21.5l3.8 9.1M403.9 72l8.1-8"/><path class="st3" d="M419.5 109.7h12.8c0-36.5-29.6-66-66-66v12.7"/><path class="st4" d="M386.2 60.3l4.2-10.6m24.9 39.1l10.5-4.4m-97.2 62.9l-8 8.1"/><path class="st3" d="M313 109.7h-12.8c0 36.5 29.6 66 66 66v-12.8"/><path class="st4" d="M346.4 159.1l-4.3 10.5m-24.8-39.1l-10.5 4.5"/><path class="st0" d="M197.4 63.1c11.4-8.7 25.8-13.9 41.4-13.9"/><path class="st3" d="M418 58l35.3-35.3h89.6"/><path class="st5" d="M536.5 9.9c1.7 0 3.1 1.4 3.1 3.1s-1.4 3.1-3.1 3.1-3.1-1.4-3.1-3.1 1.4-3.1 3.1-3.1m0-1.5c-2.6 0-4.6 2.1-4.6 4.6s2.1 4.6 4.6 4.6 4.6-2.1 4.6-4.6-2-4.6-4.6-4.6z"/><circle class="st5" cx="523" cy="13" r="4.6"/><path class="st5" d="M509.4 9.9c1.7 0 3.1 1.4 3.1 3.1s-1.4 3.1-3.1 3.1-3.1-1.4-3.1-3.1 1.4-3.1 3.1-3.1m0-1.5c-2.6 0-4.6 2.1-4.6 4.6s2.1 4.6 4.6 4.6 4.6-2.1 4.6-4.6-2-4.6-4.6-4.6zm-13.5 1.5c1.7 0 3.1 1.4 3.1 3.1s-1.4 3.1-3.1 3.1-3.1-1.4-3.1-3.1 1.3-3.1 3.1-3.1m0-1.5c-2.6 0-4.6 2.1-4.6 4.6s2.1 4.6 4.6 4.6 4.6-2.1 4.6-4.6-2.1-4.6-4.6-4.6z"/><path class="st6" d="M459.1 29.3h4.8v12.9h-4.8zm8.6 0h4.8v22.2h-4.8zm8.7 0h4.8v12.9h-4.8z"/><path class="st7" d="M485 29.3h4.8v15.4H485zm8.6 0h4.8v8.8h-4.8z"/><path class="st6" d="M502.2 29.3h4.8v12.9h-4.8zm8.7 0h4.8v21.6h-4.8zm8.6 0h4.8v12.9h-4.8z"/><path class="st7" d="M528.1 29.3h4.8v7.6h-4.8z"/><path class="st6" d="M536.7 29.3h4.8v4.4h-4.8zM5.9 79.1h4.8v5.4H5.9z"/><path class="st7" d="M14.5 79.1h4.8v10.8h-4.8z"/><path class="st6" d="M23.1 79.1h4.8v16.2h-4.8zm8.7 0h4.8v11.6h-4.8zm8.6 0h4.8v14.3h-4.8z"/><path class="st7" d="M49 79.1h4.8V92H49zm8.6 0h4.8v21.6h-4.8z"/><path class="st6" d="M66.3 79.1h4.8V92h-4.8z"/><path class="st7" d="M74.9 79.1h4.8v16.2h-4.8z"/><path class="st5" d="M51.4 61.4c1.7 0 3.1 1.4 3.1 3.1s-1.4 3.1-3.1 3.1-3.1-1.4-3.1-3.1 1.3-3.1 3.1-3.1m0-1.5c-2.6 0-4.6 2.1-4.6 4.6s2.1 4.6 4.6 4.6S56 67 56 64.5s-2.1-4.6-4.6-4.6z"/><circle class="st5" cx="37.8" cy="64.5" r="4.6"/><circle class="st5" cx="24.3" cy="64.5" r="4.6"/><circle class="st5" cx="10.7" cy="64.5" r="4.6"/><path class="st0" d="M210.6 33.1l5.9 19.8m-2.3-43.5L184 20.2l26.6 12.9z"/><path class="st0" d="M184 20.2l4.2 22.3 22.4-9.4"/><path class="st8" d="M184 24.1c-.3 0-.7 0-1-.1-1-.3-1.8-.9-2.4-1.8s-.7-1.9-.4-2.9c.4-1.7 2-2.9 3.7-2.9.3 0 .7 0 1 .1 2.1.5 3.3 2.7 2.8 4.7-.4 1.7-2 2.9-3.7 2.9z"/><path class="st9" d="M184 17.1c.3 0 .5 0 .8.1.8.2 1.5.7 1.9 1.4s.5 1.6.3 2.4c-.4 1.4-1.6 2.3-3 2.3-.3 0-.5 0-.8-.1-1.7-.4-2.7-2.1-2.2-3.8.3-1.4 1.6-2.3 3-2.3m0-1.5c-2.1 0-3.9 1.4-4.5 3.5-.6 2.5.8 5 3.3 5.6.4.1.8.2 1.2.2 2.1 0 3.9-1.4 4.5-3.5.6-2.5-.8-5-3.3-5.6-.4-.2-.8-.2-1.2-.2z"/><path class="st8" d="M188.2 46.4c-.3 0-.7 0-1-.1-1-.3-1.8-.9-2.4-1.8s-.7-1.9-.4-2.9c.4-1.7 2-2.9 3.7-2.9.3 0 .7 0 1 .1 2.1.5 3.3 2.7 2.8 4.7-.4 1.7-1.9 2.9-3.7 2.9z"/><path class="st9" d="M188.2 39.4c.3 0 .5 0 .8.1.8.2 1.5.7 1.9 1.4s.5 1.6.3 2.4c-.4 1.4-1.6 2.3-3 2.3-.3 0-.5 0-.8-.1-1.7-.4-2.7-2.1-2.2-3.8.4-1.4 1.6-2.3 3-2.3m0-1.5c-2.1 0-3.9 1.4-4.5 3.5-.6 2.5.8 5 3.3 5.6.4.1.8.2 1.2.2 2.1 0 3.9-1.4 4.5-3.5.6-2.5-.8-5-3.3-5.6-.4-.2-.8-.2-1.2-.2z"/><path class="st0" d="M214.2 9.4l19.5 14.5-23.1 9.2z"/><path class="st8" d="M214.2 13.2c-.3 0-.7 0-1-.1-1-.3-1.8-.9-2.4-1.8s-.7-1.9-.4-2.9c.4-1.7 2-2.9 3.7-2.9.3 0 .7 0 1 .1 1 .3 1.8.9 2.4 1.8s.7 1.9.4 2.9c-.4 1.7-1.9 2.9-3.7 2.9z"/><path class="st9" d="M214.2 6.2c.3 0 .5 0 .8.1 1.7.4 2.7 2.1 2.2 3.8-.4 1.4-1.6 2.3-3 2.3-.3 0-.5 0-.8-.1-1.7-.4-2.7-2.1-2.2-3.8.3-1.3 1.6-2.3 3-2.3m0-1.5c-2.1 0-3.9 1.4-4.5 3.5-.6 2.5.8 5 3.3 5.6.4.1.8.2 1.2.2 2.1 0 3.9-1.4 4.5-3.5.6-2.5-.8-5-3.3-5.6-.4-.1-.8-.2-1.2-.2z"/><path class="st8" d="M210.6 36.9c-.3 0-.7 0-1-.1-2.1-.5-3.3-2.7-2.8-4.7.4-1.7 2-2.9 3.7-2.9.3 0 .7 0 1 .1 1 .3 1.8.9 2.4 1.8s.7 1.9.4 2.9c-.4 1.8-1.9 2.9-3.7 2.9z"/><path class="st9" d="M210.6 29.9c.3 0 .5 0 .8.1.8.2 1.5.7 1.9 1.4s.5 1.6.3 2.4c-.4 1.4-1.6 2.3-3 2.3-.3 0-.5 0-.8-.1-1.7-.4-2.7-2.1-2.2-3.8.3-1.3 1.6-2.3 3-2.3m0-1.5c-2.1 0-3.9 1.4-4.5 3.5-.6 2.5.8 5 3.3 5.6.4.1.8.2 1.2.2 2.1 0 3.9-1.4 4.5-3.5.6-2.5-.8-5-3.3-5.6-.4-.1-.8-.2-1.2-.2z"/><path class="st8" d="M233.7 27.7c-.3 0-.7 0-1-.1-1-.3-1.8-.9-2.4-1.8s-.7-1.9-.4-2.9c.4-1.7 2-2.9 3.7-2.9.3 0 .7 0 1 .1 2.1.5 3.3 2.7 2.8 4.7-.4 1.7-1.9 2.9-3.7 2.9z"/><path class="st9" d="M233.7 20.7c.3 0 .5 0 .8.1 1.7.4 2.7 2.1 2.2 3.8-.4 1.4-1.6 2.3-3 2.3-.3 0-.5 0-.8-.1-.8-.2-1.5-.7-1.9-1.4s-.5-1.6-.3-2.4c.4-1.3 1.6-2.3 3-2.3m0-1.5c-2.1 0-3.9 1.4-4.5 3.5-.6 2.5.8 5 3.3 5.6.4.1.8.2 1.2.2 2.1 0 3.9-1.4 4.5-3.5.6-2.5-.8-5-3.3-5.6-.4-.1-.8-.2-1.2-.2z"/><path class="st10" d="M459.9 132.8l12-12.5"/><path class="st0" d="M471.9 119.6l-4-15.4 18.8 3.1.6 22.4z"/><path class="st8" d="M486.7 111.2c-1.7 0-3.1-1.1-3.7-2.6-.3-1-.3-2 .2-3s1.3-1.6 2.2-1.9c.4-.1.8-.2 1.2-.2 1.7 0 3.1 1.1 3.7 2.6.7 2-.4 4.2-2.4 4.9-.3.1-.8.2-1.2.2z"/><path class="st9" d="M486.7 104.2c1.3 0 2.5.9 3 2.1.3.8.2 1.6-.2 2.4s-1 1.3-1.8 1.6c-.3.1-.7.2-1 .2-1.3 0-2.5-.9-3-2.1-.3-.8-.2-1.6.2-2.4s1-1.3 1.8-1.6c.3-.1.7-.2 1-.2m0-1.5c-.5 0-1 .1-1.5.2-2.4.8-3.7 3.4-2.9 5.9.6 1.9 2.5 3.2 4.4 3.2.5 0 1-.1 1.5-.2 2.4-.8 3.7-3.4 2.9-5.9-.6-2-2.4-3.2-4.4-3.2z"/><path class="st8" d="M467.9 108.1c-1.7 0-3.1-1.1-3.7-2.6-.7-2 .4-4.2 2.4-4.9.4-.1.8-.2 1.2-.2 1.7 0 3.1 1.1 3.7 2.6.3 1 .3 2-.2 3s-1.3 1.6-2.2 1.9c-.3.1-.7.2-1.2.2z"/><path class="st9" d="M467.9 101.1c1.3 0 2.5.9 3 2.1.5 1.6-.3 3.4-2 4-.3.1-.7.2-1 .2-1.3 0-2.5-.9-3-2.1-.3-.8-.2-1.6.2-2.4s1-1.3 1.8-1.6c.4-.2.7-.2 1-.2m0-1.5c-.5 0-1 .1-1.5.2-2.4.8-3.7 3.4-2.9 5.9.6 1.9 2.5 3.2 4.4 3.2.5 0 1-.1 1.5-.2 2.4-.8 3.7-3.4 2.9-5.9-.6-2-2.4-3.2-4.4-3.2z"/><path class="st8" d="M487.3 133.6c-1.7 0-3.1-1.1-3.7-2.6-.3-1-.3-2 .2-3 .5-.9 1.3-1.6 2.2-1.9.4-.1.8-.2 1.2-.2 1.7 0 3.1 1.1 3.7 2.6.3 1 .3 2-.2 3-.5.9-1.3 1.6-2.2 1.9-.4.1-.8.2-1.2.2z"/><path class="st9" d="M487.3 126.6c1.3 0 2.5.9 3 2.1.3.8.2 1.6-.2 2.4s-1 1.3-1.8 1.6c-.3.1-.7.2-1 .2-1.3 0-2.5-.9-3-2.1-.5-1.6.3-3.4 2-4 .3-.2.7-.2 1-.2m0-1.5c-.5 0-1 .1-1.5.2-2.4.8-3.7 3.4-2.9 5.9.6 1.9 2.5 3.2 4.4 3.2.5 0 1-.1 1.5-.2 2.4-.8 3.7-3.4 2.9-5.9-.7-2-2.5-3.2-4.4-3.2z"/><path class="st8" d="M471.9 124.2c-1.7 0-3.1-1.1-3.7-2.6-.3-1-.3-2 .2-3 .5-.9 1.3-1.6 2.2-1.9.4-.1.8-.2 1.2-.2 1.7 0 3.1 1.1 3.7 2.6.3 1 .3 2-.2 3-.5.9-1.3 1.6-2.2 1.9-.4.1-.8.2-1.2.2z"/><path class="st9" d="M471.9 117.2c1.3 0 2.5.9 3 2.1.5 1.6-.3 3.4-2 4-.3.1-.7.2-1 .2-1.3 0-2.5-.9-3-2.1-.5-1.6.3-3.4 2-4 .3-.1.7-.2 1-.2m0-1.5c-.5 0-1 .1-1.5.2-2.4.8-3.7 3.4-2.9 5.9.6 1.9 2.5 3.2 4.4 3.2.5 0 1-.1 1.5-.2 2.4-.8 3.7-3.4 2.9-5.9-.7-2-2.5-3.2-4.4-3.2z"/></svg>