<svg id="Layer_1" xmlns="http://www.w3.org/2000/svg" viewBox="0 0 607.3 207"><style>.st0{fill:#29ff92}.st1{fill:#1fbe6e}.st2{fill:#006fc8}.st3{fill:#00bcf2}.st4,.st5{fill:none;stroke:#e6e6e6;stroke-width:1.5;stroke-linecap:round;stroke-linejoin:round;stroke-miterlimit:10}.st5{stroke:#0a0a0a;stroke-width:3}.st6{fill:#0a0a0a}.st7{stroke:#e6e6e6;stroke-width:1.5;stroke-linecap:round;stroke-linejoin:round;stroke-miterlimit:10}.st7,.st8{fill:#fff}</style><path class="st0" d="M198.2 48.5h205v82.2h-205z"/><path class="st1" d="M198.2 130.8h205v5.5h-205z"/><path class="st0" d="M198.2 136.3h205v5.5h-205z"/><path class="st1" d="M198.2 141.8h205v5.5h-205z"/><path class="st0" d="M198.2 147.4h205v5.5h-205z"/><path class="st1" d="M198.2 152.9h205v5.5h-205z"/><circle class="st1" cx="300.7" cy="89.7" r="27.8"/><path class="st0" d="M301.8 104.1h-2.3c-2.7 0-4.8-2.2-4.8-4.8V80.1c0-2.7 2.2-4.8 4.8-4.8h2.3c2.7 0 4.8 2.2 4.8 4.8v19.1c.1 2.7-2.1 4.9-4.8 4.9z"/><path class="st2" d="M159.7 84.3c0-5.7-19-10.3-42.5-10.3s-42.5 4.6-42.5 10.3v71.4c0 5.7 19 10.3 42.5 10.3s42.5-4.6 42.5-10.3V84.3z"/><ellipse class="st3" cx="117.2" cy="84.3" rx="42.5" ry="10.3"/><path class="st2" d="M526.7 38.4c0-5.7-19-10.3-42.5-10.3s-42.5 4.6-42.5 10.3v131.5c0 5.7 19 10.3 42.5 10.3s42.5-4.6 42.5-10.3V38.4z"/><ellipse class="st3" cx="484.2" cy="38.4" rx="42.5" ry="10.3"/><path class="st4" d="M276.9 41.1L243.8 8h-80.3c-12.3 0-24 4.9-32.7 13.6-8.7 8.7-13.6 20.4-13.6 32.7v14.5m207.1 97.1l33.3 33.4h99.5l13.5-13.6"/><path class="st5" d="M39.3 185.7L8.9 199.3V7.7l30.4 13.6"/><path class="st6" d="M20.5 29.8l7.2 3.2v141l-7.2 3.2z"/><path class="st4" d="M39.3 68.7h12.3M39.3 84.3h21.6M39.3 99.8h12.3m-12.3 15.5h12.3m-12.3 15.5h12.3m-12.3 15.5h12.3m-12.3 15.5h12.3"/><circle class="st7" cx="60.9" cy="84.3" r="7.2"/><path class="st5" d="M568 185.7l30.4 13.6V7.7L568 21.3"/><path class="st6" d="M586.8 29.8l-7.2 3.2v141l7.2 3.2z"/><path class="st4" d="M568 53.2h-12.3M568 68.7h-12.3M568 99.8h-12.3m12.3 15.5h-12.3m12.3 15.5h-12.3m12.3 15.5h-12.3m12.3 15.5h-12.3m12.3 15.5h-12.3m12.3-93h-12.3M568 37.7h-21.6m0 12.6V25.2M211.3 35.5c-7.2-7.2-18.9-7.2-26.2 0s-7.2 18.9 0 26.2"/><path class="st4" d="M185.2 35.6l-11.3-11.3V8m192.3 159.7h33.3m-16.7 0v31.6"/><path class="st8" d="M580.4 47.4h5.7v28.8h-5.7z"/><path class="st6" d="M585.3 48.2v27.3h-4.2V48.2h4.2m1.5-1.5h-7.2V77h7.2V46.7z"/><path class="st8" d="M21.2 97.1h5.7v28.8h-5.7z"/><path class="st6" d="M26.2 97.8v27.3H22V97.8h4.2m1.5-1.5h-7.2v30.3h7.2V96.3z"/></svg>