<svg id="Layer_1" xmlns="http://www.w3.org/2000/svg" viewBox="0 0 595.8 263.8"><style>.st0{fill:#006fc8}.st1{fill:#1fbe6e}.st2,.st3{fill:none;stroke:#e6e6e6;stroke-width:3;stroke-linecap:round;stroke-linejoin:round;stroke-miterlimit:10}.st3{stroke-width:1.5}.st4{fill:#00bcf2}.st5{fill:#29ff92}.st6{fill:none;stroke:#0a0a0a;stroke-width:3;stroke-linecap:round;stroke-linejoin:round;stroke-miterlimit:10}.st7{fill:#141414}</style><circle class="st0" cx="298.3" cy="141.5" r="116.5"/><path class="st1" d="M364.9 178.1h-14.8L328.2 200v26.2l20.3 20.3c23.3-11.1 42.2-29.8 53.8-52.8h-21.7l-15.7-15.6z"/><path class="st2" d="M22.8 25h-18v233h18"/><path class="st3" d="M4.8 45h9m-9 24.2h9m-9 24.1h9m-9 24.1h9m-9 24.1h9m-9 24.1h9m-9 24.1h9m-9 24.2h9m-9 24.1h9"/><path class="st2" d="M573 258h18V25h-18"/><path class="st3" d="M591 238h-9m9-24.1h-9m9-24.2h-9m9-24.1h-9m9-24.1h-9m9-24.1h-9m9-24.1h-9m9-24.1h-9m9-24.2h-9"/><path class="st4" d="M368.5 95.3c0-20.3-5.2-39.3-14.3-55.9-16.6-9.2-35.7-14.4-55.9-14.4-64.3 0-116.5 52.2-116.5 116.5 0 20.3 5.2 39.3 14.3 55.9 16.6 9.1 35.7 14.3 55.9 14.3 64.4 0 116.5-52.1 116.5-116.4z"/><path class="st1" d="M392.4 72.9h-43.2l-17.4 17.4 39.7 39.7v27.1l17.2 17.2h21.4c3.1-10.4 4.7-21.4 4.7-32.8 0-25.7-8.4-49.4-22.4-68.6z"/><path class="st5" d="M366.4 72.9h-17.1l-17.4 17.4 33.3 33.3c2.3-9.1 3.5-18.5 3.5-28.3-.2-7.7-.9-15.2-2.3-22.4z"/><path class="st1" d="M252.8 203.6v-28.5l-31.6-31.6h36.5l29.4-29.4L265 91.9l23.4-23.4-13.3-13.3h-55c-23.5 21.3-38.3 52.1-38.3 86.4 0 36.4 16.7 68.9 42.8 90.2l12-12 16.2-16.2z"/><path class="st5" d="M252.8 175.1l-31.6-31.6h36.5l29.4-29.4L265 91.9l23.4-23.4-13.3-13.3h-55c-23.5 21.3-38.3 52.1-38.3 86.4 0 20.3 5.2 39.3 14.3 55.9 14.6 8 31.2 13 48.8 14.1l7.9-7.9v-28.6z"/><path class="st6" d="M110.8 42.8h101.7l24.8 24.7"/><ellipse transform="rotate(-45.001 244.956 75.232)" class="st6" cx="245" cy="75.2" rx="10.9" ry="10.9"/><path class="st6" d="M481.3 235.6h-89.6L367 210.8"/><ellipse transform="rotate(-45.001 359.284 203.136)" class="st6" cx="359.3" cy="203.1" rx="10.9" ry="10.9"/><path class="st6" d="M79.5 193.7h121.7l24.7-24.8"/><ellipse transform="rotate(-45.001 233.638 161.237)" class="st6" cx="233.6" cy="161.2" rx="10.9" ry="10.9"/><path class="st6" d="M500.9 72.8H379.2l-24.8 24.7"/><ellipse transform="rotate(-45.001 346.692 105.244)" class="st6" cx="346.7" cy="105.2" rx="10.9" ry="10.9"/><path class="st7" d="M439.9 211.9c2.6-1.3 4.4-3.9 4.4-7 0-4.3-3.5-7.8-7.8-7.8s-7.8 3.5-7.8 7.8c0 3.1 1.8 5.7 4.4 7-6.2 1.5-10.7 7.1-10.7 13.7h28.2c0-6.6-4.6-12.2-10.7-13.7zm31.2 0c2.6-1.3 4.4-3.9 4.4-7 0-4.3-3.5-7.8-7.8-7.8s-7.8 3.5-7.8 7.8c0 3.1 1.8 5.7 4.4 7-6.2 1.5-10.7 7.1-10.7 13.7h28.2c.1-6.6-4.5-12.2-10.7-13.7z"/><path class="st7" d="M461.3 211.5c-1.7-1.7-2.7-4-2.7-6.6 0-1.5.4-2.9 1-4.2-1.2-.8-2.6-1.3-4-1.7 2.6-1.3 4.4-3.9 4.4-7 0-4.3-3.5-7.8-7.8-7.8s-7.8 3.5-7.8 7.8c0 3.1 1.8 5.7 4.4 7-1.4.4-2.8.9-4 1.7.6 1.3 1 2.7 1 4.2 0 2.5-1 4.9-2.7 6.6 5.5 2.5 9.1 8 9.1 14.1h.1c-.1-6.2 3.5-11.7 9-14.1zm-2.4-162.4c2.6-1.3 4.4-3.9 4.4-7 0-4.3-3.5-7.8-7.8-7.8s-7.8 3.5-7.8 7.8c0 3.1 1.8 5.7 4.4 7-6.2 1.5-10.7 7.1-10.7 13.7h28.2c0-6.7-4.6-12.2-10.7-13.7zm31.2 0c2.6-1.3 4.4-3.9 4.4-7 0-4.3-3.5-7.8-7.8-7.8s-7.8 3.5-7.8 7.8c0 3.1 1.8 5.7 4.4 7-6.2 1.5-10.7 7.1-10.7 13.7h28.2c.1-6.7-4.5-12.2-10.7-13.7z"/><path class="st7" d="M480.3 48.6c-1.7-1.7-2.7-4-2.7-6.6 0-1.5.4-2.9 1-4.2-1.2-.8-2.6-1.3-4-1.7 2.6-1.3 4.4-3.9 4.4-7 0-4.3-3.5-7.8-7.8-7.8s-7.8 3.5-7.8 7.8c0 3.1 1.8 5.7 4.4 7-1.4.4-2.8.9-4 1.7.6 1.3 1 2.7 1 4.2 0 2.5-1 4.9-2.7 6.6 5.5 2.5 9.1 8 9.1 14.1h.1c-.1-6.1 3.5-11.6 9-14.1zm-52.7.5c2.6-1.3 4.4-3.9 4.4-7 0-4.3-3.5-7.8-7.8-7.8s-7.8 3.5-7.8 7.8c0 3.1 1.8 5.7 4.4 7-6.2 1.5-10.7 7.1-10.7 13.7h28.2c.1-6.7-4.5-12.2-10.7-13.7z"/><path class="st7" d="M449 48.6c-1.7-1.7-2.7-4-2.7-6.6 0-1.5.4-2.9 1-4.2-1.2-.8-2.6-1.3-4-1.7 2.6-1.3 4.4-3.9 4.4-7 0-4.3-3.5-7.8-7.8-7.8s-7.8 3.5-7.8 7.8c0 3.1 1.8 5.7 4.4 7-1.4.4-2.8.9-4 1.7.6 1.3 1 2.7 1 4.2 0 2.5-1 4.9-2.7 6.6 5.5 2.5 9.1 8 9.1 14.1h.1c-.1-6.1 3.6-11.6 9-14.1zM127.8 19.1c2.6-1.3 4.4-3.9 4.4-7 0-4.3-3.5-7.8-7.8-7.8s-7.8 3.5-7.8 7.8c0 3.1 1.8 5.7 4.4 7-6.2 1.5-10.7 7.1-10.7 13.7h28.2c0-6.7-4.6-12.2-10.7-13.7zm31.2 0c2.6-1.3 4.4-3.9 4.4-7 0-4.3-3.5-7.8-7.8-7.8s-7.8 3.5-7.8 7.8c0 3.1 1.8 5.7 4.4 7-6.2 1.5-10.7 7.1-10.7 13.7h28.2c0-6.7-4.5-12.2-10.7-13.7zM97 170c2.6-1.3 4.4-3.9 4.4-7 0-4.3-3.5-7.8-7.8-7.8s-7.8 3.5-7.8 7.8c0 3.1 1.8 5.7 4.4 7-6.2 1.5-10.7 7.1-10.7 13.7h28.2c0-6.6-4.5-12.2-10.7-13.7z"/><path class="st0" d="M42.2 80.6L23.8 93.3l18.4 12.8zm511.4 121.9l18.4-12.8-18.4-12.7z"/></svg>