<svg id="Layer_1" xmlns="http://www.w3.org/2000/svg" viewBox="0 0 354.6 77.9"><style>.st0{fill:#77787b}.st1{fill:#d95125}.st2{fill:#80a442}.st3{fill:#3489c3}.st4{fill:#e6a113}</style><path class="st0" d="M322.9 15.1c3.3-2.1 7.5-2.3 11.2-1.3v6.6c-1.8-.8-3.8-1.3-5.7-.5-1.5.6-2.3 2.1-2.6 3.6-.3 1.9-.1 3.8-.1 5.8h11.2V22c2.5-.7 5.1-1.5 7.6-2.3v9.6h7.6v6.2c-2.5-.1-5.1 0-7.6 0v10.8c0 2-.1 4 .1 6 .1 1.2.6 2.5 1.7 3.1 1.8 1 4.2.6 5.8-.5V61c-2.2 1-4.7 1.2-7 1.1-2.3-.2-4.6-1-6.1-2.8-1.7-2-2.1-4.8-2.2-7.3V35.5h-11.3v25.9h-7.7V35.5h-5.4v-6.2h5.3c.1-2.7-.3-5.5.5-8.2 1.1-2.4 2.6-4.6 4.7-6zm-164.6.5c1.6-.2 3.2.3 4.3 1.5 1.2 1.3 1.4 3.4.5 5-1 1.8-3.2 2.6-5.1 2.1-2-.4-3.7-2.2-3.6-4.3-.1-2.1 1.7-4.1 3.9-4.3zm-58.9.9h11.2c3.5 8.8 7 17.7 10.5 26.5.9 2.2 1.7 4.4 2.7 6.6 4.5-11 9-22.1 13.5-33.1 3.6-.1 7.2 0 10.8 0v44.8h-7.8V26.7c-.2.2-.3.5-.4.7-4.4 11.3-9 22.6-13.4 33.9-1.8.1-3.7 0-5.5 0-4.6-11.3-9.1-22.6-13.7-33.9-.1-.2-.2-.5-.4-.7-.1 4.8 0 9.7 0 14.5v20.1h-7.3c-.3-14.9-.3-29.8-.2-44.8zm80 12.7c3.7-1.1 7.7-1 11.4 0 .8.2 1.5.5 2.2.9v7.4c-2.5-1.9-5.6-3.1-8.8-2.7-2.5.2-4.9 1.5-6.4 3.5-1.9 2.5-2.4 5.8-2 8.9.2 2.4 1.2 4.8 3.1 6.4 1.9 1.7 4.7 2.3 7.2 2.1 2.5-.3 4.9-1.3 6.9-2.8v7c-3.1 1.9-6.9 2.4-10.5 2.2-3.7-.2-7.4-1.6-10-4.2-2.9-2.8-4.5-6.8-4.7-10.8-.2-4.1.7-8.5 3-11.9 2.1-2.9 5.2-5 8.6-6zm84-.5c3.6-.6 7.3-.2 10.6 1.1v7.1c-2.4-1.6-5.2-2.5-8.1-2.4-1.4.1-3 .7-3.7 2-.5 1.4-.2 3.1 1.1 3.9 2.2 1.5 4.8 2.1 7 3.4 1.8 1 3.5 2.3 4.4 4.2 1.7 3.5 1 8.2-2 10.8-2.8 2.7-6.9 3.4-10.7 3.3-2.7-.2-5.4-.7-7.8-1.8v-7.4c2.1 1.5 4.5 2.6 7 3 1.8.3 3.7.3 5.3-.5 1.6-.8 1.8-3 .9-4.4-.9-1.1-2.2-1.6-3.4-2.2-2.3-1-4.6-1.9-6.6-3.4-1.4-1.1-2.5-2.6-2.9-4.4-.6-2.6-.4-5.4 1.1-7.7 1.9-2.5 4.8-4 7.8-4.6zm-53.1 1c2.1-1.3 4.8-1.4 7.1-.6v7.7c-1.5-1-3.4-1.4-5.2-1.2-2.2.2-3.9 1.9-4.8 3.8-1 2-1.2 4.3-1.1 6.6v15.4h-7.6V29.3h7.6v5.5c.8-2 2-4 4-5.1zm-55.2-.4h7.7v32.1h-7.6c-.1-10.7-.1-21.4-.1-32.1zm94.2 7.5c-1.3-3-3.7-5.4-6.7-6.8-3.4-1.6-7.3-1.8-11-1.3-3.9.5-7.6 2.3-10.1 5.4-2.2 2.8-3.3 6.3-3.5 9.8-.3 4.1.4 8.5 2.8 12 2.1 3 5.3 5 8.9 5.8 3 .6 6 .6 9 0 3.5-.7 6.7-2.6 8.8-5.4 2.1-2.7 3.1-6 3.4-9.4.1-3.4-.2-7-1.6-10.1zm-7.5 14.7c-.7 1.7-2.1 3-3.8 3.7-2 .8-4.2.8-6.3.3s-3.9-2.1-4.8-4c-1.2-2.5-1.4-5.3-1.2-8 .2-2.5 1.1-5 3-6.7 1.4-1.3 3.2-1.9 5.1-2 2.3-.2 4.8.5 6.4 2.2 1.8 1.7 2.5 4.3 2.7 6.7.2 2.6.1 5.4-1.1 7.8zm69.1-13.8c-1.2-3.2-3.6-5.9-6.6-7.5-3.5-1.8-7.6-2-11.4-1.6-3.1.4-6.1 1.6-8.5 3.6-2.9 2.5-4.6 6.1-5.1 9.9-.5 3.7-.3 7.7 1.2 11.2 1.5 3.4 4.3 6.2 7.8 7.6 3.4 1.3 7.2 1.5 10.8.9 3.7-.6 7.2-2.5 9.5-5.5 2.4-3.1 3.5-7.1 3.5-10.9 0-2.6-.3-5.3-1.2-7.7zm-7 10.9c-.3 1.7-.9 3.4-2 4.7s-2.8 2.2-4.5 2.4c-1.8.3-3.8.1-5.5-.6-1.9-.8-3.3-2.4-4.1-4.2-.9-2.2-1.1-4.6-.9-7 .2-2.3.8-4.6 2.3-6.4 1.4-1.7 3.5-2.6 5.6-2.7 2.2-.2 4.5.4 6.2 1.8 1.5 1.3 2.4 3.2 2.8 5.1.5 2.3.5 4.6.1 6.9z"/><path class="st1" d="M2.3 1.6h35.6v35.6H2.3V1.6z"/><path class="st2" d="M41.5 1.6H77v35.6H41.4c.1-11.9.1-23.8.1-35.6z"/><path class="st3" d="M2.3 40.8h35.6v35.6H2.3V40.8z"/><path class="st4" d="M41.5 40.8h35.6v35.6H41.5V40.8z"/></svg>